<?xml version="1.0" encoding="UTF-8"?>
<!-- Created with Inkscape (http://www.inkscape.org/) -->
<svg width="74.062mm" height="30.466mm" version="1.1" viewBox="0 0 74.062 30.466" xmlns="http://www.w3.org/2000/svg">
 <g transform="translate(-98.407 -204.73)">
  <g transform="matrix(.52917 0 0 .52917 118.36 210.44)">
   <path d="m-2.28 1.14t-0.56-1.13q-0.57-1.11-2.14-1.94t-2.99-1.71q-1.42-0.89-3.37-1.18-1.95-0.3-3.64-0.32-1.7-0.02-3.43-0.02-1.72 0-3.46 1.15-1.73 1.14-3.16 1.98t-3.49 2.69q-2.05 1.86-2.81 3.15t-0.79 2.49q-0.02 1.2-0.11 2.77-0.08 1.57-0.07 4 0.02 2.42-0.06 2.85-0.07 0.44-0.28 0.82-0.2 0.39-0.52 0.69t-0.72 0.48-0.84 0.23q-0.43 0.04-0.86-0.05-0.43-0.1-0.8-0.33-0.38-0.23-0.66-0.56-0.28-0.34-0.44-0.75t-0.18-0.84q-0.02-0.44 0.1-0.86 0.11-0.43 0.36-0.79t0.6-0.62q0.35-0.27 0.77-0.4 0.42-0.14 0.85-0.14 0.44 0 0.86 0.15 0.41 0.14 0.76 0.41 0.35 0.26 0.59 0.63 0.24 0.36 0.36 0.79 0.11 0.42 0.09 0.86-0.03 0.44-0.19 0.84-0.17 0.41-0.45 0.74-0.29 0.33-0.67 0.56-0.37 0.22-0.8 0.31t-0.87 0.04q-0.43-0.05-0.83-0.23-0.4-0.19-0.71-0.49-0.32-0.31-0.52-0.69-0.21-0.39-0.27-0.83-0.07-0.43-0.07-0.43t0.05-2.45q0.05-2.46 0.02-4.14t0.36-3.88q0.4-2.2 0.94-3.14 0.55-0.94 1.57-2.1 1.01-1.18 2.09-2.07 1.07-0.88 2.21-2.05 1.13-1.16 2.54-2.17 1.42-1 2.78-1.91 1.37-0.91 3.03-1.64 1.67-0.73 3.62-0.7 1.96 0.03 3.86 0.19 1.91 0.15 3.49 0.33t3.01 0.66q1.44 0.47 2.66 1.16 1.23 0.69 3.15 1.95 1.91 1.27 2.67 2.14t1.34 2.05q0.59 1.17 0.69 1.46t0.13 0.6q0.03 0.3-0.01 0.6t-0.16 0.59q-0.11 0.28-0.29 0.53t-0.41 0.45q-0.24 0.2-0.51 0.34-0.28 0.14-0.58 0.2-0.3 0.07-0.59 0.07-0.31-0.01-0.61-0.09t-0.57-0.23q-0.26-0.15-0.49-0.35-0.23-0.21-0.4-0.47t-0.17-0.25z"/>
  </g>
  <g transform="matrix(.52917 0 0 .52917 105.66 216.79)">
   <path d="m0-2.21t1.43-0.02q1.44-0.03 3.2 0.01 1.76 0.03 3.37 0.03t3.74 0.12q2.12 0.11 4.46 0.2t3.91 0.04 2.63-0.1 2.05 0.41q0.98 0.46 1.71 2.94 0.74 2.49 0.78 3.95 0.05 1.47 0.06 2.95 0.02 1.48-0.02 3.26-0.05 1.79-0.01 3.87 0.05 2.08-0.02 2.46-0.06 0.38-0.24 0.72-0.17 0.33-0.45 0.6-0.28 0.26-0.62 0.42-0.35 0.16-0.73 0.2t-0.75-0.04q-0.38-0.08-0.7-0.28-0.33-0.19-0.58-0.48t-0.39-0.65q-0.14-0.35-0.16-0.73-0.02-0.39 0.08-0.75 0.1-0.37 0.31-0.69 0.22-0.32 0.52-0.55 0.31-0.23 0.67-0.35t0.74-0.12 0.75 0.12q0.36 0.12 0.66 0.35 0.31 0.23 0.52 0.55 0.22 0.31 0.32 0.68t0.08 0.75-0.16 0.74q-0.14 0.35-0.39 0.64-0.24 0.29-0.57 0.49t-0.7 0.28q-0.38 0.08-0.75 0.04-0.38-0.04-0.73-0.2t-0.63-0.42q-0.27-0.26-0.45-0.6t-0.24-0.71q-0.07-0.38-0.07-0.38t0.04-2.08q0.03-2.08-0.02-3.85-0.06-1.76-0.07-3.22-0.01-1.45-0.03-2.84-0.01-1.38-0.44-2.53-0.43-1.14-2-1.19t-3.91 0.04-4.46 0.2q-2.13 0.12-3.74 0.12t-3.37 0.03q-1.76 0.04-3.2 0.01-1.43-0.02-1.69-0.05-0.26-0.04-0.51-0.13-0.25-0.1-0.47-0.25t-0.4-0.35-0.3-0.43q-0.12-0.24-0.19-0.5-0.06-0.26-0.06-0.52t0.06-0.52q0.07-0.26 0.19-0.5 0.12-0.23 0.3-0.43t0.4-0.35 0.47-0.25q0.25-0.09 0.51-0.13 0.26-0.03 0.26-0.03z"/>
  </g>
  <g transform="matrix(.52917 0 0 .52917 124.71 207.79)">
   <path d="m2.02 0t-0.1 2.3q-0.09 2.3-0.09 4.13-0.01 1.85 0.06 3.2 0.07 1.36 0.12 2.8t0.11 2.62q0.07 1.19 0.06 2.85-0.01 1.65-0.05 3.5-0.05 1.86-0.1 3.79-0.06 1.94-0.11 3.91-0.05 1.98 0.01 3.39 0.06 1.42 0.21 2.97t0.25 2.65q0.11 1.1 1.5 0.58 1.4-0.53 2.47-0.53 1.06-0.01 3.66-0.04t3.07 0.05q0.46 0.07 0.88 0.29 0.41 0.22 0.73 0.57 0.33 0.34 0.52 0.76 0.2 0.43 0.25 0.9 0.05 0.46-0.05 0.92t-0.34 0.86q-0.25 0.41-0.61 0.71-0.35 0.31-0.79 0.48t-0.91 0.2q-0.47 0.02-0.92-0.1-0.45-0.13-0.84-0.39-0.39-0.27-0.67-0.64-0.29-0.38-0.44-0.82-0.15-0.45-0.15-0.92t0.15-0.91q0.16-0.45 0.44-0.82 0.29-0.38 0.67-0.64 0.39-0.26 0.85-0.39 0.45-0.12 0.92-0.1 0.47 0.03 0.9 0.2 0.44 0.18 0.8 0.48 0.36 0.31 0.6 0.71t0.34 0.86 0.05 0.93-0.25 0.89q-0.2 0.43-0.52 0.77t-0.74 0.56-0.88 0.29q-0.46 0.08-0.46 0.08t-2.62-0.04-3.7-0.06q-1.09-0.02-2.32-0.04-1.24-0.02-3.08-0.47t-2.62-2.27q-0.78-1.81-0.67-2.91 0.1-1.1 0.25-2.65t0.21-2.97q0.06-1.41 0.01-3.39-0.05-1.97-0.11-3.91-0.05-1.93-0.1-3.79-0.04-1.85-0.05-3.5-0.01-1.66 0.06-2.85 0.06-1.18 0.11-2.62t0.12-2.8q0.07-1.35 0.06-3.2 0-1.83-0.09-4.13-0.1-2.3-0.07-2.54t0.12-0.47q0.08-0.23 0.22-0.43t0.32-0.36 0.4-0.27q0.22-0.12 0.45-0.18 0.24-0.06 0.48-0.06t0.48 0.06q0.23 0.06 0.45 0.18 0.22 0.11 0.4 0.27t0.32 0.36 0.22 0.43q0.09 0.23 0.12 0.47t0.03 0.24z"/>
  </g>
  <g transform="matrix(.52917 0 0 .52917 130 207.26)">
   <path d="m2.37 0t-0.14 2.3q-0.13 2.3-0.17 4.13-0.03 1.85-0.08 3.77-0.05 1.93 0.27 3.13 0.32 1.19 0.53 2.45 0.2 1.26 0.4 2.74 0.21 1.47 0.73 3.22 0.53 1.75 1.36 2.96 0.84 1.21 2.24 1.68 1.39 0.47 3.29 0.44 1.9-0.02 3.13-0.04 1.23-0.03 2.77-0.06 1.55-0.04 2.96-0.05t1.65-1.6q0.24-1.58-0.24-3.77-0.49-2.2-0.62-3.95-0.13-1.76-0.16-3.37-0.02-1.61-0.11-3.26-0.1-1.66-0.15-3.2-0.05-1.55-0.07-3.28-0.03-1.73 0.05-2.22t0.31-0.93q0.24-0.43 0.6-0.78 0.36-0.33 0.81-0.53 0.44-0.21 0.94-0.27 0.49-0.05 0.97 0.06 0.49 0.1 0.91 0.36 0.43 0.24 0.75 0.62t0.5 0.84q0.19 0.46 0.21 0.95 0.03 0.5-0.1 0.97-0.13 0.48-0.41 0.89t-0.67 0.71q-0.4 0.3-0.87 0.46t-0.96 0.16q-0.5 0-0.97-0.16t-0.86-0.46q-0.4-0.3-0.68-0.71-0.27-0.41-0.41-0.88-0.13-0.48-0.1-0.98 0.02-0.49 0.21-0.95 0.18-0.46 0.5-0.84t0.75-0.62q0.42-0.26 0.9-0.36 0.49-0.11 0.98-0.06 0.49 0.06 0.94 0.26 0.45 0.21 0.81 0.54 0.36 0.34 0.59 0.78 0.24 0.44 0.32 0.93t0.08 0.49-0.02 1.72-0.06 3.22q-0.03 1.5-0.04 3.08-0.01 1.57 0.11 3 0.12 1.42 0.33 2.75 0.2 1.33 0.71 2.9 0.5 1.57 0.83 3.09t0.25 2.98-0.71 3.1-1.54 2.51q-0.91 0.88-2.88 1.68-1.97 0.79-3.38 0.78t-2.97-0.05-2.83-0.08q-1.26-0.04-3.19-0.11-1.92-0.08-3.63-0.66t-2.77-1.26-1.81-1.5q-0.76-0.82-1.56-1.94-0.79-1.12-1.28-2.58-0.51-1.46-0.79-3.22t-0.23-3.09q0.06-1.34 0.02-2.41-0.04-1.08-0.3-2.68-0.25-1.59-0.3-3.53-0.05-1.93-0.08-3.78-0.04-1.83-0.17-4.13-0.14-2.3-0.11-2.58 0.04-0.28 0.14-0.55t0.26-0.51q0.17-0.23 0.38-0.42t0.47-0.33q0.25-0.13 0.53-0.2t0.56-0.07 0.56 0.07 0.53 0.2q0.26 0.14 0.47 0.33 0.22 0.19 0.38 0.42 0.16 0.24 0.26 0.51t0.14 0.55q0.03 0.28 0.03 0.28z"/>
  </g>
  <g transform="matrix(.52917 0 0 .52917 150.64 219.96)">
   <path d="m-2.42 0t0.05-1.72q0.04-1.72 0.01-3.03-0.02-1.31-0.03-2.73t0.04-3.17q0.04-1.75 0.06-3.36 0.01-1.61-0.03-2.87t-0.06-2.46q-0.01-1.2 0.47-2.32t1.33-1.76q0.84-0.65 2.25-0.97 1.4-0.32 3.61-0.05t3.44 0.39q1.22 0.11 3.15 0.58 1.94 0.46 3.43 0.93 1.49 0.48 3.24 1.25 1.74 0.77 2.72 1.6 0.97 0.84 1.68 2.9 0.72 2.07 0.49 3.57-0.22 1.49-1.82 3.67-1.6 2.17-2.44 2.94t-0.8-0.92q0.03-1.7 1.3-2.14t2.44-0.41 2.24 0.04 3.11 0.63 3.31 1.23q1.28 0.61 2.15 1.25t2.16 1.76q1.28 1.12 2.36 2.14 1.07 1.02 1.8 2.09 0.72 1.06 1.28 3.21 0.56 2.14 0.63 3.89t0.08 3.59q0 1.84 0.03 3.11 0.02 1.27-0.85 3.32-0.87 2.04-2.63 3.97-1.77 1.94-2.83 2.8-1.06 0.87-2.48 1.4-1.43 0.53-3.16 0.91-1.74 0.38-4.34 0.97-2.61 0.58-4.85 0.69t-3.64 0.08q-1.41-0.03-3.51-0.03-2.09-0.01-4.31 0.36t-3.79 0.38q-1.56 0.01-4.74 0.54-3.17 0.53-3.64 0.53-0.47-0.01-0.91-0.16t-0.82-0.44q-0.37-0.29-0.63-0.68t-0.38-0.85q-0.12-0.45-0.09-0.92t0.21-0.9q0.18-0.44 0.49-0.79 0.3-0.35 0.71-0.59 0.4-0.24 0.86-0.34 0.46-0.09 0.93-0.04 0.47 0.06 0.89 0.26t0.76 0.53q0.34 0.32 0.55 0.74 0.22 0.42 0.29 0.88 0.07 0.47-0.01 0.93t-0.3 0.87q-0.23 0.42-0.57 0.73-0.35 0.32-0.77 0.52-0.43 0.19-0.9 0.24-0.47 0.04-0.92-0.06-0.46-0.11-0.86-0.36-0.4-0.24-0.7-0.6t-0.47-0.8-0.19-0.91 0.11-0.92 0.4-0.84q0.26-0.38 0.64-0.66t0.82-0.43q0.45-0.14 0.45-0.14t3.52-0.47q3.51-0.46 4.94-0.56t2.55-0.2 2.39-0.45q1.28-0.35 3.4-0.37 2.13-0.02 3.48-0.08 1.36-0.05 2.48-0.11 1.12-0.05 2.83-0.24t2.9-0.69q1.2-0.5 2.54-0.9 1.35-0.41 2.63-0.9 1.29-0.49 2.51-0.97 1.22-0.47 1.84-1.72t0.64-2.51q0.02-1.27 0-3.04-0.01-1.78-0.05-3.26t-0.37-2.77-1.31-2.28q-0.97-0.99-1.97-1.92-0.99-0.95-2.28-1.86-1.28-0.91-2.32-1.32-1.04-0.4-2.13-0.4t-2.29 0q-1.19 0.01-2.76 0.03t-3.33-0.97q-1.77-0.99-1.24-3.37 0.53-2.39 1.64-3.59 1.12-1.2 1.4-2.64 0.29-1.43-1.1-2.06t-2.58-1.02q-1.18-0.39-2.86-0.6-1.67-0.22-4-0.58-2.33-0.37-3.58 0.13-1.24 0.5-1.28 1.76t-0.03 2.87q0.02 1.61 0.06 3.36 0.05 1.75 0.04 3.17t-0.03 2.73q-0.03 1.31 0.01 3.03 0.05 1.72 0.01 2-0.03 0.29-0.14 0.57-0.1 0.27-0.27 0.51-0.16 0.24-0.38 0.44-0.22 0.19-0.48 0.32-0.26 0.14-0.54 0.21t-0.57 0.07-0.57-0.07-0.54-0.21q-0.26-0.13-0.48-0.32-0.22-0.2-0.38-0.44-0.17-0.24-0.27-0.51-0.11-0.28-0.14-0.57-0.04-0.28-0.04-0.28z"/>
  </g>
  <g transform="matrix(.52917 0 0 .52917 102.48 227.37)">
   <path d="m1.56-2.08t1.14 0.88q1.14 0.87 2.26 1.86 1.11 1 2.75 1.68 1.64 0.69 3.35 1.5t4.17 0.42 2.95-0.31q0.5 0.09 0.95 0.32 0.45 0.24 0.79 0.61 0.35 0.37 0.56 0.82 0.21 0.46 0.27 0.97 0.05 0.5-0.06 0.99-0.11 0.5-0.37 0.93t-0.65 0.76q-0.38 0.32-0.85 0.51t-0.98 0.21q-0.5 0.03-0.99-0.11-0.49-0.13-0.9-0.42-0.42-0.28-0.73-0.68-0.3-0.41-0.46-0.89t-0.16-0.98q0-0.51 0.16-0.98 0.16-0.48 0.47-0.89 0.31-0.4 0.73-0.68 0.41-0.28 0.9-0.42 0.49-0.13 0.99-0.1 0.51 0.03 0.98 0.21 0.47 0.19 0.85 0.52 0.39 0.33 0.65 0.76 0.25 0.43 0.36 0.93 0.11 0.49 0.05 0.99-0.05 0.51-0.26 0.96-0.22 0.46-0.57 0.83-0.34 0.36-0.79 0.6t-0.95 0.32q-0.49 0.08-0.49 0.08t-2.28-0.06q-2.27-0.05-3.61-0.27-1.34-0.21-2.44-0.83-1.09-0.61-2.46-1.37-1.37-0.75-2.75-1.39-1.37-0.65-2.38-1.53-1.01-0.89-2.16-1.74-1.16-0.85-1.38-1.07-0.23-0.22-0.4-0.48-0.17-0.27-0.27-0.56-0.09-0.3-0.12-0.61t0.02-0.62 0.18-0.6q0.12-0.28 0.31-0.54 0.19-0.25 0.43-0.45 0.24-0.19 0.53-0.33 0.28-0.13 0.59-0.2 0.3-0.06 0.61-0.05 0.31 0.02 0.61 0.1 0.3 0.09 0.58 0.25 0.27 0.15 0.27 0.15z"/>
  </g>
 </g>
</svg>
