<?xml version="1.0" encoding="UTF-8"?>
<!-- Created with Inkscape (http://www.inkscape.org/) -->
<svg width="60.979mm" height="34.167mm" version="1.1" viewBox="0 0 60.979 34.167" xmlns="http://www.w3.org/2000/svg">
 <g transform="translate(-124.86 -144.81)">
  <g transform="matrix(.52917 0 0 .52917 152.41 165.14)">
   <path d="m-18.88-11.6t0.01-1.55q0.02-1.56 0.02-3-0.01-1.45-0.02-2.84 0-1.39-0.2-2.59-0.19-1.2-0.29-2.65t-0.47-2.52q-0.38-1.07-0.76-2.47-0.39-1.39-1.17-2.74t-3.28-1.44q-2.49-0.1-5.34-0.26-2.84-0.17-4.94-0.1t-3.86 0.48q-1.77 0.4-2.91 1.12t-2.07 1.83q-0.94 1.11-1.48 2.56t-1.06 3.57-1.17 4.84q-0.66 2.72-0.94 5.34t-0.22 5.63 0.64 5.96q0.59 2.94 1.41 5.96 0.82 3.01 1.74 5.63t1.86 4.45 1.95 3.1q1 1.26 2.44 2.27t3.5 1.83q2.06 0.83 5.01 1.38 2.96 0.56 6.14 0.81 3.19 0.25 6.49 0.36 3.31 0.11 5.77-0.22 2.47-0.33 3.3-1.45 0.84-1.13 0.37-2.26-0.47-1.12-1.12-4.09-0.66-2.97-0.65-3.29 0-0.33 0.11-0.63 0.11-0.31 0.31-0.57 0.2-0.25 0.47-0.43t0.58-0.27q0.32-0.08 0.64-0.06 0.33 0.02 0.63 0.15 0.3 0.12 0.55 0.34 0.24 0.21 0.4 0.49 0.17 0.28 0.23 0.6 0.07 0.32 0.03 0.64-0.04 0.33-0.18 0.62t-0.37 0.53q-0.22 0.23-0.51 0.38t-0.61 0.2-0.65-0.01q-0.32-0.06-0.6-0.21-0.29-0.16-0.51-0.4t-0.35-0.54q-0.13-0.29-0.17-0.62-0.03-0.32 0.05-0.64 0.07-0.31 0.24-0.59t0.43-0.49q0.25-0.2 0.55-0.32t0.63-0.13q0.32-0.01 0.64 0.08 0.31 0.09 0.58 0.27 0.26 0.19 0.46 0.45 0.19 0.26 0.29 0.57t0.1 0.31 0.5 2.83q0.49 2.83 0.8 4.9t-0.56 3.46q-0.87 1.38-2.3 1.96-1.44 0.57-4.14 0.93-2.71 0.36-6.08 0.27-3.37-0.1-6.71-0.33-3.34-0.24-6.57-0.83-3.24-0.6-5.65-1.55-2.42-0.96-4.17-2.31-1.75-1.34-2.76-2.87-1-1.54-2.03-3.53t-2-4.7-1.85-5.81q-0.87-3.11-1.53-6.29-0.66-3.19-0.77-6.39-0.12-3.2 0.11-6.02t0.77-5.55q0.54-2.74 1-5.2t1.31-4.46 2.27-3.51q1.42-1.5 3.07-2.35t3.7-1.38 4.33-0.83q2.29-0.29 5.18-0.41 2.89-0.11 5.23-0.22 2.33-0.11 4.59 1 2.26 1.1 2.92 2.21 0.66 1.1 1.01 2.18 0.36 1.09 0.72 2.41 0.36 1.31 0.84 2.96 0.47 1.64 0.54 2.92 0.06 1.27 0.26 2.81 0.2 1.55 0.19 2.94t-0.02 2.84q0 1.44 0.02 3 0.02 1.55-0.02 1.85-0.03 0.29-0.14 0.57-0.1 0.28-0.27 0.52t-0.39 0.44-0.49 0.33q-0.26 0.14-0.55 0.21-0.28 0.07-0.58 0.07-0.29 0-0.58-0.07t-0.55-0.21q-0.26-0.13-0.48-0.33-0.23-0.2-0.39-0.44-0.17-0.24-0.28-0.52-0.1-0.28-0.14-0.57-0.03-0.3-0.03-0.3z"/>
  </g>
  <g transform="matrix(.52917 0 0 .52917 136.9 167.78)">
   <path d="m0-2.61t3.31 0.13 7.8 0.03q4.48-0.1 7.79-0.11 3.3-0.01 4.9-0.1 1.59-0.09 3.22-0.21 1.64-0.11 2.65 0.43t1.78 1.41 1.71 3.15q0.94 2.3 1.63 4.28 0.69 1.99 0.77 2.41 0.09 0.42 0.03 0.84-0.06 0.43-0.24 0.81-0.19 0.38-0.49 0.69-0.3 0.3-0.68 0.49t-0.8 0.25q-0.43 0.06-0.85-0.02-0.42-0.07-0.79-0.28t-0.66-0.53q-0.28-0.31-0.45-0.7t-0.21-0.82q-0.04-0.42 0.06-0.84 0.1-0.41 0.33-0.77t0.56-0.63 0.73-0.42 0.83-0.16q0.42-0.02 0.83 0.1 0.41 0.13 0.76 0.37 0.34 0.25 0.6 0.6 0.25 0.34 0.37 0.75 0.13 0.41 0.12 0.83-0.01 0.43-0.15 0.83-0.15 0.4-0.41 0.74-0.27 0.33-0.63 0.56t-0.77 0.34q-0.41 0.1-0.84 0.07-0.42-0.03-0.81-0.2-0.4-0.17-0.72-0.45t-0.53-0.65-0.21-0.37-0.74-3.15-1.3-4.62q-0.55-1.47-1.79-1.54t-2.83-0.09-4.86 0.13-7.83 0.45q-4.57 0.29-7.88 0.42t-3.58 0.09q-0.27-0.03-0.53-0.13t-0.49-0.25q-0.23-0.16-0.41-0.37-0.18-0.2-0.31-0.45-0.13-0.24-0.2-0.51-0.06-0.26-0.06-0.54 0-0.27 0.06-0.54 0.07-0.27 0.2-0.52 0.13-0.24 0.31-0.45 0.18-0.2 0.41-0.36t0.49-0.26q0.26-0.09 0.53-0.13 0.27-0.03 0.27-0.03z"/>
  </g>
  <g transform="matrix(.52917 0 0 .52917 155.19 150.04)">
   <path d="m1.71 0t-0.06 2.72q-0.05 2.73-0.09 5.06t-0.07 5.07 0.14 6.21q0.18 3.46 0.63 7.05 0.45 3.58 1.03 6.85 0.57 3.26 1.19 5.79 0.63 2.52 1.45 4.28 0.83 1.75 1.48 2.87 0.66 1.12 1.38 1.92 0.72 0.79 2.08 0.07 1.37-0.73 1.91-1.88 0.53-1.15 0.76-4.33 0.23-3.17 0.39-5.86t0.27-5.2q0.12-2.51 0.14-4.36 0.01-1.85-0.06-2.44-0.08-0.59-0.05-0.83 0.03-0.25 0.12-0.48t0.23-0.44q0.14-0.2 0.33-0.37 0.18-0.16 0.4-0.28 0.22-0.11 0.46-0.17t0.49-0.06 0.49 0.06 0.46 0.18q0.22 0.11 0.41 0.28 0.18 0.16 0.32 0.37 0.14 0.2 0.23 0.43t0.12 0.48 0.11 4.18q0.07 3.93 0.47 7.37 0.4 3.43 0.93 6.24 0.53 2.8 1.15 4.48 0.62 1.69 1.31-1.17 0.69-2.85 1.42-5.45 0.72-2.61 1.24-5.78 0.52-3.18 0.96-5.75 0.44-2.56 0.58-4.38t0.12-2.43q-0.01-0.6 0.03-0.81 0.05-0.22 0.14-0.41 0.1-0.2 0.23-0.36 0.14-0.17 0.32-0.3 0.17-0.13 0.37-0.21t0.42-0.12q0.21-0.03 0.43-0.01 0.21 0.02 0.42 0.09 0.2 0.07 0.38 0.19 0.19 0.12 0.34 0.27 0.14 0.16 0.25 0.35t0.17 0.4q0.05 0.21 0.06 0.42 0.01 0.22 0.06 2.72 0.05 2.49-0.01 4.65-0.07 2.16 0.27 4.11 0.33 1.94 0.87 3.72t1.6 4.21q1.06 2.44 1.1 2.71 0.05 0.28 0.01 0.55-0.05 0.28-0.18 0.52-0.13 0.25-0.33 0.44t-0.45 0.31-0.53 0.15-0.55-0.03-0.51-0.2-0.42-0.35-0.28-0.47q-0.11-0.26-0.12-0.54-0.02-0.27 0.06-0.54 0.07-0.27 0.22-0.5 0.16-0.23 0.38-0.4t0.48-0.26q0.27-0.09 0.54-0.09 0.28 0 0.55 0.09 0.26 0.08 0.48 0.25t0.38 0.4 0.23 0.5q0.08 0.26 0.06 0.54-0.01 0.28-0.11 0.54t-0.28 0.47-0.42 0.35q-0.24 0.15-0.51 0.21t-0.55 0.03q-0.27-0.03-0.53-0.14-0.25-0.12-0.45-0.31t-0.33-0.43q-0.14-0.25-0.14-0.25 0.01 0-0.95-2.53-0.95-2.54-1.52-4.48-0.57-1.95-1.02-4.17-0.46-2.23-0.53-4.39-0.07-2.15-0.11-4.82-0.03-2.67 0.01-2.88 0.05-0.22 0.14-0.41 0.09-0.2 0.23-0.36 0.14-0.17 0.32-0.3 0.17-0.13 0.37-0.21t0.42-0.12q0.21-0.03 0.43-0.01 0.21 0.02 0.42 0.09 0.2 0.07 0.38 0.19 0.19 0.12 0.33 0.27 0.15 0.16 0.26 0.35t0.17 0.4q0.05 0.21 0.06 0.42 0.01 0.22-0.15 0.81-0.17 0.59-0.36 2.51-0.2 1.91-0.54 4.47-0.35 2.56-0.77 5.93-0.42 3.36-0.99 6.08t-1.08 4.97q-0.52 2.24-1.15 3.78t-2.15 2.27q-1.53 0.74-2.51 0.06t-1.44-1.66-1.12-2.89q-0.65-1.9-1.3-4.8t-1.2-6.47q-0.55-3.56-0.86-7.59-0.32-4.04-0.29-4.28 0.03-0.25 0.12-0.48t0.23-0.44q0.14-0.2 0.33-0.37 0.18-0.16 0.4-0.28 0.22-0.11 0.46-0.17t0.49-0.06 0.49 0.06 0.46 0.18q0.22 0.11 0.41 0.28 0.18 0.16 0.32 0.37 0.14 0.2 0.23 0.43t0.12 0.48-0.05 0.84-0.06 2.43q0.01 1.85 0.12 4.36 0.11 2.52 0.25 5.23 0.14 2.7 0.32 4.98 0.17 2.27 0.1 3.51-0.06 1.24-0.77 3.18-0.7 1.95-2.6 3.22-1.89 1.27-3.01 1.25t-2.28 0.09-2.63-0.75q-1.47-0.85-1.99-1.88-0.51-1.03-0.97-2.28-0.47-1.25-1.35-3.24-0.89-1.99-1.55-4.61-0.66-2.61-1.27-5.94-0.59-3.33-1.09-7.01-0.49-3.69-0.71-7.23-0.21-3.54-0.24-6.29-0.03-2.74-0.07-5.07t-0.09-5.06q-0.06-2.72-0.03-2.92 0.02-0.2 0.1-0.4 0.07-0.19 0.19-0.36 0.11-0.17 0.27-0.31 0.15-0.13 0.33-0.23 0.19-0.1 0.39-0.15t0.4-0.05 0.4 0.05 0.39 0.15q0.18 0.1 0.33 0.23 0.16 0.14 0.27 0.31 0.12 0.17 0.19 0.36 0.08 0.2 0.1 0.4 0.03 0.2 0.03 0.2z"/>
  </g>
  <g transform="matrix(.52917 0 0 .52917 174.64 148.74)">
   <path d="m1.72-0.21t0.23 2.3 0.31 4.78q0.09 2.48 0.39 4.58t0.43 8.59q0.13 6.48 0.18 11.21 0.04 4.74 0.06 8.48 0.01 3.74 0.01 6.47 0.01 2.74 0.12 4.19 0.11 1.46 0.12 1.5t-0.01 0.23-0.09 0.37-0.17 0.34q-0.11 0.16-0.26 0.28-0.14 0.13-0.31 0.22t-0.35 0.14q-0.19 0.04-0.38 0.04t-0.38-0.04q-0.19-0.05-0.36-0.13-0.17-0.09-0.31-0.22-0.15-0.13-0.26-0.28-0.11-0.16-0.17-0.34-0.07-0.18-0.1-0.37-0.02-0.19-0.06-1.9t0.01-4.16 0.38-4.74 0.47-4.88q0.14-2.6 0.45-4.45 0.3-1.85 1.06-3.2t2.38-2.78q1.61-1.44 3.34-2.19 1.72-0.76 3.05-1.11t3.61-0.29q2.27 0.06 3.48 1.04 1.2 0.98 1.8 2.6 0.59 1.63 0.71 3.48 0.12 1.84 0.02 4.08-0.09 2.23-1.11 4.65t-2.4 4.1q-1.39 1.67-2.49 2.92-1.1 1.26-2.62 2.25-1.51 0.99-4.43 2.71-2.92 1.71-3.27 1.77-0.36 0.06-0.72 0-0.36-0.05-0.68-0.22t-0.57-0.43q-0.25-0.27-0.41-0.59-0.15-0.33-0.19-0.69t0.03-0.72q0.08-0.35 0.26-0.66 0.19-0.31 0.47-0.55 0.27-0.24 0.61-0.37 0.33-0.14 0.69-0.16 0.37-0.02 0.72 0.07 0.35 0.1 0.65 0.3t0.52 0.49 0.34 0.63 0.12 0.71q0 0.36-0.11 0.7-0.12 0.35-0.34 0.64-0.21 0.29-0.51 0.49-0.3 0.21-0.65 0.31-0.35 0.09-0.71 0.08-0.37-0.02-0.7-0.15-0.34-0.14-0.62-0.37t-0.46-0.54q-0.19-0.31-0.27-0.67-0.08-0.35-0.04-0.71 0.03-0.36 0.18-0.69t0.4-0.6q0.25-0.26 0.57-0.43t0.32-0.17 1.64-0.7 2.61-1.31q0.98-0.62 2.12-1.21 1.14-0.6 2.22-1.73t2.14-2.35 1.72-2.92q0.66-1.69 0.46-3.72-0.2-2.04-0.32-3.47-0.13-1.43-0.25-2.49-0.13-1.06-1.29-1.29-1.15-0.23-2.23-0.12-1.08 0.12-2.32 0.47-1.24 0.34-3.21 2.16t-2.35 3.38q-0.37 1.56-0.48 4.28-0.1 2.72-0.34 4.81-0.25 2.1-0.2 4.55t0.01 4.15q-0.05 1.71-0.07 1.9t-0.09 0.37-0.17 0.34q-0.11 0.16-0.26 0.28-0.14 0.13-0.31 0.22t-0.35 0.14q-0.19 0.04-0.38 0.04t-0.38-0.04q-0.19-0.05-0.36-0.13-0.17-0.09-0.31-0.22-0.15-0.13-0.26-0.28-0.11-0.16-0.17-0.34-0.07-0.18-0.1-0.37-0.02-0.19-0.01-0.23 0-0.04 0.11-1.49 0.1-1.46 0.08-4.19-0.02-2.74-0.06-6.47-0.03-3.72-0.11-8.44-0.08-4.73-0.24-11.02-0.15-6.29-0.52-8.54-0.38-2.25-0.54-4.6t-0.5-4.65q-0.35-2.29-0.35-2.5 0-0.2 0.05-0.4t0.15-0.39q0.09-0.18 0.23-0.34t0.31-0.28 0.37-0.19q0.19-0.08 0.4-0.1 0.21-0.03 0.41 0 0.2 0.02 0.4 0.09 0.2 0.08 0.37 0.2 0.17 0.11 0.31 0.27t0.24 0.34q0.09 0.18 0.14 0.39 0.06 0.2 0.06 0.2z"/>
  </g>
 </g>
</svg>
