<?xml version="1.0" encoding="UTF-8"?>
<!-- Created with Inkscape (http://www.inkscape.org/) -->
<svg width="58.66mm" height="28.591mm" version="1.1" viewBox="0 0 58.66 28.591" xmlns="http://www.w3.org/2000/svg">
 <g transform="translate(-123.34 -204.67)">
  <g transform="matrix(.52917 0 0 .52917 132.21 218.4)">
   <path d="m0-2.62t1.43 0.01q1.44 0.02 2.63 0 1.18-0.02 2.2-0.38 1.03-0.37 2.34-0.85 1.31-0.49 1.78-2.01 0.46-1.51 0.93-2.56 0.46-1.05 0.22-2.33-0.24-1.29-1.67-1.08t-2.82-0.18-2.67-0.53q-1.28-0.13-3.4-0.21t-3.68-0.14q-1.56-0.05-3 2.06t-3.1 3.91-1.84 3.31q-0.17 1.5 0.38 2.73t1.4 2.61q0.85 1.39 2.17 2.78 1.31 1.39 2.62 2.38 1.32 1 2.78 1.94 1.45 0.95 2.94 1.76 1.5 0.81 3.26 0.4 1.77-0.4 2.19-1.39 0.41-1-0.03-2.01-0.45-1.01-0.76-2.24-0.3-1.22-1.37-1.01-1.06 0.22-2.09-0.22t-2.67-0.57q-1.62-0.12-3.24-0.15t-1.71-0.02q-0.1 0-0.5-0.05-0.41-0.05-0.79-0.2t-0.71-0.38q-0.34-0.24-0.61-0.54-0.27-0.31-0.46-0.67-0.19-0.37-0.28-0.76-0.1-0.4-0.09-0.8 0-0.41 0.1-0.81 0.1-0.39 0.29-0.75t0.46-0.67q0.28-0.3 0.62-0.53 0.33-0.23 0.72-0.38 0.38-0.14 0.79-0.19 0.4-0.04 2.47 0.11t3.99 0.31q1.92 0.15 3.61 0.22 1.68 0.08 3.39 0.01 1.72-0.07 2.85-0.14t2.66-0.14q1.52-0.08 3.02-0.14 1.51-0.06 3.55 0.9 2.04 0.97 2.48 2.94 0.44 1.99 0.86 3.84 0.43 1.85 0.5 2.9 0.08 1.06 0.14 2.35 0.05 1.29 0.05 3.05-0.01 1.76 0.01 3.01 0.01 1.26 0.04 2.81 0.03 1.56 0.05 3.77 0.01 2.22-0.08 2.77t-0.35 1.04q-0.26 0.5-0.67 0.88-0.4 0.38-0.91 0.62-0.5 0.23-1.06 0.29-0.55 0.06-1.1-0.06-0.54-0.12-1.02-0.4-0.48-0.29-0.84-0.72-0.36-0.42-0.57-0.94-0.2-0.52-0.23-1.08-0.03-0.55 0.12-1.09t0.46-1 0.76-0.8q0.44-0.34 0.97-0.51 0.53-0.18 1.09-0.18 0.55 0 1.08 0.18t0.97 0.51q0.45 0.34 0.76 0.8t0.46 1 0.12 1.1q-0.03 0.55-0.24 1.07-0.2 0.52-0.56 0.94-0.36 0.43-0.84 0.72-0.48 0.28-1.02 0.4-0.55 0.12-1.1 0.06-0.56-0.06-1.06-0.29-0.51-0.24-0.92-0.62-0.4-0.38-0.66-0.88-0.26-0.49-0.35-1.04t-0.09-0.55 0.01-1.71q0-1.72 0.03-3.24t0.04-2.63q0.02-1.11 0.02-2.7-0.01-1.59-0.01-2.92-0.01-1.33-0.1-2.97-0.09-1.65 0.31-3.49 0.41-1.85-1.1-1.91-1.5-0.06-3.02-0.14-1.53-0.07-2.66-0.14t-2.85-0.14q-1.71-0.07-3.39 0.01-1.68 0.07-3.61 0.23-1.92 0.15-4.01 0.31-2.09 0.15-2.49 0.1-0.41-0.05-0.79-0.2t-0.71-0.38q-0.34-0.24-0.61-0.54-0.27-0.31-0.46-0.67-0.18-0.37-0.28-0.76-0.1-0.4-0.09-0.8 0-0.41 0.1-0.81 0.1-0.39 0.29-0.75t0.46-0.67q0.28-0.3 0.62-0.53 0.33-0.23 0.72-0.38 0.38-0.14 0.78-0.19 0.41-0.04 0.5-0.04 0.1 0.01 1.78 0.02 1.68 0 3.68 0.11 2.01 0.11 3.51 0.61 1.5 0.51 2.53 0.98 1.04 0.48 2.46 0.98t2.32 1.66q0.89 1.17 1.25 2.3t0.91 2.28q0.54 1.15 0.63 2.29 0.08 1.14-0.07 2.57-0.15 1.42-1.08 3.32-0.92 1.9-2.01 2.57-1.1 0.67-2.81 0.86-1.71 0.2-3.47 0.2t-3.16-0.2q-1.4-0.19-2.41-0.72-1.03-0.54-2.14-1.13-1.11-0.6-2.77-1.77t-2.59-1.81q-0.94-0.63-1.96-1.99-1.03-1.36-2.59-3.21t-2.14-2.8q-0.58-0.96-1.05-2.08t-0.74-3.51q-0.28-2.4 0.27-4.09 0.54-1.7 2-3.25 1.45-1.55 2.08-2.56 0.63-1.02 1.47-2.07 0.85-1.04 2.2-2.61 1.35-1.58 2.51-2.1t3.1-0.56q1.95-0.05 4.26-0.05 2.32-0.01 4.34 0.28 2.02 0.28 3.91 0.84t2.96 0.82q1.07 0.27 2.05 0.7t2.06 2.48q1.08 2.06 1.09 4t-0.45 3.28q-0.46 1.35-1.15 2.2-0.68 0.85-1.44 2.48t-2.43 2.37q-1.66 0.75-3.04 1.5t-2.63 0.79q-1.25 0.03-2.43 0.01-1.19-0.02-2.63 0-1.43 0.01-1.74-0.03-0.31-0.03-0.61-0.15-0.3-0.11-0.56-0.29t-0.47-0.42q-0.21-0.23-0.35-0.51-0.15-0.28-0.23-0.59-0.07-0.31-0.07-0.62t0.07-0.62q0.08-0.31 0.23-0.59 0.14-0.28 0.35-0.51 0.21-0.24 0.47-0.42t0.56-0.29q0.3-0.12 0.61-0.15 0.31-0.04 0.31-0.04z"/>
  </g>
  <g transform="matrix(.52917 0 0 .52917 147.56 210.99)">
   <path d="m2.64 0t-0.02 1.43q-0.02 1.44 0 2.63 0.02 1.18 0.09 2.88 0.07 1.71 0.13 2.96 0.07 1.25 0.33 2.57 0.27 1.32 0.55 3.16 0.28 1.85 0.88 2.86 0.59 1.01 2.09 2.13t1.17 0.31q-0.33-0.8-0.19-1.34t0.45-1.01q0.3-0.46 0.74-0.8 0.44-0.35 0.96-0.53 0.53-0.19 1.08-0.19 0.56-0.01 1.09 0.16t0.98 0.5q0.44 0.33 0.76 0.79 0.32 0.45 0.48 0.99 0.15 0.53 0.13 1.08-0.02 0.56-0.22 1.08t-0.55 0.95q-0.36 0.43-0.83 0.72t-1.01 0.42-1.1 0.08q-0.55-0.06-1.06-0.28-0.51-0.23-0.92-0.61-0.41-0.37-0.67-0.86-0.27-0.49-0.37-1.04-0.1-0.54-0.01-1.09 0.08-0.55 0.33-1.05 0.26-0.49 0.65-0.88 0.4-0.39 0.9-0.63 0.51-0.24 1.06-0.31t1.1 0.05q0.54 0.11 1.02 0.39t0.85 0.7q0.36 0.42 0.58 0.93 0.21 0.51 0.25 1.07 0.04 0.55 0.04 0.55t-1.08 2.42-2.38 3.32q-1.3 0.91-2.68 1.17-1.38 0.27-2.72-0.27-1.34-0.53-2.56-1.25-1.21-0.71-2.2-1.97-0.97-1.26-1.51-2.53t-0.98-2.45q-0.43-1.18-0.49-2.27-0.07-1.08-0.43-2.36-0.35-1.28-0.31-2.36 0.05-1.07 0.12-2.32 0.06-1.25 0.13-2.96 0.07-1.7 0.09-2.88 0.02-1.19 0-2.63-0.02-1.43 0.02-1.74 0.04-0.32 0.15-0.61 0.12-0.3 0.3-0.56 0.18-0.27 0.42-0.48 0.23-0.21 0.52-0.36 0.28-0.14 0.59-0.22t0.62-0.08 0.62 0.08 0.59 0.22q0.29 0.15 0.52 0.36 0.24 0.21 0.42 0.48 0.18 0.26 0.3 0.56 0.11 0.29 0.15 0.61 0.04 0.31 0.04 0.31z"/>
  </g>
  <g transform="matrix(.52917 0 0 .52917 152.32 206.76)">
   <path d="m2.65 0t0.01 1.15q0.02 1.15 0.04 2.21 0.03 1.06 0.07 3.1t0.07 4.05q0.04 2 0.08 3.6 0.05 1.59 0.09 3.08 0.03 1.5 0.44 2.87t0.91 2.83q0.49 1.46 0.62 2.73 0.14 1.27 0.65 2.71 0.52 1.43 1.17 2.4 0.65 0.96 1.07-0.03 0.43-0.99 0.49-2.08 0.06-1.08 0.09-2.28 0.04-1.2 0.04-2.37t0.01-2.6q0.01-1.44 0.01-2.81 0.01-1.37 0-2.55 0-1.19 0-2.64 0.01-1.44 0.01-2.81 0.01-1.37 0-2.55-0.01-1.19 0-2.64 0-1.44 0-3.67-0.01-2.21 0.08-2.77t0.36-1.05q0.26-0.5 0.67-0.89t0.92-0.62q0.51-0.24 1.07-0.3t1.11 0.06q0.56 0.12 1.04 0.41t0.85 0.72q0.36 0.43 0.57 0.95 0.21 0.53 0.24 1.09t-0.12 1.1-0.47 1.01q-0.31 0.47-0.76 0.81t-0.99 0.52q-0.53 0.18-1.1 0.18-0.56 0-1.09-0.18-0.54-0.18-0.99-0.52-0.45-0.35-0.76-0.81-0.32-0.47-0.47-1.01t-0.12-1.1 0.24-1.09q0.21-0.52 0.57-0.95 0.37-0.43 0.85-0.72 0.49-0.29 1.04-0.41t1.11-0.06 1.07 0.3q0.51 0.23 0.92 0.62t0.68 0.89q0.26 0.5 0.35 1.05 0.09 0.56 0.09 0.56t-0.01 2.85-0.01 4.22q0.01 1.37 0.01 2.81 0.01 1.45 0 2.64 0 1.18 0 2.55t0.01 2.81q0.01 1.45 0 2.64 0 1.19 0 2.57 0 1.37-0.01 2.89-0.01 1.51-0.14 2.92t-0.74 2.98q-0.61 1.56-1.89 3.07t-3.45 2.23q-2.16 0.72-3.66 0.46t-2.33-1.09q-0.82-0.83-1.69-1.95-0.87-1.13-1.35-2.69-0.47-1.56-0.94-2.71t-0.57-2.5-0.58-3.02-0.82-3.04q-0.35-1.36-0.32-2.9 0.04-1.53 0.09-3.12 0.04-1.6 0.08-3.6 0.03-2.01 0.07-4.05t0.07-3.1q0.02-1.06 0.04-2.21 0.01-1.15 0.05-1.46 0.04-0.32 0.15-0.62 0.12-0.3 0.3-0.56t0.42-0.47q0.24-0.22 0.52-0.36 0.29-0.15 0.6-0.23t0.62-0.08 0.62 0.08q0.32 0.08 0.6 0.23 0.28 0.14 0.52 0.36 0.24 0.21 0.42 0.47t0.3 0.56q0.11 0.3 0.15 0.62 0.04 0.31 0.04 0.31z"/>
  </g>
  <g transform="matrix(.52917 0 0 .52917 164.49 206.76)">
   <path d="m2.54 0t-0.06 1.72-0.08 3.32 0.01 2.85 0.12 3q0.09 1.74 0.16 3.69 0.06 1.96 0.1 3.83 0.03 1.87 0.05 2.94 0.01 1.06 0.06 2.41 0.06 1.34 0.95 2.93 0.89 1.58 2.13 2.34 1.24 0.77 2.7 0.68t2.79-0.09q1.34 0 2.52-0.01 1.19-0.02 2.42-0.21t3.17-0.44q1.94-0.24 2.93-1.04 0.99-0.79 1.97-1.51 0.97-0.72 1.52-1.83 0.56-1.1 0.64-2.74 0.08-1.63-0.66-2.65-0.74-1.01-1.89-0.86-1.16 0.16-2.91-0.34-1.75-0.49-3.46-0.55-1.72-0.06-3.24-0.08-1.52-0.01-3.19-0.03-1.66-0.02-3.12-0.09-1.45-0.07-2.78 0.48-1.32 0.56-3.14 0.61-1.82 0.06-2.35-0.03-0.54-0.08-1.03-0.33t-0.87-0.64q-0.39-0.39-0.63-0.89-0.24-0.49-0.3-1.04-0.07-0.54 0.04-1.08t0.39-1.02q0.27-0.47 0.69-0.83 0.41-0.36 0.92-0.58 0.5-0.21 1.04-0.24 0.55-0.04 1.08 0.1t0.99 0.44 0.8 0.73 0.52 0.95q0.19 0.52 0.19 1.07 0.01 0.55-0.15 1.07-0.17 0.52-0.5 0.97-0.32 0.44-0.77 0.75-0.45 0.32-0.98 0.47-0.53 0.16-1.08 0.14-0.54-0.02-1.05-0.22-0.51-0.19-0.94-0.54-0.42-0.35-0.71-0.82t-0.42-1q-0.12-0.54-0.07-1.08 0.05-0.55 0.27-1.05t0.6-0.91q0.37-0.4 0.85-0.67 0.48-0.26 1.02-0.36 0.53-0.1 0.53-0.1t1.65 0.14 2.8-0.38q1.14-0.53 3-0.6 1.85-0.07 2.96-0.09 1.11-0.03 2.36-0.01 1.26 0.03 2.97 0.06 1.72 0.03 4.09 0.53t3.44 0.59q1.06 0.1 2.08 0.58 1.02 0.47 2.39 0.89t2.76 2.22q1.39 1.79 1.89 4.03 0.49 2.24 0.33 4.38t-0.66 3.56-2.16 2.61q-1.66 1.2-2.62 2.34-0.96 1.13-3.33 2.06-2.36 0.92-3.5 1.03-1.15 0.1-2.54 0.47-1.4 0.38-2.79 0.38t-2.85-0.01q-1.45-0.01-2.67-0.04-1.22-0.04-2.95-0.22-1.72-0.19-2.86-0.81-1.14-0.61-2.1-1.19-0.97-0.57-1.71-1.83-0.74-1.25-1.58-2.42t-1.27-2.96q-0.42-1.8-0.36-3.14 0.05-1.35 0.06-2.41 0.02-1.07 0.05-2.94 0.04-1.87 0.1-3.83 0.07-1.95 0.16-3.69 0.09-1.75 0.12-3t0.01-2.85-0.08-3.32-0.02-2.02q0.03-0.3 0.14-0.59t0.29-0.54q0.17-0.25 0.4-0.46 0.23-0.2 0.5-0.34t0.57-0.22q0.3-0.07 0.6-0.07t0.6 0.07q0.3 0.08 0.57 0.22t0.5 0.34q0.23 0.21 0.4 0.46 0.18 0.25 0.29 0.54t0.14 0.59q0.04 0.3 0.04 0.3z"/>
  </g>
 </g>
</svg>
