<?xml version="1.0" encoding="UTF-8"?>
<!-- Created with Inkscape (http://www.inkscape.org/) -->
<svg width="76.462mm" height="37.509mm" version="1.1" viewBox="0 0 76.462 37.509" xmlns="http://www.w3.org/2000/svg">
 <g transform="translate(-117.05 -257.07)">
  <g transform="matrix(.52917 0 0 .52917 138.8 267.37)">
   <path d="m-2.38 1.19t-0.56-1.13q-0.56-1.11-1.93-1.09-1.38 0.02-2.67 0.05-1.28 0.02-2.46 0.06t-2.62 0.07-3.13 0.39q-1.68 0.37-2.92 0.81-1.24 0.45-2.84 1.68t-2.32 2.16q-0.71 0.93-1.83 1.71-1.12 0.79-2 2.6-0.88 1.82-1.98 2.91-1.1 1.1-1.58 2.38-0.48 1.27-0.42 2.35 0.05 1.08-1.2 3.99-1.26 2.91-1.52 3.98-0.25 1.07-0.3 2.13t1.19 2.38 2.14 2.26q0.89 0.93 1.88 2.31 0.98 1.38 2.58 2.46t3.31 1.99 2.71 1.4q1.01 0.49 2.37 0.46 1.35-0.03 2.93 0 1.57 0.03 3.08 0.04 1.51 0.02 2.89 0.02t2.57-0.01 2.91-1.12 2.64-2.18q0.92-1.08 1.86-1.87 0.96-0.79 2.02-2.5t1.58-3.06q0.53-1.35 0.56-2.52t-1.18-2.63-2.72-0.83q-1.5 0.63-2.67 0.63t-2.61 0q-1.44-0.01-2.92 0.69-1.48 0.71-2.49 1.36-1 0.64-1.64 2.18-0.63 1.55-0.22 2.01 0.42 0.46 0.3 1.02t-0.41 1.05q-0.3 0.49-0.73 0.86t-0.96 0.58q-0.53 0.22-1.1 0.25t-1.12-0.12-1.03-0.47q-0.47-0.31-0.82-0.77-0.34-0.45-0.53-0.99-0.18-0.54-0.19-1.11 0-0.57 0.18-1.11t0.52-1q0.35-0.45 0.82-0.78 0.47-0.32 1.02-0.47 0.55-0.16 1.12-0.13t1.1 0.24q0.53 0.2 0.97 0.57 0.43 0.37 0.73 0.86t0.42 1.04q0.13 0.56 0.07 1.13-0.06 0.56-0.3 1.08t-0.63 0.94q-0.39 0.41-0.89 0.68t-1.07 0.37q-0.56 0.09-1.12 0-0.57-0.09-1.07-0.35-0.51-0.27-0.9-0.68-0.4-0.41-0.64-0.93t-0.3-1.08q-0.07-0.57-0.07-0.57t0.83-2.41 0.97-3.62q0.13-1.22 1.13-2.19t2.68-2.35q1.67-1.38 3.01-1.98 1.33-0.6 3.22-0.66 1.89-0.07 3.26-0.07 1.38 0 2.87 0.01 1.48 0.01 2.82 0.11 1.35 0.1 2.76 0.51t2.46 1.89q1.04 1.48 1.89 2.28 0.86 0.81 1.4 3.26t0.34 3.95q-0.19 1.5-0.7 2.93-0.52 1.43-1.32 2.48-0.8 1.04-2.42 3.09t-2.34 3.11-2.09 2.03q-1.38 0.97-2.85 2.12-1.48 1.15-3.35 1.65-1.87 0.49-3.06 0.48t-2.57-0.01q-1.39 0-2.92 0.01-1.53 0-3.19 0t-3.38-0.1q-1.73-0.11-3.2-0.64-1.46-0.54-3.12-1.15-1.65-0.62-2.68-1.2-1.03-0.59-1.62-1.64-0.6-1.06-1.57-1.53-0.96-0.47-1.92-1.33-0.96-0.87-1.69-1.7-0.74-0.83-1.65-1.7-0.92-0.87-1.7-1.92-0.79-1.05-1.67-2.71-0.88-1.65-1.1-2.74-0.21-1.1-0.07-2.54 0.15-1.44 0.42-2.74t1.34-2.86q1.07-1.57 1.06-2.97t0.11-2.52 0.92-2.99q0.79-1.87 2.1-3.62 1.31-1.76 2.15-3.13 0.85-1.38 1.62-2.3 0.77-0.93 2.09-2.09 1.32-1.15 2.6-1.92 1.29-0.76 2.11-1.51 0.82-0.76 2.19-1.43t2.42-1.14q1.06-0.48 2.22-0.93 1.16-0.46 3.04-0.49t3.25 0q1.37 0.04 2.85 0.09t2.77 0.17q1.3 0.12 3.35 0.81 2.05 0.7 2.84 1.59 0.81 0.9 1.4 2.08 0.59 1.17 0.7 1.48 0.11 0.3 0.14 0.62 0.03 0.31-0.01 0.63-0.05 0.31-0.17 0.61t-0.31 0.56q-0.18 0.26-0.43 0.47-0.24 0.21-0.53 0.35-0.29 0.15-0.6 0.22-0.32 0.07-0.63 0.06-0.32-0.01-0.63-0.09t-0.59-0.24q-0.28-0.15-0.52-0.37t-0.41-0.48q-0.18-0.27-0.18-0.27z"/>
  </g>
  <g transform="matrix(.52917 0 0 .52917 144.09 267.37)">
   <path d="m2.35-1.17t0.58 1.15q0.58 1.14 1.12 3.22 0.54 2.09 1.07 3.57 0.52 1.48 1.04 3.4 0.53 1.93 1.04 3.92 0.51 1.98 1.02 3.98t1.02 4 0.59 3.12 0.52 3.02q0.44 1.91 0.51 3.01t0.52 2.63q0.44 1.53 0.76 2.68t0.86 2.75q0.53 1.6 1.45 2.5 0.91 0.9 2.3 1.39 1.4 0.48 2.87 0.82 1.48 0.34 2.88 0.43t2.83 0.11q1.44 0.02 3.05 0.04 1.61 0.01 3.03-0.68 1.42-0.7 1.36-1.39t0.21-1.19q0.28-0.49 0.7-0.87t0.94-0.61q0.51-0.22 1.08-0.27 0.56-0.05 1.11 0.08 0.55 0.14 1.03 0.44 0.47 0.3 0.83 0.74t0.56 0.97q0.19 0.53 0.21 1.09 0.02 0.57-0.14 1.11-0.17 0.54-0.49 1-0.33 0.46-0.79 0.8-0.46 0.33-1 0.5-0.54 0.16-1.1 0.15-0.57-0.01-1.1-0.2t-0.97-0.55q-0.44-0.35-0.75-0.82-0.31-0.48-0.45-1.03-0.14-0.54-0.09-1.11 0.04-0.56 0.26-1.08t0.6-0.94q0.37-0.43 0.86-0.71t1.05-0.39q0.55-0.11 1.11-0.03 0.56 0.07 1.07 0.32t0.91 0.64q0.4 0.4 0.66 0.91 0.25 0.5 0.33 1.06t-0.03 1.12q-0.1 0.55-0.1 0.55t-1.95 2.69q-1.96 2.69-3.03 3.38-1.06 0.68-2.11 0.93-1.05 0.24-2.32 0.23-1.26-0.01-3.06 0.01-1.8 0.01-3.39-0.02-1.59-0.04-3.22-0.35t-2.73-0.62q-1.1-0.3-2.7-0.91t-2.36-1.38q-0.75-0.78-1.84-1.9-1.09-1.13-1.95-2.28t-1.44-2.62q-0.57-1.47-1.06-3.7-0.48-2.22-0.86-3.58-0.37-1.35-0.49-3t-0.5-2.99q-0.37-1.34-0.5-2.96-0.12-1.61-0.61-3.61t-0.98-4q-0.49-1.99-0.97-3.94-0.47-1.96-0.87-3.64-0.39-1.69-0.81-2.79-0.43-1.1-0.58-2.38-0.16-1.28-0.73-2.43t-0.68-1.45q-0.11-0.29-0.14-0.61-0.03-0.31 0.02-0.62 0.04-0.32 0.16-0.61 0.12-0.3 0.3-0.55 0.19-0.26 0.43-0.47 0.24-0.2 0.53-0.34 0.28-0.15 0.59-0.22t0.62-0.06 0.62 0.09 0.59 0.23q0.27 0.16 0.51 0.37 0.23 0.22 0.41 0.48 0.17 0.27 0.17 0.27z"/>
  </g>
  <g transform="matrix(.52917 0 0 .52917 152.56 268.43)">
   <path d="m2.42-0.69t0.43 2.05 0.95 3.39q0.51 1.35 1.04 2.46 0.53 1.12 0.87 2.41 0.33 1.3 0.95 3t1.21 3.16q0.6 1.45 1.13 2.52 0.54 1.08 1.59 2.52 1.04 1.45 2.09 1.84 1.04 0.39 2.72 1.23 1.68 0.83 3.21 0.76 1.52-0.06 3.27-0.04 1.74 0.03 3 0.01 1.26-0.01 2.29-0.36 1.03-0.34 1.16-1.72 0.12-1.39 0.18-3.04 0.05-1.66 0.44-3.16 0.38-1.5 0.54-3.25 0.17-1.75 0.22-3.54 0.06-1.78-0.34-2.9-0.39-1.12-0.49-2.78-0.09-1.67-0.86-3.22-0.78-1.55-1.69-2.86-0.91-1.32-2.75-2.24-1.83-0.91-3.74-2.36t-2.83-2.75q-0.91-1.3-1.98-1.93-1.07-0.62-2.38-0.96t-2.23-1.6-1.79-0.87q-0.88 0.39-1.42 0.26-0.55-0.13-1.03-0.43-0.47-0.3-0.83-0.73t-0.56-0.96q-0.2-0.52-0.22-1.09-0.02-0.56 0.14-1.09 0.16-0.54 0.48-1 0.33-0.46 0.78-0.79 0.45-0.34 0.98-0.51 0.54-0.17 1.1-0.16t1.09 0.2 0.97 0.53q0.44 0.35 0.75 0.82t0.45 1.01q0.14 0.55 0.1 1.11t-0.26 1.07q-0.21 0.52-0.58 0.94-0.37 0.43-0.86 0.71-0.48 0.28-1.03 0.39t-1.11 0.04-1.06-0.31q-0.51-0.25-0.91-0.64t-0.66-0.89q-0.25-0.5-0.33-1.06-0.08-0.55 0.02-1.1 0.1-0.56 0.37-1.05t0.68-0.87q0.42-0.38 0.93-0.61 0.51-0.22 1.07-0.27 0.56-0.06 0.56-0.06t2.66 0.53q2.66 0.52 3.5 1.57 0.85 1.04 2.48 1.88 1.64 0.83 2.97 1.56 1.33 0.72 1.78 1.84t1.64 1.39q1.18 0.27 2.02 1.58 0.84 1.3 2.6 2.17 1.77 0.88 2.56 2.17t1.8 2.42q1.02 1.13 1.56 2.39 0.54 1.25 1 2.45t0.55 2.89q0.09 1.68 0.46 2.99t0.36 3.31q0 2-0.05 3.13-0.04 1.13-0.19 2.41-0.14 1.28-0.36 2.69t-0.37 3.14q-0.15 1.72-0.7 3.35-0.56 1.63-1.67 3.2-1.11 1.56-3.37 2.68t-3.38 1.1q-1.11-0.02-2.73-0.02-1.62 0.01-3.13-0.01-1.5-0.01-3.17-0.16t-3.25-0.75q-1.57-0.61-3.16-1.72-1.59-1.12-2.81-2.43-1.21-1.32-2.02-2.4-0.81-1.07-1.32-2.28-0.51-1.22-0.93-2.7-0.43-1.48-0.95-3.03-0.53-1.55-1.03-3.64-0.49-2.08-0.99-3.33t-1.04-2.76q-0.54-1.52-1.26-3.49t-0.76-2.27q-0.05-0.3-0.03-0.6 0.03-0.3 0.13-0.59 0.09-0.28 0.26-0.54 0.16-0.25 0.38-0.46t0.48-0.36q0.27-0.15 0.56-0.24 0.29-0.08 0.59-0.09t0.59 0.05q0.3 0.06 0.57 0.19 0.28 0.13 0.51 0.33 0.24 0.19 0.42 0.43t0.3 0.52 0.12 0.28z"/>
  </g>
  <g transform="matrix(.52917 0 0 .52917 175.31 264.19)">
   <path d="m0-2.64t1.43 0.02q1.44 0.01 2.63 0 1.18-0.02 2.6-0.1 1.41-0.08 2.49-0.14 1.07-0.06 3.13 0.32t3.84 1.81q1.77 1.42 3.13 3.12 1.35 1.71 1.64 3.19 0.28 1.48 0.31 3.27 0.03 1.78-0.01 3.07-0.04 1.28-0.41 2.61t-0.99 2.35-1.46 1.79q-0.85 0.76-2.2 1.51-1.34 0.74-1.9 0.82-0.57 0.09-0.96 0.14-0.4 0.05-0.79 0.01-0.4-0.04-0.77-0.18-0.38-0.14-0.71-0.36t-0.6-0.52q-0.26-0.29-0.45-0.64t-0.29-0.74q-0.1-0.38-0.11-0.78 0-0.4 0.09-0.79t0.27-0.74q0.18-0.36 0.44-0.66t0.59-0.53q0.32-0.23 0.69-0.38 0.37-0.14 2.03 0.62 1.66 0.75 3.19 0.87 1.54 0.12 3.5 0.7t3.41 1.21q1.46 0.62 2.32 1.36 0.86 0.73 1.74 1.57 0.87 0.84 1.88 1.79t1.79 2.1q0.77 1.14 1.24 2.84t0.94 3.03q0.48 1.32 0.58 3.03 0.11 1.7 0.12 3.24 0.01 1.53 0.01 3.16-0.01 1.63-0.12 3.32-0.11 1.7-0.99 3.15-0.89 1.45-2.1 2.78-1.21 1.34-2.62 1.82t-3.03 1.22q-1.63 0.73-3.91 1.47-2.29 0.73-4.36 1.25t-3.63 0.65q-1.55 0.14-3.1 0.17-1.55 0.04-2.93 0.06-1.39 0.02-2.58 0.04-1.19 0.03-2.64 0.04-1.44 0.01-3.4 0.02t-2.5-0.08q-0.53-0.09-1.01-0.34-0.48-0.26-0.86-0.65-0.37-0.39-0.6-0.89-0.22-0.49-0.28-1.03t0.06-1.07q0.11-0.53 0.39-0.99t0.69-0.82q0.42-0.35 0.92-0.55 0.51-0.2 1.05-0.23t1.06 0.12q0.52 0.14 0.97 0.45 0.45 0.3 0.78 0.73 0.33 0.44 0.49 0.95 0.17 0.51 0.17 1.06 0 0.54-0.17 1.05t-0.49 0.95q-0.33 0.43-0.78 0.73-0.45 0.31-0.97 0.45-0.52 0.15-1.06 0.12-0.55-0.03-1.05-0.23t-0.92-0.56q-0.41-0.35-0.69-0.81-0.28-0.47-0.39-1-0.12-0.52-0.06-1.06t0.28-1.03q0.23-0.5 0.61-0.89 0.37-0.39 0.85-0.65 0.48-0.25 1.01-0.34 0.54-0.09 0.54-0.09-0.01 0 2.59 0.02 2.59 0.02 3.96 0.03t2.81 0.03q1.44 0.01 2.63 0.03t2.55 0.01q1.36-0.02 2.83-0.12 1.47-0.11 3.29-0.64 1.83-0.52 3.72-1.5 1.88-0.97 3.26-1.49 1.38-0.51 2.29-1.16 0.9-0.65 0.79-1.76-0.11-1.1-0.12-2.72-0.02-1.61-0.03-3.07-0.02-1.45-0.01-2.91t-0.57-3.15q-0.58-1.7-0.97-2.75-0.38-1.05-1.33-2.08-0.95-1.02-2.18-1.61t-2.38-1.23q-1.16-0.65-3.19-1.09-2.04-0.45-3.45-0.81t-2.19-1.17q-0.78-0.8 0.79-0.11 1.56 0.7 1.17 0.75-0.4 0.05-0.79 0.01-0.4-0.04-0.77-0.18-0.38-0.14-0.71-0.36t-0.6-0.52q-0.26-0.29-0.45-0.64t-0.29-0.74q-0.1-0.38-0.11-0.78 0-0.4 0.09-0.79t0.27-0.74q0.18-0.36 0.44-0.66t0.59-0.53q0.32-0.23 0.69-0.38 0.37-0.14 0.92 0.2 0.54 0.34 1.41-0.8 0.87-1.13 0.82-3.23t-0.44-3.66q-0.39-1.57-1.19-2.53t-1.86-1.42q-1.07-0.47-2.14-0.53-1.08-0.06-2.49-0.14-1.42-0.08-2.6-0.1-1.19-0.01-2.63 0-1.43 0.02-1.74-0.02-0.32-0.04-0.62-0.15-0.29-0.11-0.56-0.29-0.26-0.19-0.47-0.42-0.21-0.24-0.36-0.52-0.15-0.29-0.22-0.6-0.08-0.31-0.08-0.62t0.08-0.62q0.07-0.31 0.22-0.6 0.15-0.28 0.36-0.52t0.47-0.42q0.27-0.18 0.56-0.29 0.3-0.11 0.62-0.15 0.31-0.04 0.31-0.04z"/>
  </g>
 </g>
</svg>
