<?xml version="1.0" encoding="UTF-8"?>
<!-- Created with Inkscape (http://www.inkscape.org/) -->
<svg width="60.295mm" height="30.969mm" version="1.1" viewBox="0 0 60.295 30.969" xmlns="http://www.w3.org/2000/svg">
 <g transform="translate(-119.48 -142.98)">
  <g transform="matrix(.52917 0 0 .52917 120.31 159.49)">
   <path d="m0.17-1.57t2.58 0.33q2.59 0.32 5.93 0.46 3.34 0.15 7.01-0.06 3.67-0.22 6.54-1.14 2.86-0.91 5.45-2.39 2.58-1.48 3.84-3.12 1.27-1.64 1.76-3.26t-0.37-3.5q-0.85-1.87-2.52-3.48-1.66-1.61-3.42-2.56t-4.38-1.34q-2.62-0.38-5.16-0.58-2.54-0.19-4.52 0.82t-3.94 2.79q-1.97 1.79-3.96 3.97t-2.74 4.36q-0.75 2.19-1.09 4.75-0.34 2.57 0.61 4.87t2.96 4.34q2.01 2.05 5.07 3.76 3.06 1.7 7.14 2.7t8.67 1.44q4.58 0.43 7.69 0.62 3.12 0.19 4.71 0.18 1.6-0.01 0.98-1.6-0.63-1.6-1.84-2.57-1.22-0.97-2.65-2.04t-2.6-1.72q-1.16-0.66-2.26-0.82-1.1-0.15-2.68-0.27-1.57-0.13-3.27 0.06-1.69 0.18-3.26 0.75t-1.84 0.56-0.53-0.08q-0.27-0.07-0.5-0.21-0.24-0.13-0.43-0.32-0.2-0.18-0.35-0.41t-0.23-0.48q-0.09-0.26-0.12-0.53-0.02-0.27 0.02-0.54t0.15-0.52q0.1-0.25 0.26-0.47t0.37-0.39 0.45-0.29q0.25-0.12 0.51-0.18 0.27-0.05 2.26 0.18 2 0.24 5.51 0.11t7.62-0.44q4.12-0.3 8.17-0.7 4.04-0.39 6.2-1.09 2.16-0.69 3.43-0.85 1.27-0.17 2.42 0.9 1.16 1.07 0.51 3.76-0.64 2.71-1.88 5.8-1.23 3.09-2.02 6.28-0.78 3.19-1.13 5.67-0.35 2.47-0.56 4.32-0.2 1.85-0.29 2.08-0.09 0.24-0.25 0.43-0.15 0.19-0.36 0.32t-0.46 0.19q-0.24 0.06-0.48 0.04-0.25-0.02-0.48-0.13-0.23-0.1-0.41-0.26-0.18-0.17-0.3-0.39t-0.17-0.46q-0.04-0.24-0.01-0.49 0.04-0.25 0.15-0.47t0.29-0.39q0.18-0.18 0.4-0.28 0.23-0.11 0.47-0.14 0.25-0.04 0.49 0.01 0.25 0.05 0.46 0.18 0.22 0.12 0.38 0.31 0.16 0.18 0.26 0.41t0.11 0.48q0.02 0.25-0.04 0.49t-0.2 0.45q-0.13 0.21-0.33 0.36-0.19 0.15-0.43 0.24-0.23 0.08-0.48 0.08-0.25 0.01-0.49-0.07-0.23-0.07-0.43-0.22t-0.35-0.35q-0.14-0.2-0.21-0.44t-0.06-0.49 0.01-0.24q0 0 0.24-1.74 0.25-1.74 0.56-4.38 0.31-2.63 1.08-6.05 0.77-3.41 1.85-6.4 1.07-2.99 1.44-4.68 0.36-1.68-2.08-0.84-2.44 0.83-6.51 1.34t-8.23 0.97-7.94 0.78q-3.78 0.33-5.42 0.29-1.64-0.05-1.91-0.06t-0.53-0.08-0.5-0.21q-0.24-0.13-0.43-0.32-0.2-0.18-0.35-0.41t-0.23-0.48q-0.09-0.26-0.12-0.53-0.02-0.27 0.02-0.54t0.15-0.52q0.1-0.25 0.26-0.47t0.37-0.39 0.45-0.29q0.25-0.12 0.51-0.18 0.27-0.05 0.67-0.29 0.39-0.23 1.53-0.28 1.14-0.04 3.22-0.32 2.08-0.27 3.97-0.12 1.9 0.15 3.54 0.64 1.65 0.48 2.9 1.33 1.25 0.86 2.79 1.99t3.25 2.64 2.5 3.61q0.79 2.11 0.1 3.56t-1.9 1.87-2.86 0.24q-1.64-0.17-4.8-0.36-3.17-0.19-7.94-0.66t-9.17-1.59q-4.4-1.13-7.76-3.07-3.37-1.93-5.65-4.4-2.28-2.46-3.31-5.35-1.03-2.9-0.64-5.82 0.4-2.91 1.39-5.51t3.1-4.9q2.1-2.31 4.37-4.3t4.83-3.12q2.57-1.13 5.31-0.94 2.74 0.18 5.77 0.7 3.04 0.52 5.12 1.69 2.09 1.17 4.05 3.2 1.97 2.04 2.89 4.67 0.93 2.63 0.19 4.85t-2.37 4.21q-1.63 1.98-4.49 3.62-2.87 1.64-6.06 2.64-3.19 1.01-7.01 1.26-3.82 0.26-7.28 0.16t-6.05-0.35q-2.58-0.25-2.77-0.3-0.18-0.04-0.35-0.13-0.17-0.08-0.31-0.21-0.15-0.12-0.26-0.28t-0.18-0.33q-0.07-0.18-0.09-0.37-0.03-0.19-0.01-0.37 0.02-0.19 0.09-0.37t0.17-0.33q0.11-0.16 0.25-0.29t0.31-0.22 0.35-0.14q0.19-0.04 0.38-0.05 0.18 0 0.18 0z"/>
  </g>
  <g transform="matrix(.52917 0 0 .52917 147.3 145.73)">
   <path d="m1.88-0.15t0.21 3.44q0.21 3.46 0.28 8.43t0.65 9.85q0.57 4.89 1.37 8.37 0.8 3.47 1.41 5.81 0.61 2.35 1.42 3.37t2.58-1.06q1.78-2.08 2.57-4.43 0.8-2.35 1.47-5.08 0.67-2.74 0.96-5 0.3-2.26 0.33-3.81 0.04-1.54 0.02-1.93-0.02-0.38 0.02-0.6 0.05-0.21 0.14-0.4 0.09-0.2 0.22-0.37 0.14-0.17 0.31-0.3t0.37-0.22q0.2-0.08 0.41-0.12 0.22-0.03 0.43-0.02 0.22 0.02 0.42 0.08 0.21 0.07 0.39 0.19 0.19 0.11 0.34 0.26 0.15 0.16 0.26 0.35 0.11 0.18 0.17 0.39t0.07 0.42q0.01 0.22 0.06 1.41 0.05 1.2-0.01 5.49t0.45 8.01q0.52 3.71 1.27 6.08 0.76 2.38 1.15 3.65 0.4 1.28 1.12-0.15 0.73-1.43 1.84-4.51 1.11-3.07 2.23-6.46 1.11-3.39 1.58-5.62t0.58-3.75q0.1-1.52 0.12-1.91 0.02-0.38 0.07-0.59t0.15-0.4 0.24-0.34q0.15-0.16 0.32-0.29 0.18-0.12 0.38-0.19 0.2-0.08 0.42-0.1 0.21-0.03 0.42 0t0.41 0.1q0.2 0.08 0.38 0.2t0.32 0.29q0.14 0.16 0.24 0.35t0.15 0.39q0.05 0.21 0.05 0.43 0 0.21 0.54 2.49 0.55 2.28 0.77 5.07 0.23 2.8 0.85 4.94t1.24 3.24 0.93 1.34q0.31 0.23 0.38 0.44t0.08 0.43q0.02 0.22-0.02 0.43-0.04 0.22-0.13 0.42t-0.22 0.37q-0.13 0.18-0.3 0.31-0.18 0.14-0.37 0.23-0.2 0.09-0.42 0.13-0.21 0.04-0.43 0.03t-0.43-0.07q-0.21-0.07-0.4-0.18t-0.34-0.26q-0.16-0.16-0.27-0.34-0.12-0.19-0.12-1.46-0.01-1.26 0.1-4.63 0.12-3.37 0.19-8.29 0.08-4.92 0.42-9.65 0.33-4.73 0.49-8.14 0.15-3.4 0.23-5.72 0.08-2.31 0.27-3.29 0.18-0.98 0.21-1.18t0.11-0.38q0.07-0.19 0.19-0.35 0.12-0.17 0.27-0.3 0.16-0.13 0.34-0.21 0.18-0.09 0.38-0.14 0.19-0.04 0.39-0.04 0.21 0.01 0.4 0.06 0.2 0.05 0.37 0.15 0.18 0.1 0.33 0.24 0.14 0.13 0.25 0.3t0.18 0.36 0.09 0.39 0.39 1.24q0.36 1.03 0.81 4.3 0.46 3.28 0.63 7.28t0.23 7.7 0.08 6.13q0.02 2.44 0.15 3.75 0.13 1.32 0.1 1.52-0.02 0.19-0.08 0.38-0.07 0.18-0.18 0.35-0.11 0.16-0.25 0.29-0.15 0.14-0.32 0.23-0.18 0.09-0.37 0.14t-0.38 0.06q-0.2 0-0.39-0.05-0.19-0.04-0.37-0.13t-0.32-0.22q-0.15-0.12-0.27-0.28-0.11-0.16-0.18-0.35-0.08-0.18-0.1-0.38-0.03-0.19 1.19-1.48 1.21-1.28 2.59-3.06 1.37-1.77 3.32-3.29 1.96-1.53 3.41-2.3 1.45-0.78 4.33-0.88 2.87-0.1 4.13 1.73 1.25 1.82 1.91 3.77 0.65 1.95 1.18 3.92 0.52 1.98 0.84 3.49 0.32 1.5-0.33 3.26t-3.08 2.34q-2.44 0.57-5.46 0.66t-5.72 0.1-4.99 0q-2.3-0.02-3.56 0.1-1.26 0.11-3.46 0.18-2.19 0.06-2.49 0.01t-0.57-0.19q-0.26-0.14-0.47-0.36-0.21-0.21-0.34-0.49-0.13-0.27-0.16-0.57t0.03-0.6q0.07-0.29 0.22-0.55 0.16-0.26 0.39-0.46 0.23-0.19 0.51-0.31 0.28-0.11 0.58-0.13 0.3-0.01 0.59 0.07t0.54 0.25q0.25 0.16 0.44 0.4 0.18 0.24 0.28 0.53 0.09 0.29 0.09 0.59t-0.09 0.59q-0.1 0.28-0.28 0.52-0.18 0.25-0.43 0.42t-0.54 0.25-0.59 0.06q-0.3-0.01-0.59-0.12-0.28-0.11-0.51-0.31-0.23-0.19-0.38-0.45-0.16-0.26-0.23-0.56-0.06-0.29-0.03-0.59t0.16-0.58q0.12-0.27 0.33-0.49t0.47-0.36q0.27-0.14 0.57-0.19t0.3-0.05 2.18 0.04q2.19 0.05 3.45 0.14 1.25 0.09 3.53 0.02 2.27-0.07 4.92-0.2 2.64-0.12 5.42-0.35t4.26-0.39q1.47-0.17 1.32-1.44t-0.74-3.11q-0.59-1.85-1.2-3.49-0.6-1.64-0.97-2.84-0.36-1.2-1.65-1.15-1.29 0.06-2.51 0.48t-2.86 1.73q-1.64 1.3-3.83 3.38-2.18 2.07-2.21 2.27-0.02 0.19-0.08 0.38-0.07 0.18-0.18 0.35-0.11 0.16-0.25 0.29-0.15 0.14-0.32 0.23-0.18 0.09-0.37 0.14t-0.38 0.06q-0.2 0-0.39-0.05-0.19-0.04-0.37-0.13t-0.32-0.22q-0.15-0.12-0.27-0.28-0.11-0.16-0.18-0.35-0.08-0.18-0.1-0.38-0.03-0.19 0.07-1.51t0.04-3.74q-0.05-2.42-0.16-6.08t-0.33-7.51q-0.22-3.84-0.7-6.85-0.48-3-0.95-4.57-0.48-1.58-0.45-1.78t0.11-0.38q0.07-0.19 0.19-0.35t0.27-0.3q0.16-0.13 0.34-0.21 0.18-0.09 0.38-0.14 0.19-0.04 0.39-0.04 0.21 0.01 0.4 0.06 0.2 0.05 0.37 0.15 0.18 0.1 0.33 0.24 0.14 0.13 0.25 0.3t0.18 0.36 0.09 0.39-0.41 1.19q-0.44 0.99-0.47 3.3-0.03 2.33-0.12 5.78-0.1 3.44-0.35 8.08t-0.21 9.58q0.03 4.94-0.16 8.79t-0.12 4.06 0.08 0.43q0.02 0.22-0.02 0.43-0.04 0.22-0.13 0.42t-0.22 0.37q-0.13 0.18-0.3 0.31-0.18 0.14-0.37 0.23-0.2 0.09-0.42 0.13-0.21 0.04-0.43 0.03t-0.43-0.07q-0.21-0.07-0.4-0.18t-0.34-0.26q-0.16-0.16-0.27-0.34-0.12-0.19-0.3-0.45-0.18-0.25-0.71-1.66-0.54-1.41-1.28-3.83t-1.02-4.94q-0.27-2.51-0.98-5.44-0.7-2.93-0.65-3.14t0.15-0.4q0.1-0.18 0.24-0.34 0.15-0.16 0.32-0.29 0.18-0.12 0.38-0.19 0.2-0.08 0.42-0.1 0.21-0.03 0.42 0t0.41 0.1q0.2 0.08 0.38 0.2t0.32 0.28q0.14 0.17 0.24 0.36t0.15 0.39q0.05 0.21 0.05 0.43 0 0.21-0.15 0.58t-0.44 1.97q-0.28 1.6-0.73 4.01t-1.5 5.89q-1.05 3.47-2.33 7.08-1.28 3.6-2.71 5.44t-3.64 0.97q-2.2-0.88-2.5-2.3-0.3-1.41-1.19-4.02t-1.53-6.56-0.72-8.21q-0.08-4.27-0.08-5.63 0.01-1.35 0.05-1.57 0.05-0.21 0.14-0.4 0.09-0.2 0.22-0.37 0.14-0.17 0.31-0.3t0.37-0.22q0.2-0.08 0.41-0.12 0.22-0.03 0.43-0.02 0.22 0.02 0.42 0.08 0.21 0.07 0.39 0.19 0.19 0.11 0.34 0.26 0.15 0.16 0.26 0.35 0.11 0.18 0.17 0.39t0.07 0.42q0.01 0.22-0.1 0.6-0.12 0.37-0.31 1.97-0.2 1.6-0.45 4.03-0.25 2.44-0.86 5.34-0.62 2.9-1.48 5.7-0.86 2.79-2.33 5.11-1.48 2.32-2.95 2.92-1.48 0.59-3.13-0.27-1.64-0.85-2.53-2.42-0.89-1.56-1.57-3.96t-1.56-6.02q-0.89-3.62-1.55-8.66-0.68-5.04-0.85-9.91-0.18-4.86-0.55-8.3-0.36-3.45-0.35-3.67t0.07-0.44 0.17-0.42q0.12-0.2 0.28-0.36 0.15-0.17 0.35-0.29 0.19-0.12 0.41-0.2 0.21-0.07 0.44-0.09 0.22-0.02 0.44 0.02 0.23 0.03 0.44 0.12t0.39 0.23 0.33 0.31q0.14 0.18 0.24 0.38 0.1 0.21 0.15 0.43 0.04 0.23 0.04 0.23z"/>
  </g>
 </g>
</svg>
