<?xml version="1.0" encoding="UTF-8"?>
<!-- Created with Inkscape (http://www.inkscape.org/) -->
<svg width="67.241mm" height="29.935mm" version="1.1" viewBox="0 0 67.241 29.935" xmlns="http://www.w3.org/2000/svg">
 <g transform="translate(-128.47 -230.53)">
  <g transform="matrix(.52917 0 0 .52917 138.98 249.87)">
   <path d="m-0.97-2.27t2.06-0.72q2.07-0.73 3.85-1.36t3.22-1q1.45-0.37 3.07-0.69 1.62-0.31 3.08-0.44 1.45-0.13 3.35-0.2t3.19-0.14q1.28-0.06 2.43-0.09t2.31 0.4q1.17 0.44 2.54 1.6 1.38 1.15 1.97 2.53 0.6 1.37 1.17 2.51 0.57 1.15 1.12 3.07t0.67 3.67q0.13 1.75 0.16 3.3t-1.05 3.96q-1.08 2.42-2.7 3.57-1.63 1.15-2.8 1.33t-3.23 0.58-3.61 0.4q-1.56-0.01-4.05-0.04t-4.02-0.08q-1.52-0.05-4-0.08-2.48-0.04-4.4 0.01-1.92 0.04-3.22 0.1-1.29 0.05-2.76-0.29t-2.55-0.73q-1.07-0.4-1.85-1.3t-2-0.85q-1.22 0.04-3.17-0.92-1.96-0.96-2.74-2.33t-2.21-3.25-1.82-3.54q-0.39-1.67-0.6-2.72-0.22-1.04-0.29-2.5t0.21-3.9q0.29-2.46 0.85-4.27 0.55-1.8 1.03-3.33 0.48-1.52 0.89-2.51 0.4-0.99 1.15-1.93 0.74-0.94 1.56-2.5 0.81-1.56 1.74-2.39 0.92-0.83 1.97-2.07 1.04-1.24 1.99-2.06 0.95-0.83 2.32-1.65t2.93-1.4q1.56-0.57 2.68-1.32 1.1-0.74 3.63-1.58 2.54-0.85 3.1-0.94 0.57-0.09 1.13 0.01 0.57 0.09 1.07 0.36t0.9 0.68q0.39 0.42 0.63 0.94 0.23 0.52 0.29 1.09 0.06 0.56-0.06 1.12t-0.42 1.05-0.73 0.86q-0.44 0.36-0.97 0.57t-1.1 0.24-1.12-0.12-1.02-0.48q-0.48-0.32-0.82-0.77-0.35-0.46-0.53-1t-0.18-1.12q0.01-0.57 0.19-1.11t0.53-0.99q0.35-0.46 0.82-0.78t1.03-0.47q0.55-0.15 1.12-0.12 0.57 0.04 1.1 0.25t0.96 0.58q0.44 0.38 0.73 0.87t0.41 1.04q0.13 0.56 0.06 1.13-0.06 0.57-0.3 1.09-0.24 0.51-0.64 0.93-0.39 0.41-0.9 0.68-0.5 0.26-0.5 0.26t-2.23 0.82q-2.23 0.81-3.34 1.1-1.11 0.3-2.59 0.75t-2.55 1.13q-1.08 0.68-1.87 1.83-0.79 1.16-2.02 1.97-1.24 0.82-1.95 1.87-0.7 1.05-1.42 2.02-0.72 0.96-1.39 2.43t-0.97 2.74q-0.3 1.26-0.65 2.31-0.35 1.06-0.55 2.67-0.19 1.6 0.03 3.44 0.22 1.85 0.52 3.36t1.54 3.34q1.24 1.84 2.32 2.48 1.08 0.65 2.22 0.73 1.15 0.08 2.34 1.25 1.18 1.18 2.38 1.27 1.19 0.08 2.46 0.13 1.28 0.06 3.2 0.1t4.39 0.01q2.48-0.04 3.99-0.1t3.9-0.16 4.58-0.25q2.18-0.15 3.36-0.18 1.17-0.02 2.3-0.59 1.13-0.56 0.98-1.69-0.14-1.12-0.16-2.52-0.02-1.39-0.1-2.51-0.08-1.11-0.48-2.28-0.4-1.18-1.11-2.65-0.71-1.45-1.79-1.9-1.09-0.45-2.37-0.52t-3.15-0.13q-1.88-0.05-3.17-0.12-1.3-0.07-2.65-0.05-1.36 0.02-2.52 0.21t-2.82 0.86-3.62 1.67q-1.95 1-2.24 1.08-0.28 0.09-0.58 0.1-0.29 0.01-0.58-0.05t-0.56-0.18q-0.27-0.13-0.5-0.32-0.24-0.19-0.42-0.42-0.18-0.24-0.29-0.52-0.12-0.27-0.17-0.57-0.05-0.29-0.02-0.58 0.02-0.3 0.11-0.58 0.1-0.28 0.26-0.53 0.15-0.26 0.37-0.46 0.21-0.21 0.47-0.36t0.26-0.15z"/>
  </g>
  <g transform="matrix(.52917 0 0 .52917 159.62 237.17)">
   <path d="m2.56 0t-0.06 1.72-0.04 3.03 0.05 2.44 0.07 3.5 0.06 3.5 0.52 3.14q0.49 2.01 0.63 3.67t0.36 2.73q0.21 1.07 0.33 2.25t1.26 2.75q1.13 1.57 1.91 2.76t2.17 1.53q1.39 0.33 1.72-0.09 0.32-0.42 0.87-0.3t1.03 0.4q0.49 0.29 0.85 0.72 0.37 0.42 0.58 0.94t0.24 1.08q0.04 0.57-0.11 1.11t-0.46 1.01q-0.31 0.46-0.76 0.81-0.44 0.34-0.97 0.52t-1.09 0.19q-0.57 0-1.1-0.18-0.53-0.17-0.98-0.51t-0.77-0.8-0.47-1-0.13-1.1q0.03-0.57 0.24-1.09 0.2-0.52 0.56-0.95t0.84-0.72q0.48-0.3 1.03-0.42t1.11-0.07q0.55 0.06 1.07 0.29 0.51 0.24 0.92 0.62t0.67 0.88q0.27 0.49 0.36 1.05 0.1 0.55 0.01 1.11-0.09 0.55-0.35 1.05t-0.66 0.88q-0.41 0.39-0.92 0.63t-1.07 0.3q-0.55 0.07-0.55 0.07t-3.21-0.79-4.02-1.6-1.64-1.79q-0.83-0.97-1.61-2.32-0.77-1.34-1.29-2.52t-0.75-2.22q-0.23-1.05-0.62-3.22t-0.38-3.96q0.01-1.78-0.33-3.75-0.34-1.96-0.32-3.09t0.06-3.5 0.07-3.5 0.05-2.44-0.04-3.03-0.02-2.02q0.04-0.31 0.15-0.6 0.1-0.29 0.28-0.54 0.18-0.26 0.41-0.46 0.23-0.21 0.5-0.35 0.28-0.14 0.58-0.22 0.3-0.07 0.6-0.07t0.6 0.07q0.3 0.08 0.58 0.22 0.27 0.14 0.5 0.35 0.23 0.2 0.41 0.46 0.18 0.25 0.29 0.54 0.1 0.29 0.14 0.6 0.04 0.3 0.04 0.3z"/>
  </g>
  <g transform="matrix(.52917 0 0 .52917 165.97 242.47)">
   <path d="m2.66 0t0.02 1.15 0.09 2.54 0.52 2.62q0.46 1.23 1 2.69 0.55 1.46 1.73 2.49t2.67 1.45q1.48 0.43 2.54-0.01 1.06-0.43 2.54-0.45 1.49-0.01 2.99-0.02t3-0.02 2.91-1.34q1.42-1.32 1.07-2.82-0.35-1.51-0.33-2.93 0.02-1.43 0.01-3.14 0-1.71 0.09-2.27 0.1-0.57 0.37-1.08t0.69-0.91 0.94-0.64q0.53-0.24 1.1-0.3 0.58-0.07 1.14 0.06 0.57 0.12 1.06 0.42 0.5 0.3 0.88 0.74 0.37 0.44 0.58 0.98 0.22 0.54 0.25 1.1 0.03 0.58-0.13 1.14-0.15 0.56-0.47 1.04-0.33 0.47-0.79 0.82t-1.01 0.54q-0.55 0.18-1.13 0.18-0.57 0-1.12-0.18-0.55-0.19-1.01-0.54t-0.79-0.83q-0.32-0.48-0.48-1.03-0.15-0.56-0.12-1.14 0.03-0.57 0.25-1.1 0.21-0.54 0.59-0.98 0.37-0.44 0.87-0.74 0.49-0.3 1.06-0.42 0.56-0.13 1.14-0.06 0.57 0.06 1.1 0.3 0.52 0.25 0.94 0.64 0.42 0.4 0.69 0.91t0.37 1.09q0.09 0.56 0.09 0.56t0 2.34q-0.01 2.35 0 3.73 0 1.39-0.04 2.99t-0.79 3.13q-0.75 1.52-2.13 3.31-1.38 1.78-2.28 2.38-0.91 0.6-1.99 0.89t-2.58 0.28-3-0.02-3.01-0.03q-1.5-0.01-3.07-0.05-1.56-0.04-2.94-0.22-1.39-0.18-2.91-0.73-1.51-0.56-2.61-1.17-1.09-0.6-1.91-1.46-0.83-0.85-1.62-2.44-0.8-1.59-1.26-3.2-0.45-1.61-0.86-3.38-0.41-1.78-0.34-3.17t0.09-2.54 0.06-1.46q0.03-0.32 0.15-0.62 0.11-0.3 0.3-0.57 0.18-0.26 0.42-0.48 0.24-0.21 0.52-0.36 0.29-0.15 0.6-0.23 0.31-0.07 0.63-0.07t0.63 0.07q0.31 0.08 0.6 0.23 0.28 0.15 0.52 0.36 0.24 0.22 0.42 0.48 0.19 0.27 0.3 0.57 0.12 0.3 0.15 0.62 0.04 0.31 0.04 0.31z"/>
  </g>
  <g transform="matrix(.52917 0 0 .52917 184.49 231.88)">
   <path d="m2.58 0t-0.01 1.43q-0.01 1.44 0.01 2.63 0.02 1.18 0.02 2.55 0 1.36 0.02 2.51 0.02 1.14 0.47 3.09 0.44 1.94 0.52 3.01 0.07 1.08 0.56 2.56 0.49 1.49 0.58 2.56 0.08 1.08 0.14 3.12t0.08 4.05q0.02 2 0.06 3.6 0.03 1.59 0.07 2.82 0.04 1.22 0.09 2.77t0.09 3.05q0.04 1.51 0.08 3.01 0.03 1.5 1.27 1.62t2.4 0.13q1.16 0 2.57 0.01 1.42 0.02 2.48-1.35 1.06-1.36 0.35-3.34-0.7-1.98-0.89-3.54-0.18-1.57-1.47-2.11-1.29-0.55-3.19-0.94-1.9-0.4-4.15-0.08t-2.8 0.23q-0.56-0.09-1.06-0.36-0.49-0.27-0.87-0.68t-0.62-0.92q-0.23-0.52-0.29-1.08t0.07-1.11q0.12-0.55 0.41-1.03 0.3-0.48 0.72-0.85 0.43-0.36 0.95-0.57 0.53-0.2 1.09-0.23 0.57-0.03 1.11 0.13 0.54 0.15 1.01 0.47 0.46 0.32 0.8 0.77t0.52 0.99q0.18 0.53 0.17 1.1 0 0.56-0.18 1.09-0.19 0.54-0.53 0.98-0.34 0.45-0.81 0.77-0.47 0.31-1.02 0.46-0.54 0.15-1.1 0.11-0.57-0.03-1.09-0.24t-0.95-0.58q-0.42-0.37-0.71-0.85-0.28-0.49-0.4-1.04t-0.06-1.11q0.07-0.56 0.31-1.07t0.62-0.92q0.39-0.41 0.89-0.67t1.05-0.35q0.56-0.09 0.56-0.09t2.41 0.06q2.42 0.05 4.44 0.58t3.22 0.7q1.21 0.18 2.69 1.06 1.49 0.88 2.63 2.09 1.14 1.2 1.48 2.28 0.34 1.07 0.85 3.05 0.52 1.98 0.86 4.41t-0.42 3.96-1.56 2.75q-0.79 1.22-1.97 2.13t-2.43 1.39q-1.24 0.48-2.37 0.5t-2.22 0.01q-1.09-0.02-2.6-0.03-1.5-0.02-2.91-0.17-1.41-0.16-2.69-0.94-1.28-0.77-2.03-1.87-0.76-1.1-1.02-2.66-0.27-1.55-0.24-3.05 0.04-1.5 0.08-3.01 0.04-1.5 0.09-3.05 0.05-1.54 0.09-2.77t0.07-2.82 0.04-3.57 0-3.88-0.05-3.26q-0.03-1.36-0.42-2.53-0.38-1.17-0.47-2.96t-0.4-3.2q-0.31-1.4-0.29-2.57t0.02-2.53q0-1.37 0.02-2.55 0.02-1.19 0.01-2.63-0.01-1.43 0.02-1.73 0.04-0.31 0.15-0.61 0.11-0.29 0.29-0.54 0.18-0.26 0.41-0.47 0.24-0.2 0.51-0.35 0.28-0.14 0.58-0.22 0.3-0.07 0.61-0.07t0.61 0.07q0.3 0.08 0.58 0.22 0.28 0.15 0.51 0.35 0.23 0.21 0.41 0.47 0.18 0.25 0.29 0.54 0.11 0.3 0.15 0.61 0.03 0.3 0.03 0.3z"/>
  </g>
 </g>
</svg>
