<?xml version="1.0" encoding="UTF-8"?>
<!-- Created with Inkscape (http://www.inkscape.org/) -->
<svg width="51.66mm" height="34.184mm" version="1.1" viewBox="0 0 51.66 34.184" xmlns="http://www.w3.org/2000/svg">
 <g transform="translate(-152.59 -183.53)">
  <g transform="matrix(.52917 0 0 .52917 165.5 200.87)">
   <path d="m-2.16-0.36t0.31-1.72 0.72-3.18q0.4-1.45 0.65-3.48t0.41-4.11q0.15-2.08 0.23-4.11t0.02-3.47-0.13-2.61q-0.06-1.16-1.94-2.51t-3.26-1.51q-1.38-0.15-2.97-0.15-1.6 0.01-2.67 0.01-1.07 0.01-2.73 2.63-1.67 2.63-2.43 4.66t-2.12 4.58q-1.35 2.55-1.87 4.79-0.52 2.23-0.79 4.62-0.27 2.38-0.41 4.83-0.14 2.44 0.35 4.76 0.48 2.31 1.23 4.44 0.75 2.12 1.63 4.17 0.88 2.06 1.63 3.47 0.74 1.42 1.39 2.55 0.64 1.12 2.25 1.2 1.61 0.09 2.77 0.06 1.16-0.02 2.52-0.02 1.36-0.01 2.8-0.02t1.76-0.28q0.31-0.28 0.7-0.43 0.39-0.16 0.81-0.19 0.42-0.02 0.82 0.09 0.41 0.11 0.75 0.34t0.6 0.57q0.26 0.33 0.39 0.72 0.14 0.4 0.14 0.82t-0.13 0.82q-0.13 0.39-0.38 0.73t-0.6 0.57q-0.33 0.24-0.74 0.35-0.4 0.12-0.82 0.1t-0.81-0.17q-0.39-0.16-0.71-0.43t-0.54-0.62q-0.22-0.36-0.31-0.77t-0.05-0.83q0.04-0.41 0.22-0.79 0.17-0.39 0.46-0.69 0.28-0.31 0.65-0.51 0.37-0.19 0.78-0.27 0.42-0.07 0.83 0 0.42 0.07 0.78 0.26 0.37 0.19 0.66 0.5 0.29 0.3 0.47 0.68t0.22 0.79q0.05 0.42-0.04 0.83-0.08 0.41-0.3 0.77-0.21 0.36-0.21 0.36t-3.43 0.8q-3.44 0.8-4.82 0.78t-2.62-0.08q-1.24-0.05-2.88-0.39t-3.07-1.63-1.94-2.56q-0.5-1.26-1.11-2.77-0.61-1.52-1.56-3.64-0.95-2.13-1.81-4.43-0.85-2.3-1.44-4.98t-0.55-5.22q0.04-2.55 0.21-5.15 0.16-2.6 0.65-5.33t1.51-5.11 1.8-5.17q0.78-2.8 1.73-4.41 0.94-1.62 1.95-3.16t2.56-2.36 2.98-0.78q1.43 0.03 3.23 0.18 1.8 0.16 4.24 0.84 2.45 0.68 3.44 1.35 0.98 0.68 2.27 2.25 1.29 1.56 1.56 2.71t0.18 2.37q-0.08 1.21-0.16 2.66-0.09 1.45-0.07 3.52 0.01 2.07 0.02 4.23 0.02 2.17-0.08 4.7-0.11 2.53-0.52 3.69t-0.67 2.89q-0.27 1.72-0.34 1.97-0.07 0.26-0.21 0.48-0.13 0.23-0.32 0.42-0.18 0.19-0.41 0.34-0.22 0.14-0.47 0.22t-0.52 0.1q-0.25 0.02-0.51-0.02-0.27-0.04-0.51-0.15-0.24-0.1-0.45-0.26-0.22-0.16-0.38-0.37-0.17-0.21-0.28-0.45t-0.17-0.5q-0.05-0.26-0.04-0.51 0.02-0.27 0.02-0.27z"/>
  </g>
  <g transform="matrix(.52917 0 0 .52917 154.92 205.1)">
   <path d="m0-2.15t2.01 0.08 4.15 0.44 4.44 0.85q2.31 0.49 4.35 0.71 2.04 0.21 3.77 0.24 1.74 0.03 3.05-0.02 1.31-0.06 3.03-0.1 1.73-0.04 2.73 0.41t1.94 1.96q0.93 1.51 0.99 3.03 0.05 1.51-0.06 3.54t-0.14 3.75q-0.03 1.71-0.03 3.31 0 1.59 0.05 3.55 0.04 1.96-0.02 2.33t-0.24 0.7-0.45 0.59-0.61 0.42q-0.34 0.15-0.72 0.19-0.37 0.05-0.74-0.04-0.36-0.08-0.69-0.27-0.32-0.19-0.56-0.48t-0.38-0.63q-0.14-0.35-0.16-0.73-0.02-0.37 0.08-0.73 0.1-0.37 0.31-0.68t0.51-0.54q0.3-0.22 0.65-0.34 0.36-0.12 0.73-0.12 0.38 0 0.74 0.12 0.35 0.12 0.65 0.34 0.3 0.23 0.51 0.54t0.31 0.67q0.1 0.37 0.08 0.74-0.02 0.38-0.16 0.72-0.14 0.35-0.38 0.64t-0.56 0.48q-0.33 0.19-0.69 0.27-0.37 0.09-0.74 0.04-0.38-0.04-0.72-0.19-0.34-0.16-0.61-0.42t-0.45-0.59-0.24-0.7-0.06-0.37 0.04-1.96q0.04-1.95 0.03-3.54 0-1.59-0.04-3.3-0.03-1.71-0.17-3.69-0.14-1.99-0.07-3.55 0.08-1.56-1.19-1.64-1.28-0.08-2.62-0.19-1.33-0.12-3.13-0.24-1.79-0.11-4-0.24t-4.48-0.46-4.15-0.55q-1.87-0.21-3.88-0.13t-2.26 0.05q-0.26-0.03-0.5-0.12-0.25-0.1-0.46-0.24-0.21-0.15-0.39-0.35-0.17-0.19-0.29-0.42t-0.18-0.48q-0.06-0.26-0.06-0.51t0.06-0.51q0.06-0.25 0.18-0.48t0.29-0.42q0.18-0.2 0.39-0.35 0.21-0.14 0.46-0.24 0.24-0.09 0.5-0.12 0.25-0.03 0.25-0.03z"/>
  </g>
  <g transform="matrix(.52917 0 0 .52917 173.44 192.4)">
   <path d="m1.91-0.21t0.21 2.59q0.2 2.6 0.27 4.9 0.06 2.3 0.35 4.33 0.29 2.02 0.69 4.65 0.39 2.62 0.59 4.64 0.2 2.03 0.8 3.86 0.61 1.84 1.24 3.18 0.63 1.35 1.01 2.64 0.37 1.29 1.02 2.41 0.64 1.13 1.27 2.61t1.84 2.86 0.93 0.05 0.02-3.32 0.51-4.06 0.21-3.53q-0.01-1.47-0.05-2.66-0.05-1.19-0.1-2.26t-0.38-2.12q-0.34-1.05-0.3-1.34 0.04-0.28 0.14-0.56 0.11-0.27 0.27-0.51 0.17-0.23 0.39-0.43 0.22-0.19 0.48-0.32 0.25-0.13 0.54-0.2 0.28-0.07 0.57-0.07t0.57 0.07q0.29 0.08 0.54 0.21 0.26 0.14 0.48 0.33 0.21 0.2 0.38 0.44 0.16 0.24 0.26 0.51 0.1 0.28 0.14 0.56 0.03 0.29 0.33 1.53 0.3 1.23 0.77 3.1 0.46 1.86 1.15 3.32t1.54 2.96q0.85 1.49 1.56 2.72 0.72 1.23 2.11 2.33 1.4 1.11 1.49-0.72t0.36-3.64q0.28-1.81 0.35-3.28 0.08-1.47-0.17-2.8t-0.37-1.7-0.12-0.75q0-0.39 0.12-0.76 0.13-0.37 0.36-0.68 0.24-0.31 0.56-0.52 0.32-0.22 0.7-0.33 0.37-0.1 0.76-0.08t0.75 0.17q0.36 0.14 0.65 0.4 0.3 0.25 0.5 0.58t0.28 0.71 0.04 0.77-0.2 0.74q-0.17 0.35-0.44 0.63-0.26 0.28-0.61 0.47-0.34 0.18-0.72 0.24-0.39 0.06-0.77 0-0.38-0.07-0.73-0.25-0.34-0.18-0.61-0.46-0.26-0.29-0.43-0.64-0.16-0.35-0.2-0.74t0.04-0.76q0.09-0.38 0.29-0.72 0.2-0.33 0.5-0.58 0.29-0.25 0.65-0.39 0.36-0.15 0.75-0.17t0.77 0.09q0.37 0.1 0.69 0.32t0.56 0.53q0.23 0.31 0.23 0.31t0.46 2.57q0.46 2.58 0.37 4.13-0.08 1.54-0.19 4.13-0.11 2.58-0.54 3.58-0.42 1.01-1.98 3.2-1.56 2.18-2.93 2.11-1.38-0.06-2.85-1.27-1.46-1.21-2.48-2.31-1.02-1.11-1.66-2.35-0.63-1.24-1.61-2.85-0.97-1.61-1.87-3.39-0.89-1.78-1.44-3.49-0.56-1.7-1.06-3.72-0.51-2.03-0.47-2.32 0.04-0.28 0.14-0.56 0.11-0.27 0.27-0.51 0.17-0.23 0.39-0.43 0.22-0.19 0.48-0.32 0.25-0.13 0.54-0.2 0.28-0.07 0.57-0.07t0.57 0.07q0.29 0.08 0.54 0.21 0.26 0.14 0.48 0.33 0.21 0.2 0.38 0.44 0.16 0.24 0.26 0.51t0.14 0.56q0.03 0.29 0.26 1.32 0.24 1.02 0.17 2.13-0.06 1.1-0.14 2.32t-0.16 2.71q-0.07 1.5-0.04 3.69 0.02 2.19-0.1 4.82-0.11 2.63-0.85 4.43-0.73 1.79-1.86 2.49t-2.57 0.56q-1.43-0.13-2.38-1.38-0.94-1.25-1.89-2.47-0.94-1.22-1.46-2.62-0.53-1.41-1.23-3.01-0.71-1.6-0.82-2.67-0.1-1.07-0.6-2.56-0.5-1.5-1.2-3.64-0.7-2.15-0.87-4.08t-0.64-4.54q-0.45-2.62-0.84-4.81-0.39-2.18-0.57-4.38t-0.55-4.77q-0.37-2.58-0.37-2.8 0-0.24 0.06-0.46 0.06-0.23 0.17-0.43 0.11-0.21 0.26-0.38 0.16-0.17 0.35-0.3 0.2-0.13 0.41-0.21 0.22-0.08 0.45-0.11 0.22-0.02 0.46 0.01 0.23 0.03 0.44 0.11 0.22 0.09 0.41 0.22t0.34 0.31 0.26 0.38q0.11 0.21 0.16 0.44 0.05 0.22 0.05 0.22z"/>
  </g>
  <g transform="matrix(.52917 0 0 .52917 190.9 188.17)">
   <path d="m1.77-0.88t1.35 2.91q1.36 2.92 2.26 6.33t1.25 6.93q0.36 3.52 0.78 6.96 0.41 3.45 1.13 5.96 0.71 2.51 1.32 4.47 0.6 1.97 1.22 2.94 0.61 0.98 1.39 2.51 0.79 1.53 0.9 1.8 0.11 0.26 0.13 0.55t-0.05 0.56q-0.07 0.28-0.22 0.52-0.16 0.25-0.39 0.43-0.22 0.17-0.49 0.27t-0.56 0.11q-0.29 0-0.56-0.08-0.28-0.09-0.51-0.26t-0.4-0.4q-0.17-0.24-0.25-0.52-0.08-0.27-0.07-0.56t0.11-0.56 0.28-0.49 0.43-0.38q0.24-0.15 0.52-0.22 0.28-0.06 0.57-0.04 0.28 0.03 0.55 0.14 0.26 0.12 0.47 0.31 0.22 0.19 0.36 0.45 0.14 0.25 0.19 0.53t0.01 0.57q-0.04 0.28-0.17 0.54t-0.33 0.46q-0.21 0.2-0.47 0.33-0.26 0.12-0.54 0.16-0.29 0.04-0.57-0.02-0.28-0.05-0.53-0.2-0.25-0.14-0.44-0.36-0.19-0.21-0.19-0.21t-0.79-1.75q-0.78-1.75-1.26-3.03-0.49-1.27-1.11-3.26t-1.43-4.71q-0.82-2.72-1.31-6.18-0.48-3.47-0.89-6.72-0.4-3.25-1.3-6.31t-2.41-5.89q-1.52-2.83-1.6-3.05-0.08-0.23-0.1-0.47-0.02-0.22 0.01-0.46t0.12-0.46 0.23-0.41q0.14-0.2 0.32-0.35 0.18-0.16 0.4-0.26 0.21-0.11 0.44-0.16 0.24-0.05 0.46-0.05 0.24 0.01 0.47 0.07t0.44 0.17q0.21 0.12 0.39 0.28 0.17 0.16 0.3 0.36 0.14 0.2 0.14 0.2z"/>
  </g>
  <g transform="matrix(.52917 0 0 .52917 194.61 204.04)">
   <path d="m-1.96-1.47t0.87-1.16 1.74-1.93q0.87-0.78 2.65-1.36 1.77-0.59 2.97-0.28 1.2 0.32 3.47 1.97 2.27 1.64 3.46 3.15 1.19 1.49 2.02 2.73t1.88 2.81q1.05 1.58 1.12 3.93 0.06 2.35-1.09 3.67t-2.52 2.59q-1.36 1.28-2.31 1.87-0.94 0.59-4.36 1.55-3.41 0.95-3.9 0.9-0.5-0.05-0.95-0.25-0.44-0.21-0.81-0.55-0.36-0.33-0.59-0.77-0.23-0.43-0.32-0.92-0.08-0.49 0-0.98t0.3-0.92q0.23-0.44 0.59-0.78t0.8-0.55q0.45-0.21 0.94-0.27t0.98 0.05q0.48 0.1 0.9 0.35 0.43 0.26 0.75 0.63 0.32 0.38 0.51 0.83 0.18 0.46 0.21 0.95 0.03 0.5-0.1 0.97-0.13 0.48-0.4 0.89-0.28 0.41-0.67 0.71t-0.86 0.46q-0.46 0.17-0.96 0.17-0.49 0-0.96-0.15-0.47-0.16-0.87-0.46-0.39-0.29-0.67-0.7t-0.41-0.88q-0.14-0.48-0.12-0.97 0.03-0.5 0.21-0.96t0.5-0.83q0.32-0.38 0.74-0.64t0.9-0.37q0.48-0.1 0.48-0.1t1.47-0.01q1.46-0.01 2.54-0.63 1.08-0.63 1.97-1.49 0.89-0.85 1.87-2.08t0.35-2.09q-0.63-0.87-1.3-1.88-0.66-1.02-1.64-2.11-0.98-1.1-1.93-1.89-0.95-0.78-2.39-1.17-1.43-0.38-2.29 0.75-0.85 1.14-1.05 1.35-0.21 0.22-0.46 0.38-0.25 0.15-0.53 0.25-0.28 0.09-0.58 0.12-0.28 0.02-0.57-0.03-0.3-0.04-0.57-0.16t-0.51-0.29q-0.24-0.18-0.42-0.41-0.19-0.23-0.32-0.5-0.13-0.26-0.18-0.56-0.06-0.29-0.05-0.57 0.01-0.3 0.09-0.58 0.08-0.29 0.23-0.54 0.15-0.26 0.15-0.26z"/>
  </g>
 </g>
</svg>
