<?xml version="1.0" encoding="UTF-8"?>
<!-- Created with Inkscape (http://www.inkscape.org/) -->
<svg width="58.461mm" height="30.92mm" version="1.1" viewBox="0 0 58.461 30.92" xmlns="http://www.w3.org/2000/svg">
 <g transform="translate(-27.777 -66.362)">
  <g transform="matrix(.52917 0 0 .52917 55.659 69.669)">
   <path d="m-15.27 0.34t-1.04-0.67q-1.05-0.68-2.87-0.85-1.81-0.18-3.51-0.29t-3.88-0.27q-2.18-0.15-4.42 0.09t-3.58 0.61q-1.35 0.37-2.86 1.2-1.52 0.83-3.31 2.72-1.78 1.89-3.09 3.82-1.3 1.93-1.84 3.92-0.55 1.99-0.91 3.1t-0.47 2.91q-0.11 1.79 0.06 3.68 0.18 1.89 0.89 3.73 0.72 1.84 2.08 3.31 1.37 1.47 2.35 2.24 0.98 0.78 2.12 1.44t2.19 1.09 2.1 0.78 2.84 0.68 3.85 0.29 3.4-0.23q1.35-0.19 3.46-1.2 2.12-1.02 2.63-2.03t0.62-2.69q0.12-1.67 0.11-3.41-0.01-1.75-0.58-2.79-0.58-1.04-1.75-2-1.16-0.96-2.16-1.82t-2.69-0.79q-1.69 0.06-3.06 0.06-1.38 0-3.65 1.36-2.28 1.35-2.7 1.7-0.42 0.34-0.93 0.53-0.52 0.19-1.06 0.21-0.55 0.01-1.07-0.14-0.52-0.16-0.96-0.48-0.45-0.31-0.77-0.76-0.32-0.44-0.48-0.96t-0.15-1.07q0.01-0.54 0.2-1.05 0.18-0.52 0.52-0.94 0.34-0.43 0.8-0.73 0.46-0.29 0.99-0.42 0.53-0.14 1.07-0.1 0.55 0.05 1.05 0.26t0.91 0.58q0.4 0.36 0.67 0.83 0.28 0.48 0.38 1.01 0.11 0.54 0.03 1.08-0.07 0.54-0.31 1.03t-0.62 0.87q-0.39 0.39-0.87 0.64-0.49 0.24-1.03 0.32-0.54 0.07-1.08-0.03t-1.01-0.37q-0.48-0.26-0.84-0.67-0.37-0.4-0.59-0.9-0.21-0.5-0.26-1.05-0.05-0.54 0.08-1.07t0.42-0.99q0.3-0.46 0.3-0.46t1.93-1.36q1.93-1.35 3.7-2.18 1.76-0.82 2.81-1.07 1.06-0.25 2.5-0.24 1.45 0.01 2.82 0.06 1.37 0.04 2.94 0.36t2.99 1.35 2.39 1.96q0.97 0.94 2.2 2.74 1.24 1.8 1.9 2.93 0.65 1.13 0.7 2.97 0.05 1.83-0.11 3.75-0.17 1.91-0.41 3.35-0.24 1.45-1 2.98-0.75 1.54-2.06 2.54-1.3 1.01-2.35 1.41-1.04 0.4-2.66 1.19-1.61 0.78-3.18 1.07t-3.31 0.46q-1.75 0.18-3.91-0.23-2.16-0.42-3.24-0.67t-2.27-0.68q-1.2-0.43-2.52-1-1.31-0.56-2.81-1.38-1.5-0.81-2.83-1.81-1.34-1-2.18-1.9t-1.88-2.22q-1.05-1.32-1.68-2.7t-0.93-2.57q-0.31-1.19-0.52-2.62t-0.16-2.51q0.05-1.07 0.15-2.36 0.09-1.28 0.33-2.5 0.25-1.22 0.63-2.24 0.38-1.03 0.79-2.31 0.41-1.27 1.09-2.86t1.47-2.43q0.8-0.84 2.25-2.6 1.45-1.75 3.08-3.26 1.64-1.52 2.74-2.06 1.09-0.53 2.22-0.81 1.12-0.27 2.64-0.56 1.51-0.29 4.04-0.75 2.54-0.47 4.77-0.58 2.24-0.11 4.11-0.11 1.88 0 3.36 0.2 1.49 0.2 2.86 0.71 1.38 0.51 2.4 1.27 1.03 0.77 1.23 0.95t0.35 0.4q0.16 0.23 0.25 0.48t0.12 0.52q0.03 0.26 0 0.53-0.04 0.27-0.13 0.52-0.1 0.25-0.25 0.47-0.16 0.21-0.36 0.38-0.2 0.18-0.44 0.3-0.24 0.13-0.5 0.19t-0.53 0.06-0.53-0.07q-0.26-0.06-0.5-0.19-0.23-0.13-0.23-0.13z"/>
  </g>
  <g transform="matrix(.52917 0 0 .52917 51.426 68.611)">
   <path d="m1.73 0t-0.06 2.58q-0.06 2.59-0.1 5.7-0.04 3.12-0.36 6.23-0.32 3.12-1.06 6.23-0.72 3.11-1.02 6.03-0.29 2.91-0.43 5.31t-0.2 4.84q-0.06 2.45-0.04 4.36 0.02 1.9 0.38 3.12 0.37 1.22 0.83 2.24t1.36 2.04q0.91 1.01 2.32 0.86 1.42-0.15 2.95-1.28 1.52-1.13 2.38-2.12t1.45-2.13q0.6-1.14 1.23-2.15 0.64-1 1.4-3.01 0.76-2 1.01-2.37 0.24-0.36 0.6-0.63 0.35-0.27 0.76-0.41 0.42-0.14 0.86-0.14 0.45 0 0.86 0.14 0.42 0.14 0.77 0.41 0.36 0.27 0.6 0.63 0.25 0.37 0.37 0.79 0.12 0.43 0.09 0.87-0.02 0.44-0.18 0.85-0.17 0.41-0.45 0.75-0.29 0.33-0.67 0.56-0.37 0.23-0.81 0.32-0.43 0.1-0.87 0.05-0.43-0.05-0.84-0.23-0.4-0.19-0.72-0.49t-0.52-0.69q-0.21-0.39-0.28-0.83t0-0.87q0.07-0.44 0.28-0.83 0.2-0.39 0.52-0.69t0.72-0.49q0.41-0.18 0.84-0.23 0.44-0.05 0.87 0.05 0.44 0.09 0.81 0.32 0.38 0.23 0.67 0.56 0.28 0.34 0.45 0.75 0.16 0.41 0.18 0.85 0.03 0.44-0.09 0.87-0.12 0.42-0.12 0.42t-0.69 1.39-1.68 3.02q-0.99 1.64-1.85 3.25t-2.07 3.04-2.52 2.39q-1.31 0.95-3.98 1.57-2.66 0.62-4.07 0.23t-2.71-1.78q-1.32-1.39-1.77-2.38-0.46-0.99-0.8-2.29-0.35-1.31-0.54-2.87-0.19-1.55-0.13-3.47 0.07-1.93 0.11-4.42 0.05-2.49 0.16-4.95 0.12-2.46 0.42-5.56 0.29-3.1 0.95-6.03t0.91-5.91q0.26-2.98 0.22-6.09t-0.1-5.7q-0.06-2.58-0.03-2.78 0.02-0.21 0.1-0.41 0.07-0.19 0.19-0.36t0.27-0.31q0.16-0.14 0.35-0.24 0.18-0.1 0.38-0.15 0.21-0.05 0.41-0.05t0.41 0.05q0.2 0.05 0.38 0.15 0.19 0.1 0.35 0.24 0.15 0.14 0.27 0.31t0.19 0.36q0.08 0.2 0.1 0.41 0.03 0.2 0.03 0.2z"/>
  </g>
  <g transform="matrix(.52917 0 0 .52917 57.247 69.669)">
   <path d="m2.24 0t-0.09 2.02-0.79 4.27q-0.7 2.26-0.97 4.11-0.26 1.85-0.39 3.79-0.12 1.94-0.09 3.35t0.09 2.57q0.05 1.17 0.39 2.57 0.34 1.39 1.26 3.1t1.76 2.64q0.84 0.92 2.45 1.26 1.62 0.33 3.64 0.35 2.01 0.02 3.46-0.12 1.45-0.15 2.52-2.28 1.07-2.14 1.73-3.86 0.67-1.72 0.96-3.45 0.3-1.73 0.51-3.9t0.34-4.54-0.12-4.1q-0.25-1.74-0.89-3.18t-1.8-2.18q-1.16-0.75-1.4-0.94-0.25-0.19-0.41-0.46-0.17-0.26-0.25-0.56t-0.05-0.6q0.02-0.32 0.15-0.6 0.12-0.29 0.33-0.52 0.2-0.23 0.48-0.39 0.27-0.15 0.57-0.21 0.31-0.06 0.62-0.02t0.59 0.18 0.5 0.36 0.36 0.5 0.18 0.58-0.02 0.61q-0.05 0.31-0.21 0.58-0.15 0.27-0.38 0.48t-0.52 0.33-0.6 0.15-0.61-0.05q-0.3-0.07-0.57-0.24-0.26-0.17-0.45-0.41-0.2-0.24-0.31-0.54-0.11-0.29-0.12-0.6 0-0.3 0.09-0.6t0.27-0.55 0.43-0.44q0.26-0.18 0.55-0.27 0.3-0.09 0.61-0.09 0.31 0.01 0.61 0.12 0.29 0.11 0.29 0.11t1.86 1.7q1.85 1.72 2.59 3.6 0.74 1.89 1.03 3.91 0.28 2.03 0.32 4.46t0.04 4.79-0.21 4.51q-0.2 2.16-0.72 4.18t-1.32 4.06q-0.8 2.05-2.36 3.79t-3.11 2.17q-1.54 0.43-3.63 0.39-2.09-0.03-3.2-0.08-1.11-0.04-2.51-0.15t-3.42-1.42q-2.01-1.32-3.12-2.94t-1.93-3.6-1.11-3.12-0.21-2.25q0.07-1.11 0.17-2.31 0.1-1.19 0.22-2.63t0.2-3.51q0.07-2.06 0.3-4.21 0.22-2.16 0.67-3.91 0.45-1.76 0.36-3.76t-0.06-2.26q0.03-0.27 0.13-0.53 0.09-0.25 0.25-0.47 0.15-0.23 0.35-0.41 0.21-0.18 0.45-0.3 0.24-0.13 0.5-0.19 0.26-0.07 0.53-0.07t0.53 0.07q0.26 0.06 0.5 0.19 0.24 0.12 0.45 0.3 0.2 0.18 0.35 0.41 0.16 0.22 0.25 0.47 0.1 0.26 0.13 0.53 0.03 0.26 0.03 0.26z"/>
  </g>
  <g transform="matrix(.52917 0 0 .52917 71.005 71.786)">
   <path d="m-1.47-1.83t1.47-1.11q1.48-1.1 3.14-1.98 1.65-0.88 3.6-1.51t3.74-0.94q1.79-0.32 4.08-0.54 2.3-0.23 3.93 0.82 1.63 1.04 2.6 2.56 0.97 1.53 1.42 2.89 0.46 1.37 0.63 2.95 0.17 1.59-0.46 3.54-0.62 1.96-2.32 3.74t-3.68 3.03q-1.98 1.26-3.6 2.31-1.63 1.04-1.98 1.57-0.36 0.53-0.58 0.65-0.22 0.11-0.47 0.17-0.24 0.06-0.49 0.06-0.25-0.01-0.5-0.07-0.24-0.06-0.46-0.18t-0.41-0.28q-0.18-0.17-0.32-0.38t-0.23-0.44q-0.09-0.24-0.12-0.48-0.02-0.25 0.01-0.5t0.12-0.48q0.09-0.24 0.24-0.44 0.14-0.21 0.33-0.37 0.19-0.17 2.17-0.53 1.98-0.37 3.94-0.81 1.97-0.45 3.78-0.47 1.8-0.03 3.5 0.68t2.88 2.47q1.19 1.75 2.08 3.2 0.88 1.45 1.37 3.54 0.49 2.1 0.72 3.52 0.24 1.43 0.03 3.18-0.21 1.76-1.35 3.62-1.15 1.87-2.98 3.27-1.83 1.39-3.79 2.47-1.95 1.07-3.68 1.87-1.73 0.81-3.79 1.18-2.07 0.38-4.1 0.5-2.02 0.12-4.32 0.12-2.31 0-4.54-0.32-2.22-0.32-4.17-1.03-1.95-0.72-4.32-1.64t-2.62-1.08-0.43-0.39-0.28-0.51q-0.1-0.27-0.11-0.57 0-0.29 0.08-0.57 0.09-0.28 0.27-0.52 0.17-0.24 0.41-0.41t0.52-0.25q0.28-0.09 0.58-0.08 0.29 0.01 0.56 0.12 0.28 0.1 0.51 0.29 0.23 0.18 0.38 0.43 0.16 0.25 0.23 0.53 0.07 0.29 0.04 0.58-0.02 0.3-0.14 0.56-0.12 0.27-0.32 0.49t-0.45 0.36q-0.26 0.14-0.55 0.2-0.29 0.05-0.58 0.01t-0.55-0.17q-0.26-0.14-0.47-0.35t-0.34-0.47-0.16-0.56q-0.04-0.29 0.02-0.57 0.05-0.29 0.2-0.55 0.15-0.25 0.37-0.45 0.22-0.19 0.49-0.31 0.27-0.11 0.56-0.13t0.58 0.05q0.28 0.07 0.28 0.07t2.23 1.09q2.23 1.1 3.8 1.76t3.55 0.87q1.99 0.2 4.2 0.09 2.22-0.12 4.06-0.27t3.46-0.41 3.16-0.95q1.54-0.7 3.2-1.79 1.67-1.1 2.95-2.1t2.05-2.07q0.76-1.08 0.99-2.17 0.23-1.1 0.13-2.33t-0.39-2.67q-0.29-1.45-1.24-2.92-0.94-1.47-2.08-2.98t-2.33-1.62q-1.18-0.1-4.46 0.54-3.27 0.63-3.49 0.75-0.22 0.11-0.47 0.17-0.24 0.06-0.49 0.06-0.25-0.01-0.5-0.07-0.24-0.06-0.46-0.18t-0.41-0.28q-0.18-0.17-0.32-0.38t-0.23-0.44q-0.09-0.24-0.12-0.48-0.02-0.25 0.01-0.5t0.12-0.48q0.09-0.24 0.24-0.44 0.14-0.21 0.33-0.37 0.19-0.17 0.62-0.56 0.42-0.39 2-1.51 1.57-1.12 3.06-2.27 1.48-1.14 2.94-3.2 1.46-2.05 1.23-3.94-0.24-1.87-1.05-3.43t-2.45-1.47q-1.63 0.09-3.07 0.3-1.45 0.22-3.05 0.82-1.61 0.6-2.9 1.28-1.29 0.67-2.69 1.86-1.39 1.19-1.63 1.34-0.25 0.15-0.52 0.24t-0.55 0.11q-0.27 0.02-0.55-0.03t-0.54-0.16q-0.26-0.12-0.49-0.29-0.22-0.17-0.4-0.39-0.18-0.23-0.3-0.48-0.12-0.26-0.17-0.54-0.06-0.28-0.04-0.55 0.01-0.29 0.1-0.56 0.08-0.27 0.22-0.51 0.15-0.25 0.34-0.45 0.2-0.2 0.2-0.2z"/>
  </g>
 </g>
</svg>
