<?xml version="1.0" encoding="UTF-8"?>
<!-- Created with Inkscape (http://www.inkscape.org/) -->
<svg width="79.284mm" height="21.107mm" version="1.1" viewBox="0 0 79.284 21.107" xmlns="http://www.w3.org/2000/svg">
 <g transform="translate(-123.46 -227.66)">
  <g transform="matrix(.52917 0 0 .52917 137.22 234.74)">
   <path d="m0-2.48t2.01 0.12 3.73 0.15q1.72 0.02 3.31 0.02t3.25-0.13q1.66-0.12-0.33-0.74-2-0.62-3.05-1.17t-3.3-1.55q-2.24-1-4.49-1.13t-4.58-0.2q-2.32-0.06-3.82-0.1-1.51-0.05-3.37 0.22t-3.26 0.89q-1.39 0.63-2.43 1.27-1.03 0.64-2.43 1.64-1.39 1-1.22 2.46 0.16 1.46 1.15 3.2t1.77 3.16q0.77 1.41 2.32 2.62 1.55 1.2 2.83 1.77 1.28 0.56 3.01 1.04 1.73 0.49 3.19 0.59 1.47 0.11 2.68 0.17t2.48-0.16 2.84-0.49q1.57-0.26 3.03-0.33 1.45-0.06 2.06 2.67t0.1 2.61q-0.51-0.11-0.95-0.39-0.45-0.28-0.78-0.68-0.34-0.4-0.53-0.89t-0.21-1.01q-0.02-0.53 0.13-1.03 0.14-0.51 0.44-0.94t0.72-0.74 0.92-0.47q0.5-0.17 1.02-0.16 0.53 0.01 1.02 0.18 0.5 0.17 0.91 0.5 0.42 0.32 0.71 0.75 0.28 0.44 0.42 0.95 0.13 0.51 0.1 1.03-0.04 0.52-0.24 1.01-0.2 0.48-0.54 0.88-0.34 0.39-0.8 0.66-0.45 0.26-0.96 0.37-0.52 0.11-1.04 0.04-0.52-0.06-0.99-0.28-0.47-0.23-0.85-0.59-0.38-0.37-0.62-0.84-0.24-0.46-0.32-0.98-0.07-0.52 0.02-1.04 0.09-0.51 0.34-0.97t0.63-0.82q0.39-0.36 0.87-0.57t1-0.26q0.52-0.06 0.52-0.06t-1.54 3.74q-1.54 3.73-2.95 3.8-1.4 0.08-3.64 0.4-2.24 0.33-3.58 0.33-1.34 0.01-2.46-0.06-1.11-0.07-2.38-0.3t-2.7-0.64q-1.43-0.42-2.84-0.87-1.41-0.46-3.34-1.87-1.93-1.42-3.03-2.3-1.11-0.89-1.7-2.05-0.58-1.17-1.18-2.05-0.59-0.89-1.5-2.74-0.91-1.86-1.29-3.12t-0.25-3.01q0.13-1.76 0.52-3.09 0.39-1.32 1.86-2.63 1.47-1.32 3.08-2.42 1.6-1.1 3.03-1.56 1.44-0.46 2.57-0.95 1.13-0.5 3.63-0.8 2.51-0.3 4.02-0.34t3.93-0.04 3.85 0.04q1.44 0.03 2.99 0.26 1.56 0.23 2.74 1.15t3.36 1.62 3.47 1.11 2.8 1.3 2.16 2.56 0.32 3.16q-0.32 1.49-1.07 2.34-0.76 0.87-2.05 1.29-1.29 0.41-2.95 0.29-1.66-0.13-3.25-0.13t-3.31 0.02q-1.72 0.03-3.73 0.15t-2.3 0.08q-0.3-0.04-0.58-0.14-0.28-0.11-0.52-0.28-0.25-0.17-0.45-0.39-0.2-0.23-0.34-0.49t-0.21-0.56q-0.07-0.29-0.07-0.58t0.07-0.58q0.07-0.3 0.21-0.56 0.14-0.27 0.34-0.49t0.45-0.39q0.24-0.17 0.52-0.28 0.28-0.1 0.58-0.14 0.29-0.04 0.29-0.04z"/>
  </g>
  <g transform="matrix(.52917 0 0 .52917 132.98 237.92)">
   <path d="m0-2.38t2.3 0.14 4.13 0.17q1.85 0.04 3.78 0.09 1.93 0.04 3.33-0.01 1.39-0.06 3.22-0.2t3.8-0.24 3.09-0.1q1.13 0 2.25 0.53 1.13 0.53 1.74 1.42 0.62 0.88 0.89 2.9t0.27 3.36q-0.01 1.35-0.03 2.77-0.02 1.43-0.01 2.62 0.01 1.18-0.01 2.54-0.02 1.37 0.12 1.91 0.13 0.53 0.35 0.93 0.22 0.39 0.29 0.83 0.08 0.45 0.02 0.89-0.07 0.45-0.28 0.85-0.2 0.4-0.52 0.71-0.33 0.31-0.73 0.51-0.41 0.19-0.85 0.25-0.45 0.05-0.89-0.04t-0.83-0.32-0.68-0.56q-0.3-0.34-0.47-0.76-0.17-0.41-0.2-0.86t0.08-0.89q0.12-0.43 0.36-0.81 0.25-0.37 0.61-0.65 0.35-0.28 0.78-0.42 0.42-0.15 0.87-0.16 0.45 0 0.88 0.13 0.42 0.14 0.79 0.41 0.36 0.27 0.61 0.64 0.26 0.36 0.39 0.8 0.12 0.43 0.1 0.88-0.01 0.45-0.18 0.87-0.16 0.42-0.44 0.76-0.29 0.35-0.67 0.59-0.38 0.23-0.82 0.33-0.44 0.11-0.89 0.06-0.45-0.04-0.86-0.22-0.41-0.19-0.74-0.49-0.33-0.31-0.33-0.31t-0.68-2.24q-0.69-2.25-0.71-3.61-0.01-1.36-0.01-2.54 0.01-1.17-0.03-2.58-0.03-1.42-0.35-3.69-0.31-2.28-2.28-2.38t-3.8-0.24-3.22-0.2q-1.4-0.05-3.33-0.01-1.93 0.05-3.78 0.09-1.83 0.03-4.13 0.17t-2.58 0.1q-0.29-0.03-0.55-0.13-0.27-0.1-0.51-0.27-0.24-0.16-0.43-0.38-0.19-0.21-0.32-0.47-0.13-0.25-0.2-0.53t-0.07-0.56 0.07-0.56 0.2-0.54q0.13-0.25 0.32-0.46 0.19-0.22 0.43-0.38 0.24-0.17 0.51-0.27 0.26-0.1 0.55-0.13 0.28-0.04 0.28-0.04z"/>
  </g>
  <g transform="matrix(.52917 0 0 .52917 149.92 230.51)">
   <path d="m2.24-0.56t0.45 2.33 0.88 4.48q0.44 2.15 0.69 4.02 0.25 1.88 0.65 3.39 0.39 1.51 0.8 3.29 0.41 1.79 1.57 1.99 1.16 0.21 2.65 0.18t3.82-0.01q2.32 0.01 3.45 0.01 1.13-0.01 2.51-0.06t2.45-0.1 3.44-1.7q2.38-1.65 2.83-1.86 0.46-0.21 0.96-0.27 0.5-0.05 0.99 0.05 0.49 0.11 0.92 0.37 0.43 0.25 0.76 0.64 0.32 0.38 0.51 0.84 0.19 0.47 0.22 0.97t-0.11 0.98q-0.13 0.49-0.41 0.91-0.28 0.41-0.68 0.72-0.4 0.3-0.87 0.46-0.48 0.17-0.98 0.17t-0.98-0.16q-0.47-0.16-0.87-0.46-0.41-0.3-0.69-0.72-0.28-0.41-0.42-0.89-0.13-0.49-0.11-0.99 0.03-0.5 0.21-0.97 0.19-0.46 0.51-0.85 0.32-0.38 0.75-0.64t0.92-0.37 0.99-0.06 0.96 0.26q0.45 0.21 0.82 0.56 0.36 0.34 0.6 0.78 0.24 0.45 0.32 0.94 0.08 0.5 0 0.99-0.08 0.5-0.31 0.94-0.23 0.45-0.6 0.79-0.36 0.35-0.36 0.35t-1.82 1.41-4.13 2.17q-2.3 0.76-3.37 0.71t-2.45-0.1-2.51-0.06q-1.13 0-3.46 0.01-2.34 0-3.97-0.06-1.63-0.05-2.95-0.3-1.32-0.24-2.53-1.1-1.21-0.87-1.91-2.55-0.71-1.69-0.77-3.25-0.05-1.57-0.43-3.28-0.37-1.72-0.57-3.38t-0.82-3.76q-0.63-2.11-1.33-4.38-0.7-2.26-0.74-2.54-0.03-0.28 0-0.54 0.03-0.28 0.13-0.54t0.26-0.49q0.16-0.24 0.36-0.42 0.21-0.19 0.46-0.32t0.52-0.2q0.27-0.06 0.55-0.06 0.27-0.01 0.54 0.06t0.52 0.2q0.24 0.12 0.45 0.31 0.21 0.18 0.37 0.41t0.26 0.49 0.1 0.26z"/>
  </g>
  <g transform="matrix(.52917 0 0 .52917 156.27 231.04)">
   <path d="m2.66 0t0.01 1.12 0.47 2.61q0.46 1.5 0.98 2.98 0.53 1.48 1.33 2.8 0.79 1.32 2.43 0.82 1.65-0.51 2.93-0.46 1.28 0.04 2.4 0.05 1.13 0.02 2.91 0 1.79-0.01 3.63-0.02t3.81-0.01 3.25 0.03q1.29 0.03 2.41 0.04t2.78-0.02q1.67-0.03 2.91-0.06 1.24-0.04 2.56-1.54 1.31-1.49 1.75-2.69t0.46-2.36 0.33-2.46q0.31-1.29-0.83-0.88t-2.27 0.41-2.56 0-3.14 0.01-2.25-0.08q-0.54-0.08-1.02-0.33-0.49-0.26-0.86-0.66-0.38-0.39-0.61-0.89t-0.29-1.04q-0.06-0.55 0.06-1.08 0.12-0.54 0.4-1.01t0.7-0.82q0.42-0.36 0.93-0.56t1.05-0.23q0.55-0.03 1.08 0.11 0.53 0.15 0.98 0.46 0.46 0.31 0.79 0.74 0.33 0.44 0.5 0.96 0.18 0.52 0.18 1.07 0 0.54-0.18 1.06-0.17 0.52-0.5 0.96-0.34 0.44-0.79 0.74t-0.98 0.45q-0.53 0.14-1.08 0.11t-1.05-0.23q-0.51-0.19-0.93-0.55-0.42-0.35-0.7-0.82t-0.4-1.01q-0.12-0.53-0.06-1.08 0.06-0.54 0.29-1.04t0.61-0.9q0.38-0.39 0.86-0.65t1.03-0.34q0.54-0.09 0.54-0.09t2.34 0.02q2.35 0.02 3.75 0.03 1.39 0.02 3.01 0.09t3.35 0.63q1.74 0.55 2.72 1.74 0.98 1.2 1.27 2.73 0.29 1.52 0.27 3.36-0.03 1.83-0.24 3.33-0.22 1.49-0.78 2.9-0.56 1.4-1.59 2.54t-1.97 2.28q-0.94 1.13-3.22 2.01-2.27 0.87-3.51 0.83-1.24-0.03-2.91-0.06-1.66-0.03-2.78-0.02t-2.41 0.04q-1.28 0.03-3.25 0.03t-3.81-0.01-3.63-0.03q-1.8-0.01-2.92 0-1.13 0-3.49 0.03-2.35 0.03-4.45-0.23-2.1-0.25-2.91-1.1-0.81-0.84-1.66-2.09-0.83-1.26-1.3-2.83-0.47-1.58-0.94-3.31t-0.8-2.96q-0.33-1.22-0.32-2.4 0.01-1.17 0.05-1.48 0.04-0.32 0.15-0.62t0.3-0.57q0.18-0.26 0.42-0.48 0.24-0.21 0.53-0.36 0.28-0.15 0.59-0.22 0.31-0.08 0.63-0.08t0.63 0.08q0.31 0.07 0.6 0.22 0.28 0.15 0.52 0.36 0.24 0.22 0.42 0.48 0.19 0.27 0.3 0.57t0.15 0.62q0.04 0.31 0.04 0.31z"/>
  </g>
  <g transform="matrix(.52917 0 0 .52917 183.25 229.45)">
   <path d="m2.48 0t-0.05 1.72-0.03 3.03q0.03 1.3 0.29 2.48 0.27 1.19 0.41 2.79 0.14 1.61 0.22 2.84 0.09 1.24 0.59 2.9 0.5 1.67 0.82 2.71t0.53 2.3q0.21 1.27 0.3 2.4 0.1 1.13 0.37 2.46 0.26 1.33 2.29 0.79t3.67-0.44q1.65 0.1 2.97-0.1t2.99-0.29q1.67-0.1 3.27-0.45 1.59-0.35 2.86-0.5 1.26-0.14 2.29-0.75t2.2-1.38q1.18-0.77 2.08-1.56t-0.35-1.28q-1.24-0.48-2.19-1.18-0.95-0.69-2.11-0.38-1.17 0.3-2.24 0.27-1.06-0.03-2.99-0.07-1.93-0.03-3.92-0.07-1.98-0.03-3.64-0.13-1.66-0.11-3.58 0.33-1.93 0.43-3.26 0.56-1.34 0.13-3.1 0.17-1.76 0.03-2.27-0.05-0.51-0.09-0.96-0.33-0.46-0.24-0.82-0.61t-0.58-0.84-0.28-0.99q-0.06-0.51 0.05-1.02 0.11-0.5 0.37-0.95 0.27-0.45 0.66-0.78 0.39-0.34 0.86-0.54 0.48-0.19 1-0.22t1.02 0.1q0.5 0.14 0.93 0.42 0.43 0.29 0.75 0.7 0.31 0.41 0.48 0.9t0.17 1.01q0.01 0.52-0.16 1.01-0.16 0.5-0.47 0.91t-0.74 0.71q-0.43 0.29-0.92 0.43-0.5 0.15-1.02 0.12-0.52-0.02-1-0.21-0.47-0.19-0.87-0.53-0.4-0.33-0.67-0.77t-0.38-0.95q-0.12-0.5-0.06-1.02 0.05-0.52 0.26-0.99 0.22-0.47 0.57-0.85 0.36-0.38 0.81-0.62 0.45-0.25 0.96-0.33 0.51-0.09 0.51-0.09t1.65 0 2.82 0.1 2.25-0.36 2.22-0.5 2.8-0.15q1.66-0.1 3.65-0.13t3.93-0.06 3.06-0.06q1.12-0.02 2.37 0.04 1.26 0.05 2.41 0.2 1.16 0.15 2.48 0.77t2.76 1.49 2.2 2.28q0.77 1.41 0.86 3.35 0.09 1.93-1.41 3.85t-2.72 2.84-3.45 2.06q-2.23 1.15-3.54 1.38t-3.53 0.6q-2.23 0.37-3.62 0.52-1.38 0.14-3.2 0.52-1.81 0.37-3.48 0.47-1.66 0.09-3.72 0.08t-3.52-0.3q-1.46-0.3-2.33-1.11-0.88-0.81-1.39-1.8-0.5-1-0.64-2.62-0.13-1.62-0.24-3.44t-0.53-3.77-0.75-3.32q-0.32-1.37-0.34-2.53t-0.12-2.48q-0.11-1.33-0.42-2.98-0.31-1.66-0.28-2.97 0.02-1.32-0.03-3.04t-0.02-2.01q0.04-0.3 0.14-0.58 0.11-0.28 0.28-0.53t0.4-0.44q0.22-0.2 0.49-0.34 0.26-0.14 0.55-0.21 0.3-0.08 0.59-0.08 0.3 0 0.59 0.08 0.29 0.07 0.55 0.21 0.27 0.14 0.49 0.34 0.23 0.19 0.4 0.44t0.28 0.53q0.1 0.28 0.14 0.58 0.03 0.29 0.03 0.29z"/>
  </g>
 </g>
</svg>
