<?xml version="1.0" encoding="UTF-8"?>
<!-- Created with Inkscape (http://www.inkscape.org/) -->
<svg width="48.064mm" height="32.547mm" version="1.1" viewBox="0 0 48.064 32.547" xmlns="http://www.w3.org/2000/svg">
 <g transform="translate(-92.076 -217.17)">
  <g transform="matrix(.52917 0 0 .52917 106.47 230.79)">
   <path d="m-1.48-2.22t0.85-0.59q0.84-0.6 1.67-2.52 0.84-1.92 1.31-3.02 0.47-1.09 0.51-2.79 0.03-1.71-0.34-2.73-0.37-1.01-2.24-1.64t-2.89-1.58-2.86-1.67q-1.85-0.72-3.45-0.97-1.61-0.24-3.83-0.35-2.21-0.1-3.15 0.67-0.93 0.77-1.41 1.86t-0.95 2.54q-0.46 1.45-1.39 3.37-0.94 1.93-1.58 3.49t-0.91 3.15q-0.26 1.59-0.33 2.89-0.08 1.29-0.1 2.66-0.03 1.38 0.22 2.61 0.26 1.24 0.63 2.63 0.38 1.4 0.83 2.48 0.45 1.09 1.13 2.3 0.67 1.22 2.37 2.75t3.03 2.72q1.32 1.2 2.5 1.5 1.17 0.29 3.13 0.44t3.05 0.17 1.8-0.88q0.71-0.89-0.32-2.41-1.04-1.52-2.16-1.9t-2.8-0.96q-1.69-0.58-3.56-1.54-1.88-0.97-2.95-1.21-1.06-0.25-2.82-0.38t-1.71-0.12-0.28-0.05q-0.32-0.07-0.62-0.21t-0.55-0.35q-0.26-0.21-0.46-0.47t-0.33-0.57q-0.13-0.3-0.18-0.62-0.05-0.33-0.03-0.66 0.03-0.33 0.13-0.64t0.28-0.59 0.41-0.51q0.24-0.23 0.53-0.4 0.28-0.16 0.6-0.25 0.31-0.1 0.64-0.11 0.33-0.02 2.11 0.38 1.77 0.39 2.99 0.72 1.21 0.32 2.58 0.51 1.38 0.18 2.82 0.28t2.91 0.15q1.48 0.05 2.68 0.04 1.2 0 2.63-0.08 1.41-0.07 2.49-0.14 1.07-0.07 2.59-0.15 1.51-0.08 3.02 0.14 1.51 0.21 2.53 0.96 1.01 0.74 1.37 2.09 0.37 1.34 0.23 3.53-0.15 2.2-0.16 3.65-0.01 1.44 0.06 3.02 0.07 1.57 0.11 3.4 0.04 1.82-0.3 3.19-0.34 1.38-0.41 2.85-0.06 1.47-0.06 3.15t-0.09 2.18q-0.08 0.5-0.32 0.94-0.24 0.45-0.61 0.8t-0.83 0.56-0.96 0.26-1-0.06q-0.49-0.11-0.93-0.37-0.43-0.26-0.75-0.65-0.33-0.39-0.52-0.86-0.18-0.47-0.21-0.97-0.02-0.51 0.11-1 0.14-0.48 0.43-0.9 0.28-0.42 0.69-0.73 0.4-0.3 0.88-0.46t0.99-0.16q0.5 0 0.98 0.17 0.48 0.16 0.88 0.47 0.41 0.31 0.69 0.73t0.41 0.9q0.14 0.49 0.11 1-0.03 0.5-0.22 0.97t-0.52 0.86q-0.33 0.38-0.76 0.64-0.44 0.26-0.93 0.37-0.5 0.1-1 0.05-0.5-0.06-0.96-0.27-0.46-0.22-0.83-0.57-0.36-0.35-0.6-0.79-0.23-0.45-0.31-0.95t-0.08-0.5 0.03-1.8 0.17-3.11q0.14-1.32 0.56-2.75 0.42-1.44 0.46-3.21 0.03-1.78 0.08-3.34 0.05-1.55 0.01-2.98-0.05-1.42 0.01-2.93t-1.45-1.59q-1.52-0.09-2.6-0.15-1.09-0.07-2.52-0.16-1.44-0.1-2.67-0.13t-2.78-0.04q-1.54-0.02-3.15-0.07t-3.35-0.21-4.28-0.8-2.87-0.7q-0.32-0.07-0.62-0.21t-0.55-0.35q-0.26-0.21-0.46-0.47t-0.33-0.57q-0.13-0.3-0.18-0.62-0.05-0.33-0.03-0.66 0.03-0.33 0.13-0.64t0.28-0.59 0.41-0.51q0.24-0.23 0.53-0.4 0.28-0.16 0.6-0.25 0.31-0.1 0.64-0.11 0.33-0.02 1.19 0.12t2.14 0.33 2.78 0.6q1.51 0.42 2.99 1 1.47 0.59 3.61 0.94 2.13 0.36 3.46 0.86 1.33 0.49 2.3 1.13 0.96 0.64 2.23 2.48t1.76 2.92q0.5 1.09 0.53 2.29 0.03 1.21-0.44 2.86t-1.08 2.6-1.61 1.54q-1.01 0.59-2.77 0.67-1.77 0.07-2.94 0.03-1.16-0.04-2.61-0.12t-2.73-0.32q-1.28-0.25-3.35-1.23t-3.3-2.33q-1.24-1.34-2.18-2.29-0.93-0.95-2.01-2.11-1.09-1.15-1.95-2.69-0.87-1.54-1.33-2.87-0.47-1.33-0.89-2.91-0.43-1.59-0.71-3.3-0.28-1.72-0.22-3.22 0.07-1.49 0.22-2.91t0.4-3.52q0.25-2.09 0.83-3.79 0.57-1.7 1.15-3.4 0.57-1.7 0.96-3.35 0.38-1.65 0.97-3.03t1.67-2.54 2.31-1.95 2.38-1.17q1.16-0.37 2.6-0.38 1.44 0 2.53 0.08 1.09 0.07 3.12 0.12t3.49 0.27q1.47 0.22 3.21 0.7 1.74 0.47 2.12 1.81t1.75 1.74 2.32 0.9q0.96 0.5 1.82 1.43 0.87 0.93 1.64 2.71 0.77 1.79 0.73 3.4t-0.24 3.05-0.65 2.77q-0.46 1.33-1.15 2.21t-1.35 2.55q-0.67 1.66-1.54 2.38-0.87 0.73-1.75 1.28-0.87 0.56-1.16 0.7-0.29 0.15-0.6 0.22-0.32 0.07-0.63 0.07-0.32-0.01-0.63-0.09t-0.59-0.24q-0.29-0.15-0.52-0.37-0.24-0.22-0.42-0.48-0.18-0.27-0.29-0.58-0.11-0.3-0.14-0.62-0.04-0.31 0.01-0.63 0.04-0.32 0.16-0.62 0.12-0.29 0.31-0.56 0.19-0.26 0.43-0.47t0.24-0.21z"/>
  </g>
  <g transform="matrix(.52917 0 0 .52917 114.41 223.38)">
   <path d="m2-0.28t0.22 2.01q0.22 2.02 0.3 4.11 0.08 2.08 0.1 4.12 0.02 2.03 0.29 3.93 0.27 1.89 0.39 3.97 0.13 2.07 0.23 3.81 0.1 1.73 0.44 3.18 0.35 1.45 0.54 3.08 0.2 1.63 0.33 2.89t0.22 2.38q0.1 1.13 0.84-0.18 0.75-1.3 1.28-2.49t0.81-2.7q0.29-1.52 0.49-3.33 0.19-1.8 0.21-3.17 0.01-1.36-0.02-2.51t-0.04-1.36q-0.02-0.2 0.02-0.49 0.04-0.28 0.15-0.55 0.1-0.26 0.27-0.49 0.17-0.24 0.38-0.42 0.22-0.19 0.48-0.31 0.25-0.13 0.53-0.19 0.28-0.07 0.57-0.06 0.28 0 0.56 0.08 0.28 0.07 0.53 0.21t0.46 0.33q0.21 0.2 0.37 0.43 0.15 0.24 0.25 0.51t0.12 0.56q0.03 0.28 0.07 2.51 0.03 2.23-0.1 4.29-0.12 2.07-0.15 3.8-0.02 1.73 0.42 3.15 0.45 1.41 2.08-0.5 1.63-1.92 2.33-3.32 0.7-1.41 0.95-2.53 0.25-1.13 0.71-2.43 0.46-1.31 0.6-1.48 0.13-0.18 0.27-0.45t0.35-0.49q0.2-0.23 0.45-0.4 0.25-0.18 0.54-0.28 0.28-0.11 0.58-0.15 0.31-0.04 0.61 0t0.59 0.15q0.28 0.11 0.53 0.28t0.45 0.4q0.21 0.23 0.35 0.5t0.21 0.56q0.07 0.3 0.07 0.6 0 0.31-0.07 0.61-0.07 0.29 0.16 1.78t0.24 2.88 0.01 2.84q-0.01 1.44 0.4 3.49 0.42 2.04-1.14 1.61-1.56-0.44-0.41-1.6 1.14-1.17 1.69-2.56 0.54-1.39 0.91-3.9t0.6-5.07-0.2-5.5q-0.42-2.94-0.59-5.49-0.16-2.56-0.57-4.06-0.41-1.51-0.67-2.85-0.27-1.34-0.38-1.59t-0.11-0.49 0.05-0.48q0.06-0.23 0.17-0.45t0.27-0.4q0.16-0.17 0.36-0.31t0.43-0.23q0.22-0.08 0.46-0.12 0.24-0.03 0.48 0 0.25 0.03 0.47 0.11 0.23 0.09 0.43 0.22 0.2 0.14 0.36 0.31 0.17 0.18 0.28 0.4 0.11 0.21 0.17 0.45 0.06 0.23 0.32 1.87t0.63 3.4q0.37 1.75 0.77 3.66 0.41 1.92 0.84 3.88 0.43 1.97 0.95 2.92 0.52 0.94 1.59 1.4 1.06 0.46 2.18-0.03 1.12-0.5 2.86-0.65t2.88-0.22 3.1 0.77q1.95 0.84 2.81 2.66 0.85 1.83 0.62 3.37t-0.75 2.6q-0.53 1.06-2.09 2.99-1.57 1.93-3.12 3.47-1.54 1.54-2.61 1.71-1.08 0.18-2.69 0.85-1.62 0.67-2.15 0.65t-1.02-0.21q-0.5-0.18-0.9-0.52-0.41-0.33-0.69-0.78t-0.41-0.96q-0.12-0.52-0.07-1.04 0.04-0.53 0.26-1.01 0.21-0.49 0.57-0.88 0.35-0.39 0.82-0.64 0.46-0.26 0.98-0.35 0.52-0.1 1.04-0.02 0.53 0.07 1 0.31t0.84 0.62 0.6 0.85q0.23 0.48 0.3 1 0.06 0.53-0.04 1.04-0.11 0.52-0.37 0.98t-0.66 0.81-0.89 0.55q-0.48 0.21-1.01 0.24-0.53 0.04-1.04-0.09t-0.95-0.42q-0.45-0.29-0.77-0.71-0.33-0.41-0.51-0.91t-0.19-1.03q0-0.52 0.16-1.03 0.16-0.5 0.47-0.93 0.31-0.42 0.74-0.73 0.43-0.3 0.94-0.45t0.51-0.15 1.91-0.91q1.92-0.91 3.02-1.77 1.11-0.85 1.74-2.49 0.64-1.64-0.55-1.67-1.2-0.04-2.35-0.1-1.16-0.06-2.91 0.25t-3.22-0.23q-1.48-0.55-2.27-2.11-0.78-1.57-1.25-2.87-0.46-1.29-0.99-3.25-0.54-1.96-1.05-3.87-0.51-1.92-0.95-3.75t-0.68-3.58q-0.23-1.75-0.23-1.99t0.05-0.48q0.06-0.23 0.17-0.45t0.27-0.4q0.16-0.17 0.36-0.31t0.43-0.23q0.22-0.08 0.46-0.12 0.24-0.03 0.48 0 0.25 0.03 0.47 0.11 0.23 0.09 0.43 0.22 0.2 0.14 0.36 0.31 0.17 0.18 0.28 0.4 0.11 0.21 0.17 0.45 0.06 0.23 0.09 0.49 0.03 0.25 0.09 1.44t0.42 2.95q0.35 1.75 0.63 4.16 0.28 2.4 0.91 5.72 0.62 3.32 0.62 6.02t-0.18 5.8-0.93 5.44q-0.75 2.33-2.86 4-2.1 1.68-4.45-0.68-2.34-2.37-2.65-3.85t-0.33-2.93q-0.02-1.44-0.03-2.79-0.02-1.35-0.03-2.45 0-1.1 0.01-2.46 0.02-1.36 0.16-1.63t0.35-0.49q0.2-0.23 0.45-0.4 0.25-0.18 0.54-0.28 0.28-0.11 0.58-0.15 0.31-0.04 0.61 0t0.59 0.15q0.28 0.1 0.53 0.28 0.25 0.17 0.45 0.4 0.21 0.23 0.35 0.5t0.21 0.56q0.07 0.3 0.07 0.6 0 0.31-0.07 0.61-0.07 0.29-0.71 1.47-0.63 1.18-1.06 2.68-0.42 1.5-1.31 3.58t-2.25 3.77q-1.35 1.68-3.6 2.42-2.24 0.73-3.78 0.18-1.53-0.56-2.29-2.23-0.77-1.68-1.03-3t-0.29-3.07q-0.02-1.75-0.15-3.81-0.13-2.07-0.1-4.35 0.02-2.27 0.06-2.56 0.04-0.28 0.14-0.55 0.11-0.26 0.28-0.49 0.17-0.24 0.38-0.42 0.22-0.19 0.48-0.31 0.25-0.13 0.53-0.19 0.28-0.07 0.57-0.06 0.28 0 0.56 0.08 0.28 0.07 0.53 0.21t0.46 0.33q0.21 0.2 0.37 0.43 0.15 0.24 0.25 0.51t0.12 0.56q0.03 0.28-0.01 0.49-0.03 0.21-0.11 1.39-0.08 1.19-0.17 2.61t-0.16 3.46q-0.07 2.05-0.39 4.17-0.32 2.13-1.23 4.1t-2.39 3.29q-1.47 1.32-3.46 1.65t-3.31-1.74q-1.33-2.07-1.28-3.14 0.04-1.08 0.06-2.27 0.02-1.2-0.05-2.64-0.07-1.45-0.35-3.18-0.27-1.74-0.29-3.43-0.01-1.69-0.15-3.61-0.13-1.93-0.48-4.03-0.35-2.11-0.43-4.08-0.09-1.97-0.25-3.9-0.16-1.92-0.52-3.93-0.35-2-0.36-2.24 0-0.24 0.05-0.48 0.05-0.23 0.16-0.45t0.27-0.41q0.16-0.18 0.36-0.33 0.19-0.14 0.42-0.23t0.47-0.13q0.24-0.03 0.48-0.01 0.24 0.03 0.47 0.11t0.43 0.21q0.21 0.14 0.37 0.32 0.17 0.18 0.29 0.39 0.12 0.22 0.18 0.45 0.06 0.24 0.06 0.24z"/>
  </g>
 </g>
</svg>
