<?xml version="1.0" encoding="UTF-8"?>
<!-- Created with Inkscape (http://www.inkscape.org/) -->
<svg width="75.761mm" height="28.012mm" version="1.1" viewBox="0 0 75.761 28.012" xmlns="http://www.w3.org/2000/svg">
 <g transform="translate(-18.856 -138.97)">
  <g transform="matrix(.52917 0 0 .52917 44.723 142.76)">
   <path d="m2.16-0.27t0.17 2.31q0.18 2.31 0.49 4.39 0.32 2.08 0.72 4.12t0.64 3.86q0.25 1.82 0.39 3.47 0.13 1.65 0.48 3.05 0.35 1.39 0.57 2.7t0.84 3.41q0.61 2.09 0.74 3.2 0.12 1.1 1.41 1.45t3.18 0.34q1.88-0.01 3.1 0.36 1.21 0.37 2.55 0.42 1.33 0.05 2.54 0.04t3.22 0.01 3.1 0.04q1.09 0.01 3.14 0.01 2.05 0.01 4.64-0.03 2.59-0.03 3.09 0.06 0.5 0.08 0.95 0.32 0.45 0.23 0.8 0.6t0.56 0.83q0.22 0.46 0.27 0.97 0.06 0.51-0.05 1-0.11 0.5-0.37 0.93-0.27 0.44-0.65 0.77-0.39 0.33-0.86 0.52-0.47 0.18-0.98 0.21t-1-0.11q-0.49-0.13-0.91-0.42-0.42-0.28-0.73-0.69-0.31-0.4-0.47-0.89-0.16-0.48-0.16-0.99 0-0.5 0.16-0.99 0.16-0.48 0.47-0.88 0.31-0.41 0.73-0.69 0.42-0.29 0.91-0.42 0.49-0.14 1-0.11t0.98 0.22q0.47 0.18 0.86 0.51t0.65 0.77q0.26 0.43 0.37 0.93t0.05 1q-0.05 0.51-0.27 0.97-0.21 0.46-0.56 0.83t-0.8 0.6q-0.45 0.24-0.95 0.32-0.5 0.09-0.5 0.09t-2.59-0.03q-2.59-0.04-4.64-0.03-2.06 0-3.15 0.01t-3.15 0.02q-2.05 0.01-3.38-0.06t-2.4-0.14q-1.08-0.07-2.3-0.3-1.23-0.24-2.33-0.45-1.09-0.21-2.86-0.27-1.77-0.07-3.19-0.39-1.42-0.31-2.24-1.28t-1.39-2.78q-0.57-1.8-0.61-3.61-0.05-1.8-0.38-3.11-0.32-1.31-0.37-2.46t-0.35-2.84-0.33-3.24q-0.03-1.56-0.18-3.21-0.14-1.65-0.67-3.72-0.51-2.06-1.01-4.24-0.51-2.17-0.91-4.46-0.4-2.28-0.4-2.55 0-0.25 0.06-0.51 0.06-0.25 0.18-0.48 0.13-0.24 0.3-0.44 0.17-0.19 0.39-0.34 0.21-0.15 0.46-0.25 0.25-0.09 0.51-0.12 0.26-0.04 0.51-0.01 0.26 0.03 0.51 0.13 0.24 0.09 0.46 0.24t0.39 0.34q0.18 0.2 0.3 0.43t0.19 0.49q0.06 0.25 0.06 0.25z"/>
  </g>
  <g transform="matrix(.52917 0 0 .52917 52.66 141.7)">
   <path d="m2.54 0t0.03 1.15 0.03 2.5-0.02 2.78q-0.01 1.42 0.41 3.87 0.42 2.44 0.78 3.94 0.37 1.51 1.22 3.31 0.86 1.79 1.33 2.84t1.78 1.23 2.58 0.56q1.26 0.38 2.67 0.46 1.4 0.09 2.62 0.09 1.22 0.01 2.53-0.01 1.32-0.01 2.5-0.03t0.2-1.58q-0.99-1.56-1.08-3.18-0.09-1.61-0.12-2.84-0.04-1.24-0.05-2.34-0.02-1.11-0.03-3.18t-0.04-3.38q-0.04-1.32 0.04-2.01 0.07-0.7-0.24-1.11t-0.48-0.9q-0.16-0.49-0.16-1t0.16-1q0.16-0.48 0.48-0.89 0.31-0.41 0.73-0.7 0.43-0.29 0.92-0.43 0.5-0.13 1.01-0.11 0.51 0.03 0.99 0.22t0.87 0.52q0.4 0.33 0.66 0.77 0.27 0.44 0.38 0.94t0.05 1.01q-0.05 0.51-0.27 0.98-0.21 0.47-0.56 0.84-0.36 0.37-0.81 0.62-0.46 0.24-0.96 0.32-0.51 0.08-1.02 0t-0.96-0.32-0.81-0.61q-0.35-0.38-0.57-0.84-0.22-0.47-0.27-0.98-0.06-0.51 0.05-1.01t0.38-0.94q0.26-0.44 0.65-0.77 0.39-0.34 0.87-0.53t0.99-0.22q0.52-0.03 1.01 0.11 0.5 0.14 0.92 0.43 0.43 0.29 0.43 0.28 0 0 0.88 3.59 0.88 3.6 0.87 5.32t0.03 3.77q0.04 2.04 0.11 3.14 0.06 1.1 0.21 2.27 0.14 1.16 0.51 2.79 0.37 1.62 0.28 3.62-0.09 1.99-0.47 3-0.39 1-1.46 1.74t-2.11 0.98-2.22 0.22q-1.19-0.03-2.55-0.05t-2.7-0.08q-1.34-0.07-2.43-0.13t-3.15-0.5q-2.07-0.44-3.51-0.71-1.44-0.28-3-1.65-1.55-1.37-2.22-2.92-0.66-1.54-1.13-2.58-0.47-1.03-0.91-2.13t-0.8-3.22-0.45-3.3q-0.1-1.18-0.4-2.66-0.31-1.48-0.32-2.93-0.02-1.44-0.02-2.79t0.03-2.5 0.06-1.45q0.04-0.3 0.15-0.59t0.28-0.54q0.18-0.26 0.41-0.46t0.5-0.35q0.27-0.14 0.57-0.21 0.3-0.08 0.6-0.08t0.6 0.08q0.3 0.07 0.57 0.21 0.27 0.15 0.5 0.35t0.41 0.46q0.17 0.25 0.28 0.54t0.15 0.59q0.03 0.3 0.03 0.3z"/>
  </g>
  <g transform="matrix(.52917 0 0 .52917 79.119 148.05)">
   <path d="m0-2.57t1.43 0.01q1.44 0.01 2.63-0.01 1.18-0.03 2.84 0.02 1.65 0.05 3.35-0.03 1.7-0.09 2.07-1.47 0.36-1.39 0.54-2.87 0.18-1.49-0.95-2.07t-2.46-1.12q-1.32-0.55-2.5-0.61-1.17-0.06-2.83-0.17-1.66-0.12-3.94-0.14t-3.68-0.06q-1.41-0.04-2.96 0.01t-2.73-0.05q-1.17-0.11-1.23 1.53-0.05 1.64 0.36 3.17 0.41 1.54 0.41 3.02 0.01 1.47-0.01 3.25-0.01 1.77-0.07 4.02t-0.08 3.37q-0.01 1.11-0.03 3.18-0.02 2.08 0.01 3.39 0.03 1.32 0.07 3.17t0.06 3.03 1.08 2.4q1.06 1.21 2.44 1.7 1.38 0.48 2.72 0.42 1.35-0.06 3.76 0.06 2.43 0.13 3.94 0.21 1.52 0.08 3.02 0.15 1.51 0.07 3.12 0.03 1.61-0.03 2.72-0.07t2.41-0.07q1.31-0.03 2.49-0.06t2.03-0.7q0.86-0.68 1.72-2.45 0.86-1.76 0.83-2.82-0.03-1.07 0.02-2.88 0.05-1.82 0.09-3t-1.87-1.43q-1.91-0.26-3.38-0.62-1.48-0.35-2.5-1.26-1.02-0.9-2.14-0.58-1.11 0.32-2.5 0.32t-2.75 0q-1.36 0.01-2.55 0.02-1.18 0.02-3.04-0.71-1.85-0.74-2.87-2.9-1.03-2.16-1.13-2.65-0.09-0.48-0.02-0.98 0.07-0.49 0.29-0.93 0.22-0.45 0.57-0.8t0.8-0.56q0.43-0.22 0.92-0.29 0.5-0.06 0.98 0.03 0.49 0.09 0.92 0.34 0.44 0.23 0.77 0.6t0.52 0.83q0.2 0.46 0.24 0.95 0.04 0.5-0.08 0.98t-0.39 0.9-0.65 0.73q-0.39 0.31-0.86 0.48-0.46 0.17-0.96 0.18-0.5 0.02-0.97-0.13t-0.87-0.44-0.69-0.69-0.44-0.88q-0.14-0.47-0.13-0.97t0.19-0.96q0.17-0.47 0.48-0.86 0.31-0.38 0.73-0.64 0.42-0.27 0.89-0.39 0.48-0.12 0.98-0.07 0.49 0.04 0.95 0.23 0.46 0.2 0.83 0.52 0.36 0.33 0.61 0.77 0.24 0.43 0.24 0.43t0.01 0.56q0 0.55 1.19 0.57 1.19 0.01 2.56 0.02 1.38 0.01 2.86 0.03 1.49 0.02 2.81 0.12 1.33 0.1 2.62 0.39 1.3 0.29 2.2 0.95t2.23 0.62q1.33-0.05 3.26 0.07t2.95 0.58 1.73 1.6q0.72 1.14 0.87 2.95t0.18 3.79q0.02 1.97-0.01 3.89-0.04 1.92-0.21 3.12-0.18 1.21-1 2.64-0.81 1.44-1.62 2.61-0.81 1.18-2.53 2.56-1.73 1.37-3.23 2.03t-2.68 0.63-2.49-0.06q-1.3-0.03-2.41-0.07t-2.72-0.07q-1.61-0.04-3.12 0.03t-3.02 0.15q-1.52 0.08-3.06 0.18-1.54 0.09-3.31 0.1t-3.14-0.14-2.98-0.75q-1.6-0.6-2.87-1.89-1.26-1.29-2.64-2.44-1.37-1.16-1.96-3.12t-0.57-3.14 0.06-3.03 0.07-3.17q0.03-1.31 0.01-3.39-0.02-2.07-0.03-3.18-0.02-1.12-0.08-3.37t-0.07-4.02q-0.01-1.79-0.01-3.28 0.01-1.49 0.04-2.95 0.02-1.47 0.21-2.83 0.18-1.36 0.72-2.8t1.01-2.41q0.47-0.98 1.56-1.65 1.1-0.67 2.94-0.78 1.85-0.1 3.4-0.05t2.96 0.02q1.41-0.04 3.7-0.05 2.3-0.01 4-0.11 1.7-0.09 3.01-0.1 1.32-0.01 2.4 0.06 1.07 0.07 2.42 0.44t2.25 1.75q0.89 1.37 2.25 2.48 1.37 1.12 1.85 2.2 0.49 1.08 0.52 2.26 0.02 1.17-0.32 2.81-0.33 1.64-0.73 2.77-0.4 1.12-1.8 2.62-1.41 1.51-2.76 1.97-1.34 0.46-3.04 0.37-1.7-0.08-3.35-0.03-1.66 0.05-2.84 0.02-1.19-0.02-2.63-0.01-1.43 0.01-1.73-0.02-0.31-0.04-0.6-0.15t-0.55-0.29q-0.25-0.18-0.46-0.41t-0.35-0.51q-0.15-0.27-0.22-0.57t-0.07-0.61 0.07-0.61 0.22-0.57q0.14-0.28 0.35-0.51 0.21-0.24 0.46-0.41 0.26-0.18 0.55-0.29t0.6-0.15q0.3-0.03 0.3-0.03z"/>
  </g>
  <g transform="matrix(.52917 0 0 .52917 36.785 148.58)">
   <path d="m-1.86 1.86t-0.86-0.85q-0.86-0.84-1.96-1.46-1.11-0.63-2.47-1.05-1.35-0.41-2.97-0.42-1.61 0-2.83-0.03-1.22-0.04-2.61-0.08-1.38-0.05-2.68 0.38-1.3 0.42-2.4 0.99-1.09 0.56-2.18 1.41t-1.44 2.18q-0.36 1.34-0.8 2.73-0.45 1.39-1.38 2.84-0.93 1.46-1.19 3.3t-0.32 3.79q-0.06 1.94 0.64 3.58 0.7 1.63 2.01 2.71t2.74 2.04q1.42 0.97 3.3 2.21 1.87 1.24 2.2 1.61 0.34 0.36 0.54 0.81t0.24 0.95q0.05 0.49-0.07 0.97-0.11 0.48-0.37 0.9-0.27 0.42-0.65 0.73t-0.84 0.49q-0.46 0.17-0.96 0.19-0.49 0.02-0.96-0.12-0.48-0.14-0.88-0.42-0.41-0.29-0.7-0.69-0.29-0.39-0.44-0.86-0.15-0.48-0.14-0.97t0.17-0.96q0.17-0.46 0.47-0.85 0.31-0.39 0.72-0.66 0.42-0.27 0.89-0.4 0.48-0.12 0.97-0.08 0.5 0.03 0.95 0.22 0.46 0.19 0.83 0.52 0.37 0.32 0.62 0.75t0.34 0.91q0.1 0.49 0.04 0.98t-0.28 0.93q-0.21 0.45-0.56 0.8-0.34 0.35-0.78 0.58-0.44 0.22-0.93 0.29t-0.98-0.01q-0.48-0.09-0.92-0.33-0.43-0.24-0.43-0.24t-1.02-0.96q-1.03-0.97-2.34-1.76-1.31-0.8-2.98-2.12-1.66-1.32-2.79-2.4-1.13-1.07-2.03-2.63-0.89-1.57-1.24-3.22-0.34-1.65-0.31-2.73t0.1-2.23 0.22-2.45q0.16-1.31 1.16-3.87t1.29-3.67q0.28-1.11 1.12-3.37 0.84-2.25 2.1-3.5 1.25-1.24 2.27-2.33 1.02-1.08 2.72-1.43 1.71-0.34 2.77-0.83 1.07-0.49 2.14-0.53t2.47-0.07q1.41-0.04 3.69-0.01 2.28 0.04 3.37 0.17 1.08 0.14 2.22 0.71 1.13 0.56 2.84 1.39 1.72 0.83 2.63 1.44 0.9 0.61 1.76 1.49 0.87 0.88 1.07 1.13 0.19 0.25 0.32 0.54t0.19 0.6q0.06 0.32 0.04 0.62-0.02 0.32-0.12 0.62-0.09 0.31-0.25 0.58-0.17 0.27-0.39 0.5-0.23 0.22-0.5 0.39-0.27 0.16-0.58 0.25-0.3 0.1-0.62 0.12-0.3 0.02-0.62-0.04-0.31-0.06-0.6-0.19t-0.54-0.32q-0.25-0.2-0.25-0.2z"/>
  </g>
  <g transform="matrix(.52917 0 0 .52917 26.731 157.57)">
   <path d="m0-2.59t1.72 0.07q1.72 0.06 3.03 0.04t2.44-0.05 2.92-0.1q1.8-0.08 2.94-0.15t2.67-0.15q1.53-0.09 3.32-0.14 1.79-0.06 4.12 0.98 2.33 1.05 3.05 2.13 0.72 1.09 1.13 2.47 0.41 1.37 0.97 3.45 0.55 2.07 0.64 3.21 0.08 1.14 0.14 3.3 0.07 2.16-0.01 2.66-0.08 0.51-0.31 0.96-0.24 0.46-0.61 0.82-0.36 0.35-0.83 0.57-0.46 0.22-0.97 0.28t-1.01-0.04q-0.5-0.11-0.94-0.37-0.45-0.26-0.78-0.65-0.34-0.38-0.53-0.86-0.2-0.47-0.23-0.98t0.1-1.01 0.42-0.92q0.28-0.43 0.68-0.74 0.41-0.32 0.89-0.49 0.49-0.17 1-0.17 0.51-0.01 1 0.15t0.9 0.47 0.7 0.73 0.44 0.91q0.14 0.49 0.12 1.01-0.03 0.51-0.21 0.99-0.19 0.47-0.52 0.87-0.32 0.39-0.76 0.66t-0.94 0.38q-0.5 0.12-1.01 0.07t-0.97-0.26q-0.47-0.21-0.85-0.56-0.37-0.35-0.62-0.8-0.24-0.45-0.33-0.96-0.09-0.5-0.09-0.5t-0.03-1.97q-0.03-1.98-0.17-3.49-0.13-1.52-0.59-2.69-0.45-1.16-0.83-2.29-0.37-1.12-2.16-1.18-1.79-0.05-3.32-0.14-1.53-0.08-2.67-0.15t-2.94-0.15q-1.79-0.07-2.92-0.1t-2.44-0.05-3.03 0.04q-1.72 0.07-2.03 0.03t-0.6-0.15-0.55-0.29q-0.25-0.17-0.46-0.41-0.21-0.23-0.35-0.51-0.15-0.28-0.22-0.58-0.08-0.3-0.08-0.61t0.08-0.61q0.07-0.3 0.22-0.58 0.14-0.28 0.35-0.51 0.21-0.24 0.46-0.41 0.26-0.18 0.55-0.29t0.61-0.15q0.3-0.04 0.3-0.04z"/>
  </g>
 </g>
</svg>
