<?xml version="1.0" encoding="UTF-8"?>
<!-- Created with Inkscape (http://www.inkscape.org/) -->
<svg width="83.149mm" height="33.518mm" version="1.1" viewBox="0 0 83.149 33.518" xmlns="http://www.w3.org/2000/svg">
 <g transform="translate(-66.753 -143.78)">
  <g transform="matrix(.52917 0 0 .52917 91.549 157.43)">
   <path d="m-1.41-0.7t0.84-1.67 0.61-4.01q-0.21-2.34-1.88-4.63t-3.43-3.84q-1.77-1.56-4.05-2.15-2.28-0.6-5.14-0.61-2.87-0.02-5.89 1.89t-6.61 5.54q-3.59 3.62-7.42 8.59-3.82 4.95-5.97 9.56-2.15 4.6-3.06 7.94t-1.16 4.55q-0.24 1.22 1.01 1.6t3.57 0.65q2.33 0.28 5.39 0.44t5.73-0.04q2.67-0.21 4.72-0.31t2.7-1.64q0.64-1.54 0.75-1.82t0.3-0.51 0.44-0.39q0.26-0.16 0.55-0.22 0.29-0.07 0.59-0.04 0.3 0.02 0.57 0.15 0.27 0.12 0.49 0.32 0.22 0.21 0.37 0.47 0.14 0.26 0.19 0.56 0.06 0.29 0.01 0.59-0.04 0.29-0.18 0.56t-0.35 0.48q-0.22 0.2-0.49 0.33t-0.56 0.17q-0.3 0.04-0.6-0.03-0.29-0.06-0.55-0.21t-0.45-0.37q-0.2-0.23-0.31-0.51-0.12-0.27-0.14-0.57t0.06-0.59q0.07-0.29 0.24-0.54 0.16-0.25 0.4-0.44 0.24-0.18 0.52-0.28t0.58-0.1q0.3-0.01 0.59 0.09 0.28 0.09 0.52 0.27 0.24 0.17 0.41 0.42 0.18 0.25 0.26 0.53 0.08 0.29 0.07 0.59t-0.01 0.3-1.21 2.31q-1.21 2.32-2.36 2.61-1.16 0.29-3.19 0.38-2.02 0.1-4.87 0.35-2.86 0.26-6.04 0.15t-6.06-0.46q-2.87-0.36-4.4-1.47-1.53-1.12-1.55-3.4t0.97-5.84q0.98-3.56 3.27-8.41 2.3-4.85 6.23-9.94 3.93-5.1 7.77-8.93t7.47-5.93 6.95-2.09q3.33 0.02 6.13 0.86 2.8 0.83 4.87 2.64 2.08 1.81 4.03 4.73 1.95 2.91 2.15 6.07 0.19 3.15-0.69 4.93-0.88 1.77-0.99 1.93-0.1 0.16-0.24 0.29t-0.31 0.22-0.35 0.14-0.37 0.05q-0.18 0.01-0.37-0.04-0.19-0.04-0.36-0.12-0.17-0.09-0.31-0.21-0.15-0.12-0.26-0.28-0.11-0.15-0.18-0.33t-0.1-0.37q-0.02-0.18 0-0.36 0.01-0.19 0.08-0.37 0.06-0.18 0.06-0.18z"/>
  </g>
  <g transform="matrix(.52917 0 0 .52917 73.029 163.25)">
   <path d="m-0.19-1.99t2.87-0.2q2.88-0.19 5.73-0.8 2.84-0.61 8.7-2.01 5.85-1.39 10.15-1.99 4.29-0.59 6.38-0.83 2.1-0.25 2.68-0.46 0.59-0.21 0.79-0.21t0.39 0.05q0.2 0.05 0.38 0.14t0.33 0.22q0.15 0.14 0.26 0.3 0.12 0.17 0.19 0.36 0.07 0.18 0.1 0.38 0.02 0.2 0 0.4t-0.09 0.39-0.19 0.35q-0.11 0.17-0.26 0.3-0.15 0.14-0.33 0.23-0.18 0.1-0.37 0.15-0.2 0.04-1.42 1.61-1.21 1.57-2.18 3.46-0.96 1.88-1.97 4.13-1.02 2.25-2.07 4.14t-1.62 4.14q-0.57 2.26-0.7 2.52-0.13 0.25-0.33 0.46-0.2 0.2-0.46 0.33-0.26 0.12-0.54 0.16-0.29 0.04-0.57-0.02-0.28-0.05-0.53-0.19-0.25-0.15-0.44-0.36t-0.31-0.48q-0.11-0.26-0.13-0.55-0.02-0.28 0.05-0.56t0.22-0.52q0.16-0.24 0.38-0.42 0.23-0.18 0.5-0.28t0.55-0.11q0.29 0 0.56 0.08 0.28 0.09 0.51 0.26 0.23 0.16 0.4 0.4 0.17 0.23 0.25 0.51 0.08 0.27 0.08 0.56-0.01 0.28-0.11 0.55t-0.28 0.5q-0.18 0.22-0.43 0.37-0.24 0.16-0.52 0.23-0.28 0.06-0.56 0.04-0.29-0.02-0.55-0.14-0.27-0.11-0.48-0.31-0.21-0.19-0.35-0.44t-0.2-0.53q-0.05-0.28-0.01-0.57 0.04-0.28 0.04-0.28t0.89-2.46q0.9-2.47 1.83-4.26t1.87-4.14q0.94-2.34 1.87-4.5 0.94-2.16 2.04-3.74 1.11-1.59 2.61-2.22 1.5-0.64 1.7-0.64t0.39 0.05q0.2 0.05 0.38 0.14t0.33 0.22q0.15 0.14 0.26 0.3 0.12 0.17 0.19 0.36 0.07 0.18 0.1 0.38 0.02 0.2 0 0.4t-0.09 0.39-0.19 0.35q-0.11 0.17-0.26 0.3-0.15 0.14-0.33 0.23-0.18 0.1-0.37 0.15-0.2 0.04-0.8 0.06-0.61 0.01-2.67 0.29t-6.2 0.91q-4.13 0.64-9.98 2.14-5.84 1.5-8.89 2.27-3.05 0.78-5.92 1.16t-3.1 0.38q-0.24-0.01-0.47-0.07-0.24-0.06-0.45-0.18t-0.39-0.28q-0.18-0.17-0.31-0.37t-0.21-0.43-0.11-0.47q-0.02-0.23 0.01-0.47 0.04-0.24 0.13-0.46 0.09-0.23 0.23-0.42 0.14-0.2 0.33-0.35 0.18-0.16 0.4-0.27 0.21-0.11 0.45-0.16t0.24-0.05z"/>
  </g>
  <g transform="matrix(.52917 0 0 .52917 96.312 144.73)">
   <path d="m1.8 0t-0.06 3.73q-0.07 3.74-0.7 8.02-0.63 4.29-0.91 9.15-0.26 4.87-0.39 10.11t-0.19 9.77q-0.07 4.52 0.19 8.41 0.25 3.88 0.89 5.98 0.65 2.1 1.79 2.68 1.13 0.58 2.48-0.93t3.48-4.42q2.12-2.91 3.57-6.34 1.45-3.42 2.07-6.53 0.62-3.1 0.9-5.57t0.28-3.27 0.04-1q0.04-0.19 0.13-0.36 0.09-0.18 0.22-0.33t0.29-0.26q0.16-0.12 0.35-0.19 0.18-0.07 0.38-0.1 0.19-0.03 0.39-0.01 0.19 0.02 0.38 0.09t0.35 0.18 0.3 0.26q0.13 0.14 0.22 0.31 0.1 0.18 0.15 0.37t0.05 0.39 0.03 3.56q0.04 3.37 0.3 6.15t0.64 5.39q0.39 2.62 0.63 4.34 0.25 1.73 1.19 2.92 0.95 1.2 1 1.43t0.05 0.47q-0.01 0.23-0.07 0.46t-0.17 0.43q-0.12 0.21-0.28 0.39-0.16 0.17-0.35 0.3-0.2 0.13-0.42 0.21t-0.46 0.1q-0.23 0.03-0.47-0.01-0.23-0.03-0.45-0.12-0.22-0.08-0.41-0.22t-0.35-0.32q-0.15-0.18-0.25-0.39-0.11-0.21 0.47-1.78 0.59-1.58 1.3-3.13 0.72-1.56 1.67-4.18 0.94-2.63 1.64-5.98 0.71-3.35 1.03-5.9 0.31-2.55 0.47-4.78 0.15-2.23 0.66-3.66t2.33-1.37 2.4 1.46 1.3 4.68q0.71 3.28 1.56 7.25 0.84 3.96 1.74 7.03 0.89 3.06 1.79 4.85 0.9 1.78 1.17 0.54 0.26-1.23 0.85-5 0.58-3.77 0.85-8.79 0.27-5.01 0.4-10.61 0.13-5.59-0.38-10.47-0.51-4.89-1.28-8.36-0.77-3.48-1.22-4.67-0.46-1.2-0.48-1.39-0.02-0.2 0.01-0.4 0.03-0.19 0.1-0.37 0.08-0.19 0.19-0.34 0.12-0.16 0.27-0.29 0.15-0.12 0.32-0.21 0.18-0.09 0.37-0.13 0.19-0.05 0.39-0.04 0.2 0 0.39 0.05t0.36 0.15q0.17 0.09 0.32 0.23 0.14 0.13 0.25 0.3 0.11 0.15 0.18 0.34 0.06 0.18 0.37 2.29t1.07 6.75q0.75 4.65 1.36 10.1 0.61 5.44 0.86 10.08 0.26 4.64 0.65 7.1 0.38 2.47 0.67 3.24t0.3 0.96q0 0.19-0.03 0.37-0.04 0.19-0.13 0.36-0.08 0.17-0.2 0.32-0.12 0.14-0.27 0.26-0.15 0.11-0.33 0.18-0.17 0.08-0.36 0.1-0.19 0.03-0.38 0.02-0.19-0.02-0.37-0.08t-0.34-0.16q-0.16-0.11-0.29-0.24-0.13-0.14-0.22-0.31-0.1-0.16-0.15-0.34-0.05-0.19 0.69-3.54 0.75-3.35 2.53-6.6 1.78-3.26 4.09-5.86 2.31-2.61 7.26-4.11 4.94-1.51 12.28-1.51 7.34-0.01 13.71 1.46 6.36 1.47 10.37 4.2t6.08 5.52q2.06 2.78 2.02 5.53-0.05 2.74-2.55 4.88-2.51 2.14-7.14 3.59-4.64 1.45-9.77 2.33-5.13 0.87-9.88 1.53-4.76 0.65-8.54 0.94-3.77 0.28-5.66 0.45-1.88 0.17-4.92-0.13-3.05-0.31-3.3-0.39-0.26-0.08-0.48-0.24-0.21-0.15-0.37-0.37-0.15-0.22-0.23-0.48-0.08-0.25-0.07-0.52t0.11-0.52q0.09-0.25 0.26-0.46 0.17-0.2 0.4-0.35 0.22-0.14 0.48-0.2t0.53-0.04 0.51 0.13q0.25 0.11 0.44 0.29 0.2 0.18 0.33 0.41 0.13 0.24 0.18 0.5t0.01 0.53q-0.04 0.26-0.16 0.5t-0.31 0.43-0.43 0.3q-0.24 0.12-0.51 0.15-0.26 0.04-0.52-0.01-0.27-0.06-0.5-0.19t-0.41-0.33q-0.17-0.2-0.28-0.45-0.1-0.25-0.12-0.51-0.02-0.27 0.04-0.53 0.07-0.26 0.22-0.48 0.14-0.23 0.35-0.39 0.21-0.17 0.46-0.26t0.52-0.1q0.27 0 0.27 0t2.73 0.52q2.72 0.52 4.59 0.46 1.87-0.07 5.57-0.34 3.69-0.27 8.4-0.92 4.72-0.65 9.69-1.5 4.96-0.84 9.2-2.08t6.38-2.73q2.15-1.48 2.21-3.21 0.07-1.72-1.66-4.04-1.72-2.32-5.29-4.84-3.56-2.52-9.6-3.93t-13.01-1.44q-6.96-0.02-11.33 1.14-4.36 1.17-6.37 3.48-2 2.32-3.61 5.24-1.61 2.91-2.22 5.66-0.61 2.76-0.6 2.95 0 0.19-0.03 0.37-0.04 0.19-0.13 0.36-0.08 0.17-0.2 0.32-0.12 0.14-0.27 0.25-0.15 0.12-0.33 0.19-0.17 0.08-0.36 0.1-0.19 0.03-0.38 0.02-0.19-0.02-0.37-0.08t-0.34-0.16q-0.16-0.11-0.29-0.24-0.13-0.14-0.22-0.31-0.1-0.16-0.15-0.34-0.05-0.19-0.1-0.99-0.05-0.81-0.46-3.4-0.41-2.6-0.67-7.16t-0.87-9.94-1.37-9.96q-0.77-4.59-1.32-6.62t-0.57-2.22q-0.02-0.2 0.01-0.4 0.03-0.19 0.1-0.37 0.08-0.19 0.19-0.34 0.12-0.16 0.27-0.29 0.15-0.12 0.32-0.21 0.18-0.09 0.37-0.13 0.19-0.05 0.39-0.04 0.2 0 0.39 0.05t0.36 0.15q0.17 0.09 0.32 0.23 0.14 0.13 0.25 0.3 0.11 0.15 0.18 0.34 0.06 0.18 0.29 1.43t1.06 4.88q0.83 3.62 1.39 8.69 0.56 5.06 0.49 10.7-0.06 5.64-0.26 10.81-0.19 5.18-0.7 9.15-0.51 3.98-1.34 6.62-0.84 2.65-2.29 2.98t-2.45-1.16q-1.01-1.48-2.08-3.49-1.06-2.01-2.08-5.16-1.02-3.16-1.99-7.07-0.96-3.92-1.8-6.99t-1.2-4.44q-0.35-1.37 0.43-0.57 0.79 0.8 0.7 3.1t-0.34 5q-0.25 2.69-0.9 6.28-0.64 3.58-1.5 6.45-0.87 2.86-2.07 4.55-1.2 1.68-1.15 1.91t0.05 0.47q-0.01 0.23-0.07 0.46t-0.17 0.43q-0.12 0.21-0.28 0.39-0.16 0.17-0.35 0.3-0.2 0.13-0.42 0.21t-0.46 0.1q-0.23 0.03-0.47-0.01-0.23-0.03-0.45-0.12-0.22-0.08-0.41-0.22t-0.35-0.32q-0.15-0.18-0.25-0.39-0.11-0.21-0.45-0.63t-0.66-1.69q-0.33-1.26-0.43-2.93-0.11-1.68-0.55-4.36t-0.77-5.6q-0.34-2.92-0.45-6.48-0.1-3.55-0.06-3.75 0.04-0.19 0.13-0.36 0.09-0.18 0.22-0.33t0.29-0.26q0.16-0.12 0.35-0.19 0.18-0.07 0.38-0.1 0.19-0.03 0.39-0.01 0.19 0.02 0.38 0.09t0.35 0.18 0.3 0.26q0.13 0.14 0.22 0.31 0.1 0.18 0.15 0.37t0.05 0.39-0.23 0.97q-0.23 0.78-0.49 3.37-0.26 2.6-0.92 6-0.66 3.39-2.21 7.15-1.56 3.76-3.79 6.93-2.22 3.18-4.36 5.16-2.14 1.97-3.99 1.82-1.86-0.15-2.81-1.81-0.97-1.66-1.7-4.06-0.72-2.4-1.01-6.4-0.28-3.99-0.26-8.54 0.03-4.54 0.1-9.82 0.08-5.29 0.3-10.3 0.21-5 0.73-9.07t0.45-7.81q-0.06-3.73-0.04-3.94 0.03-0.22 0.11-0.42 0.07-0.21 0.2-0.39 0.12-0.17 0.28-0.32 0.17-0.14 0.36-0.25 0.19-0.1 0.41-0.15 0.21-0.05 0.42-0.05t0.42 0.05q0.22 0.05 0.41 0.16 0.19 0.1 0.36 0.24 0.16 0.15 0.28 0.33 0.13 0.17 0.2 0.38 0.08 0.2 0.11 0.42 0.02 0.21 0.02 0.21z"/>
  </g>
 </g>
</svg>
