<?xml version="1.0" encoding="UTF-8"?>
<!-- Created with Inkscape (http://www.inkscape.org/) -->
<svg width="63.67mm" height="47.345mm" version="1.1" viewBox="0 0 63.67 47.345" xmlns="http://www.w3.org/2000/svg">
 <g transform="translate(-55.737 -114.71)">
  <g transform="matrix(.52917 0 0 .52917 -4.3594 32.359)">
   <g transform="translate(147,175)">
    <path d="m2.55 0.63t-0.27 1.16q-0.27 1.15-0.34 2.34-0.06 1.19 1.02 1.86 1.09 0.66 2.53 0.22t2.19-1.55 1.3-2.52q0.54-1.4 0.63-3.19 0.08-1.79-0.23-2.83-0.31-1.05-0.86-2.11-0.55-1.07-0.87-2.36-0.31-1.29-1.49-2.13-1.18-0.85-2.04-1.63-0.86-0.79-2.44-0.65-1.58 0.15-2.72 0.15-1.16 0-2.59 0t-2.65 0.21q-1.22 0.2-2.86 0.73-1.64 0.54-3.3 2.05-1.66 1.52-3.11 2.63-1.46 1.12-3.49 2.24-2.04 1.13-2.95 1.82-0.92 0.69-1.09 2.64-0.17 1.94-1.3 3.83-1.13 1.88-1.76 3.32-0.62 1.45-0.87 2.82-0.24 1.37-0.67 2.79-0.42 1.41-0.56 3.55t-0.17 3.53-0.11 3.12q-0.07 1.74 0.11 3.47 0.19 1.73 0.35 3.17 0.15 1.44 0.87 2.89 0.72 1.44 1.59 2.33 0.88 0.89 1.88 1.82t2.03 1.88q1.02 0.94 3.01 1.66 1.98 0.72 3 1.27 1.03 0.55 2.09 0.62t2.14 0.54q1.08 0.46 2.79 0.83 1.72 0.38 3.26 0.52 1.55 0.15 3.11 0.13t2.72-0.51q1.17-0.5 1.71-1.45 0.55-0.95 0.5-2.08t-0.04-2.5q0.01-1.36 0.01-2.72 0-1.35 0.03-3.23 0.02-1.89-0.54-2.9-0.56-1.02-1.47-1.94-0.9-0.93-1.96-0.97-1.07-0.04-2.42-0.05-1.35-0.02-2.44-0.11-1.1-0.1-0.19 1.04 0.91 1.13 2.29 0.58 1.37-0.56 2.87-0.57 1.48 0 2.98 0 1.5-0.01 2.78-0.65 1.29-0.64 2.56-2.45 1.26-1.81 2.36-2.37 1.09-0.56 1.54-1.18 0.44-0.63 0.86-0.74 0.43-0.11 0.87-0.11t0.87 0.1 0.82 0.3 0.72 0.49 0.58 0.64q0.26 0.36 0.42 0.77t0.21 0.85q0.06 0.44 0.01 0.87-0.05 0.44-0.2 0.85t-0.4 0.78q-0.24 0.36-0.57 0.66-0.32 0.29-0.71 0.5t0.67-2.09q1.07-2.3 1.26-0.55 0.19 1.76 0.55 3.03 0.37 1.27 0.43 2.35 0.06 1.07 0.06 3.08-0.01 2 0.16 3.93 0.18 1.93 0.27 3.56t0.12 2.87q0.04 1.24 0.09 2.99t0.07 3.3q0.03 1.55 0.04 3.18t0.04 2.74q0.03 1.12 0.07 2.64 0.03 1.52 0.06 3.02 0.03 1.51 0.06 4.22 0.02 2.71-0.07 3.26t-0.35 1.05q-0.26 0.49-0.67 0.88-0.41 0.38-0.91 0.62-0.51 0.23-1.07 0.29-0.55 0.06-1.1-0.06-0.54-0.12-1.02-0.41t-0.84-0.71q-0.37-0.43-0.57-0.95-0.21-0.52-0.24-1.07-0.03-0.56 0.12-1.1t0.46-1q0.32-0.47 0.76-0.8 0.45-0.34 0.98-0.52t1.09-0.18q0.55 0 1.08 0.18t0.98 0.52q0.44 0.33 0.76 0.8 0.31 0.46 0.46 1t0.12 1.1q-0.03 0.55-0.24 1.07-0.2 0.52-0.57 0.95-0.36 0.43-0.84 0.71-0.48 0.29-1.02 0.41-0.55 0.12-1.1 0.06-0.56-0.06-1.07-0.29-0.5-0.24-0.91-0.62-0.41-0.39-0.67-0.88-0.26-0.5-0.35-1.05t-0.09-0.55 0.02-2.71q0.03-2.71 0.06-4.22 0.03-1.5 0.06-3.02 0.04-1.52 0.07-2.64 0.03-1.11 0.04-2.74 0.01-1.62 0.02-3.14 0.02-1.53 0-3.17-0.01-1.64-0.08-2.75-0.07-1.1-0.23-2.28-0.15-1.19-0.56-3.81-0.42-2.61-0.49-4.43t-0.18-2.89q-0.11-1.06-0.4-2.84-0.29-1.77 0.64-4.35t1.35-2.69q0.43-0.11 0.87-0.11 0.44-0.01 0.87 0.1 0.43 0.1 0.82 0.3t0.72 0.49 0.58 0.64q0.26 0.36 0.42 0.77t0.21 0.85q0.06 0.43 0.01 0.87t-0.2 0.85-0.4 0.78q-0.24 0.36-0.57 0.66-0.32 0.29-0.71 0.5t-0.94 0.37q-0.54 0.16-1.86 1.9-1.32 1.75-2.56 2.53-1.24 0.77-2.58 1.73-1.35 0.95-2.82 1.16-1.46 0.22-2.97 0.21-1.49 0-3-0.01-1.52-0.01-2.59-0.04t-2.59-0.28q-1.51-0.25-3.17-1.64-1.65-1.4-2.25-2.78t-0.6-2.59q0.01-1.21 0.33-2.79 0.32-1.59 1.43-2.6t2.25-1.56q1.14-0.56 2.77-0.65t3.13-0.07q1.51 0.02 2.9 0.18 1.38 0.15 3.37 1.6t2.88 2.06q0.9 0.61 1.85 1.77 0.96 1.16 1.41 3.19 0.46 2.03 0.48 3.92 0.03 1.89 0.02 3.27t-0.04 2.9q-0.02 1.52-0.18 2.96t-0.88 3.16q-0.72 1.71-1.82 3.26-1.11 1.54-2.12 2.21-1.01 0.68-3.07 0.9-2.05 0.22-3.17 0.17-1.12-0.06-2.61-0.19-1.49-0.14-2.8-0.33-1.3-0.18-2.35-0.46-1.05-0.27-3.17-0.88-2.11-0.6-3.95-1.31-1.83-0.71-3.89-1.46-2.05-0.75-3.09-1.46-1.03-0.72-2-1.78t-1.96-2.19q-0.98-1.13-2.02-2.59-1.04-1.45-1.53-2.5-0.48-1.04-0.82-2.44-0.34-1.39-0.42-2.71t-0.46-3.39-0.43-3.84q-0.04-1.78-0.01-3.25t0.12-2.93q0.1-1.46 0.36-2.74 0.26-1.29 0.65-2.38t0.72-2.91q0.32-1.81 1.69-4.64 1.38-2.82 1.81-5 0.42-2.2 1.23-3.49 0.82-1.29 1.97-2.13 1.16-0.85 2.64-1.99t2.89-2.64 3.01-2.98 3.25-2.28q1.66-0.79 2.75-1.34t2.61-0.93 2.73-0.36q1.2 0.01 2.59 0.02t2.94 0.06q1.57 0.04 3.13 0.31t3.56 1.84 3.38 2.64q1.37 1.08 2.04 2.09t1.32 2.61q0.64 1.61 1.43 3.29t0.8 3.64q0.01 1.97-0.18 3.48-0.18 1.52-0.54 2.9-0.35 1.38-0.88 2.4-0.53 1.03-1.16 2.07-0.62 1.04-2.2 2.2-1.57 1.17-2.79 1.6-1.21 0.44-2.77 0.42-1.55-0.01-2.93-0.22-1.37-0.21-2.46-0.85-1.07-0.63-2.4-2.39t-1.47-2.82 0.14-2.66 0.59-2.75q0.3-1.13 0.41-1.43 0.12-0.3 0.3-0.56t0.42-0.47 0.52-0.35q0.28-0.15 0.59-0.23 0.31-0.07 0.61-0.07 0.32 0 0.63 0.08t0.59 0.22q0.28 0.15 0.52 0.36 0.23 0.22 0.41 0.48t0.29 0.56q0.11 0.29 0.15 0.61 0.04 0.3 0 0.62-0.04 0.31-0.04 0.31z"/>
   </g>
   <g transform="rotate(2.4195 -3889.3 4132.6)">
    <path d="m2.47-0.35t0.16 2.02q0.16 2.03 0.55 3.31t0.64 2.6 0.38 2.49q0.13 1.16 0.18 2.53t0.53 3.42q0.48 2.06 1.02 3.25t0.73 2.93q0.19 1.73 0.24 3.56 0.06 1.84 0.5 3.3 0.44 1.45 0.58 3.06 0.15 1.61 0.18 3.12 0.04 1.5 0.07 2.71t0.43 2.85 0.91 3.27q0.5 1.64 0.59 2.17 0.08 0.53-0.01 1.07-0.09 0.53-0.34 1-0.26 0.47-0.65 0.84t-0.88 0.59-1.03 0.28q-0.53 0.05-1.06-0.06-0.52-0.12-0.98-0.4t-0.81-0.7q-0.34-0.41-0.54-0.91t-0.22-1.04q-0.03-0.53 0.12-1.05t0.45-0.96q0.31-0.45 0.74-0.77t0.94-0.49 1.05-0.17q0.53 0.01 1.04 0.18 0.51 0.18 0.94 0.51 0.42 0.32 0.72 0.77t0.44 0.97 0.11 1.05q-0.03 0.54-0.23 1.04-0.21 0.5-0.56 0.9-0.35 0.41-0.81 0.69-0.46 0.27-0.99 0.38-0.52 0.12-1.06 0.05-0.53-0.06-1.02-0.29-0.49-0.22-0.88-0.6-0.38-0.37-0.63-0.85-0.25-0.47-0.25-0.47t-0.64-2.44q-0.65-2.44-1.02-4.31-0.37-1.88-0.34-3.08 0.02-1.2 0.03-2.63t0.02-2.64-0.39-3.14-0.38-3.66 0.01-3.3-0.48-3.6q-0.48-2.04-0.78-3.46-0.32-1.42-0.33-2.7-0.01-1.27-0.13-3.3-0.12-2.04-0.54-3.62-0.43-1.58-0.84-3.58-0.42-1.99-0.42-2.29-0.01-0.29 0.06-0.59 0.06-0.29 0.2-0.56 0.13-0.27 0.32-0.5 0.2-0.23 0.44-0.41 0.25-0.17 0.53-0.28 0.28-0.12 0.57-0.16 0.3-0.04 0.59-0.01 0.3 0.03 0.59 0.13 0.28 0.1 0.53 0.26 0.25 0.17 0.46 0.39 0.2 0.22 0.35 0.49 0.14 0.26 0.22 0.55t0.08 0.29z"/>
   </g>
   <g transform="translate(185,199)">
    <path d="m2.58-0.51t0.26 1.43q0.27 1.44 0.43 2.75 0.16 1.3 0.24 2.45 0.09 1.15 0.4 2.41t0.87 2.86q0.56 1.59 1.62 1.47t2.28-0.32q1.21-0.19 1.31-1.29t-0.17-2.25-0.64-2.79 0.29-4.9q0.67-3.25 1.09-3.62 0.41-0.37 0.92-0.59 0.52-0.22 1.07-0.27 0.56-0.04 1.1 0.09 0.54 0.14 1.01 0.44t0.81 0.74q0.35 0.43 0.54 0.96 0.19 0.52 0.21 1.07 0.01 0.55-0.15 1.09-0.17 0.53-0.49 0.98-0.33 0.45-0.78 0.78-0.46 0.32-0.99 0.48-0.53 0.17-1.09 0.15t-1.08-0.21-0.95-0.54q-0.44-0.35-0.74-0.82t-0.43-1.01q-0.13-0.55-0.09-1.09 0.05-0.56 0.27-1.07t0.6-0.92q0.37-0.42 0.85-0.69 0.49-0.27 1.04-0.38 0.54-0.1 1.1-0.03 0.55 0.08 1.05 0.33t0.89 0.64q0.39 0.4 0.64 0.9 0.24 0.5 0.32 1.05 0.07 0.54-0.03 1.09-0.11 0.55-0.38 1.03-0.28 0.49-0.28 0.48 0 0 0.07 0.85 0.08 0.84 0.46 2.79t0.33 3.53q-0.06 1.57-0.73 2.99t-0.86 2.52q-0.2 1.1-1.55 2.18-1.35 1.07-2.55 1.53-1.21 0.45-2.38 0.44-1.17-0.02-2.56-0.24-1.38-0.22-2.61-0.97-1.22-0.75-2.19-2.06-0.96-1.3-1.49-2.84-0.54-1.53-0.88-2.81-0.34-1.27-0.35-3.02 0-1.75-0.09-2.82-0.08-1.06-0.39-2.5-0.31-1.43-0.33-1.75-0.02-0.3 0.03-0.61 0.05-0.32 0.18-0.61 0.12-0.29 0.31-0.54 0.19-0.26 0.44-0.46t0.53-0.33q0.29-0.13 0.6-0.2 0.31-0.06 0.62-0.05 0.32 0.02 0.62 0.11 0.31 0.09 0.58 0.25t0.5 0.38 0.4 0.49 0.27 0.57 0.1 0.3z"/>
   </g>
   <g transform="translate(211,163)">
    <path d="m2.25-0.45t0.3 1.43 0.69 2.83q0.39 1.39 0.6 3.05t0.3 3.23q0.08 1.57 0.38 2.89 0.29 1.32 0.48 2.64t0.27 2.77q0.07 1.46 0.36 2.71 0.28 1.25 0.38 3.18t0.15 3.59q0.04 1.65 0.35 2.67 0.31 1.03 0.64 2.98 0.32 1.95 0.42 3.85t0.13 2.97q0.02 1.07 0.09 2.42 0.08 1.34 0.13 2.4 0.06 1.07 0.13 2.58t2.11 1.32 3.02-0.69q0.99-0.49 2.09-2.01 1.1-1.51 1.2-3.32 0.09-1.81-0.6-2.85-0.7-1.03-2.13-1.36t-3.09-0.38-3.98-0.06q-2.33-0.01-2.87-0.1t-1.02-0.35-0.86-0.66q-0.37-0.4-0.6-0.89-0.23-0.5-0.29-1.04-0.05-0.55 0.07-1.08 0.12-0.54 0.4-1.01 0.28-0.46 0.7-0.82 0.42-0.35 0.93-0.55t1.06-0.23q0.54-0.03 1.07 0.12t0.98 0.46 0.78 0.75q0.33 0.43 0.5 0.95t0.17 1.07-0.18 1.06q-0.17 0.52-0.51 0.96-0.33 0.43-0.78 0.74-0.46 0.3-0.98 0.45-0.53 0.14-1.08 0.11t-1.05-0.24q-0.51-0.2-0.93-0.56-0.41-0.35-0.69-0.82t-0.4-1.01q-0.11-0.53-0.05-1.08 0.06-0.54 0.29-1.04 0.23-0.49 0.61-0.89 0.38-0.39 0.86-0.65 0.49-0.25 1.03-0.34t0.54-0.09 3.22 0.06q3.21 0.06 4.64 0.14t2.48 0.55q1.04 0.47 2.34 0.76 1.3 0.3 2.29 1.25 0.98 0.95 1.82 1.7 0.84 0.74 1.41 3.19t0.12 4.3q-0.46 1.85-0.65 3.06-0.19 1.22-1.24 2.84-1.05 1.63-2.04 2.78-1 1.15-2.03 1.76-1.04 0.6-2.9 1.09-1.87 0.48-3.2 0.86t-2.46 0.34q-1.13-0.05-2.78-0.49-1.65-0.45-2.62-2.5-0.97-2.04-0.91-3.55 0.05-1.5 0.13-3.03 0.07-1.53 0.14-2.67 0.06-1.14 0.11-2.94 0.05-1.79 0.08-3.56t-0.02-3.31q-0.06-1.54-0.37-3.04t-0.38-3.07q-0.06-1.57-0.23-3.17-0.16-1.6-0.5-3.25-0.34-1.64-0.38-2.94t-0.12-2.4-0.42-2.78-0.41-3.1q-0.06-1.43-0.19-2.74-0.14-1.31-0.57-2.87-0.43-1.55-0.7-2.99-0.28-1.44-0.3-1.72-0.02-0.27 0.02-0.54 0.05-0.27 0.16-0.53 0.11-0.25 0.28-0.47 0.16-0.22 0.38-0.4 0.21-0.17 0.46-0.29 0.26-0.12 0.53-0.17 0.27-0.06 0.54-0.05 0.27 0.02 0.54 0.09 0.27 0.08 0.5 0.22 0.24 0.14 0.44 0.33 0.2 0.2 0.35 0.43 0.15 0.24 0.23 0.5 0.09 0.26 0.09 0.26z"/>
   </g>
  </g>
 </g>
</svg>
