<?xml version="1.0" encoding="UTF-8"?>
<!-- Created with Inkscape (http://www.inkscape.org/) -->
<svg width="62.546mm" height="31.562mm" version="1.1" viewBox="0 0 62.546 31.562" xmlns="http://www.w3.org/2000/svg">
 <g transform="translate(-70.667 -203.61)">
  <g transform="matrix(.52917 0 0 .52917 87.892 221.04)">
   <path d="m-2.1 0t-0.03-1.43q-0.04-1.44-0.09-2.63-0.06-1.18-0.04-2.84 0.02-1.65 0.07-3.49 0.06-1.84-0.4-3.51-0.45-1.67-0.99-2.97-0.54-1.31-1.48-2.54t-1.73-2.8q-0.8-1.56-1.95-2.14-1.16-0.57-2.91-1.93-1.75-1.35-3.38-1.79-1.62-0.43-3.18-0.6t-2.8-0.19q-1.23-0.01-2.57-0.01-1.33 0.01-2.32 0.44-0.98 0.44-1.47 1.47t-0.76 2.44q-0.27 1.4-0.51 3.42-0.25 2.02-0.1 3.94 0.16 1.92 0.47 4.19 0.32 2.28 1 4.92 0.67 2.64 1.25 5.27 0.58 2.62 1.35 4.46 0.77 1.85 1.69 3.47t1.88 3.52q0.96 1.89 1.95 3.5t1.78 3.22q0.8 1.62 1.66 2.68 0.86 1.07 1.78 2.05 0.93 0.97 2.19 1.5 1.27 0.52 3.09 0.84t3.51 0.43q1.69 0.1 2.88 0.11t1.87-1.1q0.67-1.12 1.15-2.44 0.49-1.32 0.93-2.4 0.45-1.08 0.86-2.19 0.41-1.1 1.08-2.01 0.68-0.9 0.61-3.23-0.08-2.33 0-2.78 0.09-0.45 0.32-0.85 0.22-0.39 0.56-0.7t0.76-0.49 0.88-0.22q0.45-0.03 0.9 0.08 0.44 0.11 0.82 0.35 0.39 0.25 0.68 0.6 0.28 0.36 0.44 0.79t0.17 0.89q0.02 0.45-0.12 0.89-0.13 0.44-0.4 0.81-0.26 0.37-0.64 0.64-0.37 0.27-0.8 0.4-0.44 0.14-0.9 0.12-0.45-0.01-0.88-0.17-0.43-0.15-0.79-0.44t-0.6-0.67q-0.25-0.39-0.36-0.83t-0.08-0.9q0.04-0.46 0.22-0.88t0.49-0.76q0.3-0.34 0.7-0.56 0.4-0.23 0.85-0.31 0.45-0.09 0.9-0.03t0.86 0.26q0.41 0.21 0.74 0.53 0.32 0.32 0.52 0.73 0.21 0.41 0.27 0.87 0.06 0.45 0.06 0.45t-0.08 1.68q-0.09 1.68-0.29 3.14-0.19 1.46-0.97 2.47-0.77 1-1.6 2.73t-1.95 3.93q-1.13 2.2-2.06 3.18-0.94 0.98-2.32 1.6-1.36 0.62-2.81 0.52-1.46-0.11-3.27-0.27-1.82-0.17-4.19-0.49-2.38-0.33-4.22-1.31-1.84-0.99-2.81-2.22t-1.86-2.65q-0.89-1.41-1.51-2.93t-1.6-3.23q-0.98-1.7-1.96-3.55t-1.92-3.62q-0.93-1.78-1.82-3.85-0.89-2.08-1.52-4.62-0.62-2.56-1.42-5.34-0.79-2.78-1.23-5.14-0.45-2.36-0.73-4.59-0.29-2.24-0.2-4.57 0.08-2.33 0.58-4.41 0.5-2.07 1.83-3.81 1.34-1.75 3.27-2.43 1.94-0.68 3.42-0.59t2.82 0.26q1.33 0.18 3.12 0.46 1.78 0.29 3.96 0.92 2.18 0.62 3.98 1.77 1.8 1.16 3.58 2.41 1.79 1.26 2.49 2.66 0.71 1.4 1.94 3.08 1.24 1.68 1.76 3.17 0.52 1.5 1.22 3.7 0.69 2.21 0.75 4.07 0.05 1.87 0.07 3.52 0.02 1.66-0.04 2.84-0.05 1.19-0.09 2.63-0.03 1.43-0.06 1.68t-0.12 0.49q-0.09 0.23-0.24 0.44-0.14 0.21-0.33 0.38t-0.41 0.28q-0.23 0.12-0.48 0.18-0.24 0.06-0.49 0.06t-0.49-0.06q-0.25-0.06-0.48-0.18-0.22-0.11-0.41-0.28t-0.33-0.38q-0.15-0.21-0.24-0.44-0.09-0.24-0.12-0.49t-0.03-0.25z"/>
  </g>
  <g transform="matrix(.52917 0 0 .52917 81.542 226.33)">
   <path d="m0-2.29t2.01 0.1q2.01 0.09 4.59 0.2 2.58 0.1 5.02-0.1 2.43-0.2 4.12-0.37 1.68-0.17 3.41-0.41 1.73-0.25 2.81-0.36 1.08-0.12 2.27-0.63 1.19-0.52 2.52-0.69 1.32-0.17 2.39-0.25 1.08-0.08 2.81-0.1t2.2 0.05q0.46 0.08 0.88 0.3t0.75 0.57q0.32 0.34 0.52 0.77t0.25 0.9-0.05 0.93q-0.1 0.47-0.34 0.87-0.25 0.41-0.61 0.71t-0.8 0.48q-0.44 0.17-0.91 0.2-0.47 0.02-0.93-0.1-0.46-0.13-0.85-0.39-0.39-0.27-0.68-0.64-0.28-0.37-0.44-0.82-0.15-0.45-0.15-0.92 0-0.48 0.15-0.93 0.15-0.44 0.44-0.82t0.68-0.64q0.39-0.27 0.85-0.4 0.45-0.12 0.93-0.1 0.47 0.03 0.91 0.2 0.44 0.18 0.8 0.48 0.36 0.31 0.6 0.72 0.25 0.4 0.35 0.86 0.1 0.47 0.05 0.94t-0.25 0.9-0.52 0.77q-0.33 0.33-0.75 0.56-0.41 0.22-0.88 0.29-0.47 0.08-0.47 0.08t-2.69-0.07q-2.7-0.06-4.15-0.15-1.44-0.08-2.46 0.29t-2.19 0.28-2.84-0.18q-1.66-0.1-3.28-0.02-1.63 0.07-4.26 0.45-2.63 0.37-5.21 0.47-2.58 0.11-4.59 0.2-2.01 0.1-2.28 0.07-0.27-0.04-0.53-0.13-0.26-0.1-0.49-0.26t-0.41-0.36q-0.18-0.21-0.31-0.46-0.13-0.24-0.2-0.51-0.06-0.27-0.06-0.54t0.06-0.54q0.07-0.27 0.2-0.51 0.13-0.25 0.31-0.46 0.18-0.2 0.41-0.36t0.49-0.26q0.26-0.09 0.53-0.13 0.27-0.03 0.27-0.03z"/>
  </g>
  <g transform="matrix(.52917 0 0 .52917 91.067 208.86)">
   <path d="m1.4-1t1.39 2.04q1.4 2.05 2.35 4.53t1.9 5.52q0.94 3.04 1.63 6.4 0.7 3.36 1.26 6.2 0.57 2.84 1.37 5.41 0.79 2.58 1.43 5.18t1.21 4.52q0.57 1.93 1.15 2.87 0.58 0.95 1.54 1.54 0.97 0.6 3.3-1.08 2.34-1.68 3.64-2.62 1.31-0.93 1.85-1.92 0.54-0.98 1.1-2.03 0.55-1.04 0.8-3.61t0.3-4.12-0.03-3.23-0.08-1.65q-0.01 0.03 0.03-0.27t0.15-0.58 0.28-0.52q0.18-0.25 0.41-0.44 0.22-0.2 0.49-0.33 0.27-0.14 0.56-0.21t0.59-0.06q0.3 0 0.59 0.08 0.29 0.07 0.55 0.22 0.27 0.14 0.49 0.34t0.39 0.45 0.27 0.53 0.13 0.58q0.04 0.3-0.09 3.28-0.12 2.97-0.25 5.56-0.12 2.59 0.07 4.72 0.19 2.14 0.42 3.3 0.23 1.17-1.21 1.33-1.44 0.17-0.41-2.24 1.04-2.4 1.98-3.97t1.54-2.76q0.61-1.2 0.81-3.04 0.2-1.83 0.77-2.86 0.56-1.03 0.9-1.2 0.33-0.16 0.55-0.38 0.22-0.23 0.49-0.39 0.26-0.17 0.56-0.26 0.29-0.1 0.61-0.12 0.31-0.02 0.61 0.03 0.31 0.05 0.6 0.18 0.28 0.12 0.53 0.31t0.44 0.44q0.2 0.24 0.33 0.52 0.13 0.29 0.19 0.59 0.06 0.31 0.04 0.62-0.01 0.31-0.1 0.61t-0.25 0.57 0.64 2.3q0.79 2.03 1.57 5.36t1.62 5.51q0.83 2.19 1.32 3.46 0.49 1.28 1.76-1.92t1.68-6.35q0.42-3.15 0.36-6.75-0.07-3.61-0.35-6.87t-0.67-6.67q-0.39-3.4-1.11-6.81-0.72-3.4-1.29-5.42-0.58-2.01-0.66-2.84-0.09-0.81-0.12-1.01t-0.02-0.4q0.02-0.2 0.08-0.39t0.17-0.36q0.1-0.17 0.25-0.31 0.14-0.14 0.31-0.25 0.18-0.1 0.37-0.16 0.19-0.05 0.39-0.06 0.21-0.01 0.4 0.03 0.2 0.04 0.38 0.12t0.34 0.21 0.28 0.29 0.2 0.34q0.08 0.19 1.32 4.36 1.23 4.19 2.2 8.36 0.97 4.18 1.67 7.69 0.69 3.52 1.54 6.68 0.85 3.17 1.52 5.1 0.66 1.94 0.69 2.11 0.02 0.16 0.01 0.33-0.02 0.17-0.08 0.34-0.05 0.16-0.15 0.3-0.09 0.14-0.21 0.26-0.13 0.11-0.28 0.2-0.15 0.08-0.31 0.13-0.17 0.04-0.34 0.04-0.17 0.01-0.33-0.03-0.17-0.03-0.32-0.11t-0.29-0.19q-0.13-0.1-0.23-0.24t-0.16-0.3q-0.07-0.16 0.3-1.18t0.99-2.59q0.61-1.57 2.48-2.71 1.87-1.15 2.95-1.76 1.09-0.6 2.37-0.82 1.29-0.22 2.38-0.31 1.1-0.09 2.43 0.3 1.32 0.38 2.47 1.41t1.95 1.87 1.59 1.97q0.8 1.13 1.42 2.2t1.18 2.1q0.55 1.04 1.07 2.77 0.52 1.74 0.26 3.82t-1.05 3.22q-0.79 1.15-2.5 1.9t-3.34 1.06q-1.62 0.32-3.67 0.41-2.06 0.09-3.46 0.16-1.41 0.07-2.89 0.08-1.48 0.02-3.25-0.05-1.78-0.06-4.08 0t-2.72-0.01q-0.41-0.06-0.78-0.26-0.37-0.19-0.65-0.49-0.29-0.3-0.47-0.68t-0.22-0.79q-0.05-0.42 0.04-0.83 0.09-0.4 0.3-0.76 0.22-0.36 0.53-0.63 0.32-0.27 0.71-0.43 0.38-0.16 0.8-0.18t0.82 0.09 0.75 0.34q0.34 0.23 0.6 0.56 0.25 0.34 0.39 0.73 0.13 0.4 0.13 0.81 0 0.42-0.13 0.82-0.13 0.39-0.38 0.72-0.25 0.34-0.6 0.57-0.34 0.24-0.74 0.35-0.41 0.11-0.82 0.09-0.42-0.02-0.81-0.17t-0.7-0.42q-0.32-0.27-0.54-0.63t-0.31-0.76q-0.09-0.41-0.04-0.83 0.04-0.41 0.21-0.79 0.18-0.38 0.46-0.68 0.29-0.31 0.66-0.5 0.37-0.2 0.78-0.27t0.41-0.07 2.29 0.04q2.29 0.05 4.03-0.04t3.14-0.13q1.39-0.05 2.69-0.13 1.29-0.07 2.89-0.32t3.73-0.87q2.13-0.63 2.01-1.85-0.13-1.23-0.62-2.17-0.5-0.95-1.5-2.59-0.99-1.64-1.97-2.91-0.97-1.27-2.14-1.51-1.17-0.23-2.23-0.28-1.07-0.06-2.69 0.28-1.62 0.33-2.93 1.58-1.32 1.25-1.29 1.42 0.02 0.16 0.01 0.33-0.02 0.17-0.08 0.34-0.05 0.16-0.15 0.3-0.09 0.14-0.21 0.26-0.13 0.11-0.28 0.2-0.15 0.08-0.31 0.13-0.16 0.04-0.34 0.04-0.17 0.01-0.33-0.03-0.17-0.03-0.32-0.11t-0.29-0.19q-0.13-0.1-0.23-0.24t-0.16-0.3q-0.07-0.16-0.72-2.1t-1.56-5.18q-0.9-3.25-1.63-6.71-0.73-3.45-1.75-7.57-1.02-4.11-2.36-8.23-1.35-4.1-1.38-4.3t-0.02-0.4q0.02-0.2 0.08-0.39t0.17-0.36q0.1-0.17 0.25-0.31 0.14-0.14 0.31-0.25 0.18-0.1 0.37-0.16 0.19-0.05 0.39-0.06t0.4 0.03 0.38 0.12 0.34 0.21 0.28 0.29 0.2 0.34q0.08 0.19-0.06 1.1t0.51 2.99q0.64 2.08 1.44 5.61 0.81 3.53 1.28 6.96 0.48 3.43 0.89 6.8 0.41 3.36 0.62 7.23 0.21 3.86-0.09 7.47t-1.07 6.35q-0.77 2.75-1.91 4.37-1.13 1.63-2.78 1.91-1.64 0.29-2.58-0.25t-1.54-1.46-0.93-2.15q-0.32-1.24-1.4-3.6-1.07-2.36-2.09-5.68t-1.74-7.45-0.5-4.35q0.22-0.23 0.49-0.39 0.26-0.17 0.56-0.26 0.29-0.1 0.61-0.12 0.31-0.02 0.61 0.03 0.31 0.05 0.6 0.18 0.28 0.12 0.53 0.31t0.44 0.44q0.2 0.24 0.33 0.52 0.13 0.29 0.19 0.59 0.06 0.31 0.04 0.62-0.01 0.31-0.1 0.61t-0.25 0.57-0.8 0.33-0.81 1.17q-0.16 1.1-0.6 2.42-0.43 1.32-1.15 2.55-0.72 1.22-1.55 2.66-0.83 1.43-1.98 3.69-1.14 2.27-2.93 2.28t-2.38-1.88q-0.59-1.9-0.98-4.26-0.38-2.37-0.51-4.96-0.12-2.59-0.25-5.6-0.13-3-0.09-3.3t0.15-0.58 0.28-0.52q0.18-0.25 0.41-0.44 0.22-0.2 0.49-0.33 0.27-0.14 0.56-0.21t0.59-0.06q0.3 0 0.59 0.08 0.29 0.07 0.55 0.22 0.27 0.14 0.49 0.34t0.39 0.45 0.27 0.53 0.13 0.58q0.04 0.3 0.02 0.34-0.01 0.05-0.15 1.69-0.13 1.65-0.18 3.28t-0.15 3.5-0.52 3.52q-0.43 1.65-1.15 2.81-0.72 1.15-1.82 2.63-1.1 1.49-2.31 2.29-1.21 0.81-2.96 2.45-1.75 1.63-3.42 2.21-1.66 0.59-3.28-0.07t-2.68-1.99q-1.07-1.33-1.54-2.61-0.47-1.29-1.02-3.27-0.54-1.98-1.18-4.5-0.63-2.52-1.48-5.23-0.85-2.7-1.45-5.53-0.6-2.82-1.29-6.03-0.7-3.2-1.67-6.13-0.97-2.94-1.81-5.04-0.85-2.11-2.33-4.09-1.47-1.97-1.57-2.16-0.1-0.18-0.15-0.38t-0.06-0.41q0-0.2 0.05-0.4 0.04-0.2 0.14-0.39 0.09-0.18 0.23-0.34 0.13-0.16 0.3-0.28t0.36-0.2q0.2-0.07 0.4-0.1 0.21-0.03 0.4-0.01 0.21 0.02 0.41 0.1 0.19 0.07 0.36 0.18 0.18 0.12 0.32 0.27t0.14 0.15z"/>
  </g>
 </g>
</svg>
