<?xml version="1.0" encoding="UTF-8"?>
<!-- Created with Inkscape (http://www.inkscape.org/) -->
<svg width="65.094mm" height="25.393mm" version="1.1" viewBox="0 0 65.094 25.393" xmlns="http://www.w3.org/2000/svg">
 <g transform="translate(-69.337 -178.32)">
  <g transform="matrix(.52917 0 0 .52917 97.008 184.94)">
   <path d="m2.06 0.29t-0.37 2q-0.36 2-0.56 4.21-0.19 2.2-0.6 4.68t-0.58 4.59q-0.18 2.11-0.57 4.26-0.38 2.15-0.43 3.56-0.05 1.42 2.41 2.35 2.47 0.93 5.01 0.78 2.53-0.15 4.26-0.28t3.51-0.29q1.77-0.16 2.09-0.13 0.33 0.04 0.62 0.18t0.53 0.37q0.23 0.23 0.38 0.52t0.2 0.61-0.01 0.64-0.21 0.61q-0.16 0.28-0.4 0.5t-0.53 0.36q-0.3 0.13-0.62 0.16-0.33 0.03-0.65-0.04-0.31-0.08-0.59-0.25t-0.48-0.42q-0.21-0.25-0.33-0.55-0.11-0.31-0.13-0.63-0.01-0.33 0.08-0.64t0.28-0.58q0.18-0.27 0.44-0.46t0.57-0.29 0.64-0.1q0.32 0 0.63 0.11t0.57 0.31q0.25 0.2 0.43 0.47t0.26 0.59q0.09 0.31 0.07 0.64-0.03 0.32-0.15 0.62t-0.34 0.55q-0.21 0.24-0.49 0.41-0.28 0.16-0.6 0.23-0.32 0.06-0.32 0.06t-1.75-0.01-3.43 0.06q-1.69 0.07-4.48 0.39t-5.21 0.28q-2.41-0.03-3.7-0.59-1.28-0.57-1.62-3.01-0.34-2.45-0.09-3.94 0.24-1.5 0.56-3.5 0.31-2 0.42-4.24 0.1-2.24 0.37-4.58 0.28-2.35 0.32-4.73 0.05-2.38 0.26-4.41 0.21-2.01 0.28-2.25 0.06-0.24 0.19-0.46 0.12-0.22 0.29-0.41 0.17-0.18 0.38-0.32t0.44-0.22q0.24-0.09 0.49-0.11 0.24-0.03 0.49 0.01 0.25 0.03 0.48 0.13 0.23 0.09 0.43 0.24 0.21 0.15 0.37 0.34t0.27 0.41q0.12 0.23 0.17 0.47 0.06 0.25 0.05 0.49 0 0.25 0 0.25z"/>
  </g>
  <g transform="matrix(.52917 0 0 .52917 110.24 184.94)">
   <path d="m2.13 0t-0.11 3.16-0.19 5.66-0.74 5.17q-0.65 2.68-0.92 4.79-0.27 2.12-0.33 3.87-0.06 1.76 0.25 2.9 0.31 1.13 1.12 2.16t2.2 0.87q1.38-0.16 2.58-0.16t2.93-0.07q1.72-0.06 2.36-1.04 0.63-0.98 0.71-3.05 0.07-2.07-0.12-5.45-0.19-3.37-0.37-5.37-0.17-1.99-0.34-3.52-0.18-1.54-0.26-3.09-0.08-1.54 2.16-3.15 2.23-1.61 2.16-1.24-0.08 0.36-0.26 0.68-0.19 0.32-0.46 0.57-0.28 0.25-0.62 0.39-0.35 0.15-0.72 0.17-0.37 0.03-0.73-0.06t-0.67-0.29q-0.31-0.21-0.54-0.5t-0.36-0.64q-0.12-0.35-0.13-0.72t0.1-0.72q0.12-0.36 0.33-0.66 0.22-0.3 0.53-0.51 0.3-0.21 0.65-0.31 0.36-0.11 0.73-0.1t0.72 0.14q0.35 0.12 0.64 0.36 0.28 0.23 0.48 0.55 0.2 0.31 0.29 0.67 0.08 0.36 0.05 0.73t-0.18 0.71-0.4 0.62q-0.25 0.27-0.57 0.45-0.33 0.18-0.69 0.25-0.37 0.07-0.74 0.02-0.36-0.06-0.7-0.22-0.33-0.17-0.59-0.43-0.26-0.27-0.42-0.6-0.16-0.34-0.21-0.7-0.05-0.37-0.05-0.37t2.32 1.59q2.33 1.59 2.37 3.01 0.04 1.43 0.16 2.83 0.11 1.4 0.61 3.61 0.51 2.21 0.79 4.19t0.61 3.52q0.32 1.54 0.3 4.06-0.03 2.52-0.58 4.19-0.56 1.67-1.39 2.72t-1.94 1.53q-1.1 0.49-2.22 0.51-1.11 0.01-2.87-0.08-1.75-0.09-4.06-0.25t-3.45-0.47q-1.15-0.31-2.43-1.81-1.3-1.51-1.67-2.62-0.37-1.1-0.54-2.65t-0.03-3.4q0.15-1.84 0.36-4.15 0.22-2.31 0.72-4.63 0.49-2.32 0.41-4.81t-0.19-5.65-0.08-3.41q0.03-0.26 0.12-0.5t0.24-0.45 0.34-0.38 0.42-0.29 0.48-0.18 0.5-0.06 0.5 0.06 0.48 0.18 0.42 0.29 0.34 0.38 0.24 0.45 0.12 0.5q0.03 0.25 0.03 0.25z"/>
  </g>
  <g transform="matrix(.52917 0 0 .52917 122.94 186.53)">
   <path d="m2.22 0t-0.12 4.02 0.07 7.38q0.2 3.37 0.54 5.92 0.33 2.56 0.5 4.59t0.32 3.1q0.16 1.08 0.85 1.92t1.88 0.66q1.19-0.19 2.49-0.16 1.31 0.02 2.41 0.01 1.11-0.01 1.88-1.98t1.25-3.95q0.49-1.99-1.37-1.37t-1.93 0.46q-0.07-0.15-0.45-0.15-0.37 0.01-0.74-0.08t-0.7-0.26q-0.34-0.17-0.62-0.42-0.29-0.24-0.5-0.55-0.22-0.31-0.36-0.66-0.13-0.35-0.18-0.72-0.05-0.38-0.01-0.75 0.04-0.38 0.17-0.73t0.34-0.66q0.21-0.32 0.49-0.57t0.61-0.43 0.7-0.27q0.36-0.1 1.9-1.58 1.54-1.49 2.25-2.73 0.7-1.25 1.29-2.26 0.59-1.02-0.79-2.18-1.37-1.17-2.92-1.62-1.54-0.46-2.96-0.54-1.42-0.09-4.98-0.34-3.54-0.25-4-0.33-0.45-0.07-0.86-0.29t-0.72-0.56q-0.32-0.33-0.51-0.75-0.19-0.43-0.24-0.89-0.05-0.45 0.05-0.9 0.11-0.45 0.35-0.84 0.24-0.4 0.59-0.69 0.36-0.3 0.79-0.47t0.89-0.19q0.45-0.02 0.89 0.1 0.45 0.13 0.83 0.39t0.66 0.63 0.42 0.81q0.15 0.44 0.14 0.89 0 0.46-0.15 0.9t-0.43 0.8q-0.28 0.37-0.67 0.63-0.38 0.25-0.83 0.38-0.44 0.12-0.89 0.09-0.46-0.03-0.89-0.2-0.43-0.18-0.78-0.48t-0.59-0.69q-0.23-0.4-0.33-0.85-0.1-0.46-0.05-0.91 0.06-0.45 0.25-0.87 0.2-0.42 0.52-0.76 0.32-0.33 0.73-0.54 0.41-0.22 0.86-0.29t0.45-0.07 4.58-0.18q4.59-0.18 6.22 0.16 1.64 0.35 3.04 0.84 1.39 0.48 2.79 1.44 1.4 0.95 2.36 1.62t1.47 1.7q0.5 1.02 0.92 2.15 0.43 1.12 0.3 2.59-0.12 1.46-1 2.94-0.89 1.48-1.52 2.52-0.63 1.05-2.03 2.41-1.39 1.35-3.81 3.23-2.41 1.88-2.79 1.88-0.37 0.01-0.74-0.08t-0.7-0.26q-0.34-0.17-0.62-0.42-0.29-0.24-0.5-0.55-0.22-0.31-0.36-0.66-0.13-0.35-0.18-0.72-0.05-0.38-0.01-0.75t0.17-0.73q0.13-0.35 0.34-0.66 0.21-0.32 0.49-0.57t0.61-0.43 0.7-0.27q0.36-0.1 1.14 0.18t2.93 0.05 3.74 0.44q1.6 0.66 2.3 2.1 0.71 1.45 0.19 3.64-0.51 2.2-1.14 4.32-0.62 2.13-1.32 3.75t-1.76 2.34q-1.06 0.71-2.29 1.03-1.22 0.31-2.42 0.27-1.19-0.05-2.61-0.1t-2.83-0.22q-1.4-0.17-2.59-0.78-1.19-0.62-1.76-1.56-0.57-0.93-0.9-2.09-0.34-1.15-0.33-2.32 0.01-1.18-0.16-3.09-0.18-1.91-0.67-4.58-0.48-2.66-0.86-6.17t-0.5-7.54q-0.12-4.02-0.09-4.28 0.03-0.27 0.13-0.52 0.09-0.25 0.25-0.47 0.15-0.22 0.35-0.4t0.44-0.3q0.24-0.13 0.5-0.19t0.52-0.06 0.52 0.06 0.5 0.19q0.24 0.12 0.44 0.3t0.35 0.4q0.16 0.22 0.25 0.47 0.1 0.25 0.13 0.52 0.03 0.26 0.03 0.26z"/>
  </g>
  <g transform="matrix(.52917 0 0 .52917 79.016 192.88)">
   <path d="m0-2.41t2.58 0.15q2.59 0.14 4.55 0.2 1.96 0.07 3.66 0.06 1.7 0 2.99-0.06 1.3-0.06 2.78-0.19 1.48-0.14 3.29 0.13 1.8 0.26 3.37 1.13t2.04 2.56q0.47 1.7-0.21 3.42t-2.48 4.67q-1.8 2.94-2.81 3.76-1 0.82-3.08 1.5t-4.9 0.55q-2.81-0.12-5.1-0.25-2.3-0.12-4.42-0.22-2.13-0.1-4.84-0.47-2.72-0.37-5.04-0.85-2.32-0.47-3.92-0.62-1.61-0.16-2.73-0.92-1.11-0.77-2.21-1.61-1.09-0.83-1.46-3.15-0.38-2.32-0.35-4.07 0.02-1.75 0.33-3.54 0.31-1.81 1.16-4.04 0.86-2.23 2.13-4.91 1.28-2.68 2.08-4.38 0.79-1.7 1.73-3.35 0.94-1.66 1.92-3.23t2.06-2.73q1.07-1.17 2.16-2.01 1.09-0.85 2.35-1.35 1.27-0.49 2.77-0.82 1.5-0.34 3.26-0.45 1.75-0.1 3.77 0.6t4 2.05q1.99 1.34 3.43 2.47 1.45 1.13 3.41 2.29 1.95 1.16 2.23 1.41t0.46 0.57 0.25 0.68q0.07 0.37 0.03 0.73-0.05 0.37-0.22 0.7-0.16 0.34-0.42 0.6t-0.6 0.43q-0.33 0.16-0.69 0.21-0.37 0.06-0.74-0.01-0.36-0.07-0.68-0.25-0.33-0.19-0.57-0.46-0.25-0.28-0.4-0.62t-0.18-0.71 0.06-0.73 0.29-0.67 0.48-0.54q0.29-0.24 0.64-0.37 0.35-0.12 0.72-0.13 0.37-0.02 0.72 0.09 0.36 0.11 0.66 0.33 0.3 0.21 0.52 0.51 0.21 0.3 0.32 0.66 0.11 0.35 0.1 0.72 0 0.37-0.13 0.72t-0.36 0.64-0.54 0.49-0.67 0.29-0.73 0.06-0.71-0.18q-0.34-0.14-0.34-0.14t-2.05-1.38q-2.05-1.39-3.31-2.35t-2.95-1.82q-1.7-0.87-2.9-1.31-1.21-0.44-2.71-0.48-1.51-0.05-2.6-0.03-1.1 0.02-2.71 0.64-1.63 0.61-2.52 1.33t-1.83 2.21q-0.94 1.5-1.81 3.01t-1.64 3.19q-0.77 1.67-1.8 4.24-1.04 2.57-1.57 4.57t-0.78 3.38-0.19 3.07q0.05 1.7-0.22 3.06-0.27 1.37 0.63 2.35 0.89 0.98 2.36 1.17 1.47 0.2 3.69 0.54t4.74 0.54q2.52 0.19 4.63 0.08 2.12-0.12 4.39-0.28 2.26-0.16 5.29-0.38 3.03-0.21 4.02-0.66t1.86-1.36 2.12-2.99q1.26-2.07-0.3-2.48-1.57-0.41-3.05-0.55-1.48-0.13-2.78-0.19-1.29-0.06-2.99-0.06-1.7-0.01-3.66 0.06-1.96 0.06-4.55 0.2-2.58 0.15-2.86 0.11-0.29-0.03-0.56-0.14-0.28-0.1-0.52-0.26-0.24-0.17-0.43-0.39-0.19-0.21-0.33-0.47-0.13-0.26-0.2-0.54t-0.07-0.57 0.07-0.57 0.2-0.54q0.14-0.26 0.33-0.47 0.2-0.22 0.43-0.39 0.24-0.16 0.52-0.26 0.27-0.11 0.56-0.14 0.28-0.04 0.28-0.04z"/>
  </g>
 </g>
</svg>
