<?xml version="1.0" encoding="UTF-8"?>
<!-- Created with Inkscape (http://www.inkscape.org/) -->
<svg width="64.446mm" height="36.891mm" version="1.1" viewBox="0 0 64.446 36.891" xmlns="http://www.w3.org/2000/svg">
 <g transform="translate(-76.782 -156.76)">
  <g transform="matrix(.52917 0 0 .52917 99.446 176.5)">
   <path d="m-0.48-2.17t2.59-0.45q2.61-0.46 4.35-1.38 1.75-0.93 2.93-1.53 1.18-0.59 1.96-1.77t0.92-2.43 0.2-2.42-0.17-2.24-1-2.14-1.51-3.07q-0.75-2-2.24-3.99-1.5-1.99-3.51-2.8t-3.08-1.22q-1.07-0.4-3.23-1.3-2.16-0.89-3.68-1.08-1.53-0.19-3.54 0.01-2 0.21-3.14 0.76-1.13 0.54-2.3 1.12-1.16 0.57-2.33 1.47t-2.7 1.94q-1.52 1.03-2.57 2.15t-2.81 2.77q-1.77 1.65-3.04 3.12-1.27 1.48-3.02 3.54t-2.71 3.93q-0.95 1.87-2.32 3.94-1.36 2.07-1.79 3.63t-0.57 3.02q-0.14 1.48-0.18 2.95-0.03 1.48 0 2.65t0.55 2.16q0.53 0.99 1.26 1.93 0.74 0.94 1.66 2.31 0.93 1.37 1.67 2.55 0.74 1.17 2.15 2.25 1.4 1.09 2.43 1.82 1.02 0.74 2.01 1.3 0.98 0.57 2.13 1.05t3.15 1.07q1.99 0.6 3.37 0.64t3.27 0.03q1.89 0 3.17 0.02 1.27 0.02 2.39 0.01 1.11 0 2.45 0.02t2.77 0.05 2.6 0.02q1.17 0 2.72-0.6 1.57-0.59 3.19-1.7 1.62-1.1 2.17-2.17 0.56-1.07 1.09-2.36 0.53-1.3 0.6-2.5t-0.35-2.22q-0.43-1.02-1.28-1.73t-2.07-1.12-2.89-1.11q-1.66-0.69-2.74-1.69-1.09-1-2.67-0.9-1.57 0.11-3.48 0.07-1.91-0.03-3.6-0.03-1.7 0-2.86-0.02-1.17-0.03-2.23-0.04-1.07-0.01-2.76-0.01-1.69-0.01-2.84 0.85-1.16 0.85-1.5 1.7-0.34 0.86-0.51 1.36t-0.49 0.92q-0.31 0.42-0.75 0.71-0.44 0.3-0.94 0.44-0.51 0.14-1.04 0.11-0.52-0.03-1.01-0.22-0.49-0.2-0.89-0.54t-0.68-0.79q-0.27-0.45-0.38-0.96-0.11-0.52-0.06-1.04 0.06-0.52 0.28-1t0.58-0.86 0.83-0.63q0.46-0.25 0.98-0.33 0.52-0.09 1.04 0 0.52 0.08 0.99 0.33 0.46 0.24 0.82 0.62 0.37 0.39 0.59 0.86 0.22 0.48 0.28 1.01 0.05 0.52-0.06 1.03-0.11 0.52-0.38 0.97t-0.67 0.79q-0.41 0.34-0.89 0.54-0.49 0.19-1.02 0.22-0.52 0.03-1.03-0.11t-0.95-0.44q-0.43-0.29-0.75-0.71t-0.49-0.92-0.17-1.02q0-0.53 0-0.53t1.61-2.82q1.6-2.83 3.35-3.88 1.76-1.06 2.97-1.47 1.22-0.4 3.04-0.41 1.83 0 2.9-0.01t2.24-0.03q1.16-0.03 2.88-0.01 1.72 0.01 3.77 0.03 2.04 0.03 3.12 0.08 1.09 0.05 2.32 0.25 1.22 0.19 2.49 1.25 1.28 1.05 3.13 1.6 1.86 0.54 3.34 1.13 1.48 0.58 2.44 1.23 0.97 0.65 2.42 2.47 1.44 1.81 1.8 4.02t0.16 3.78q-0.21 1.57-1.19 3.89-0.97 2.32-1.7 3.39t-2.38 2.13-2.78 2.06-2.36 1.48q-1.24 0.48-2.66 0.8t-2.62 0.32q-1.19-0.01-2.62 0.02-1.44 0.03-2.78 0.05-1.34 0.01-2.46 0.01-1.13-0.01-2.42-0.01-1.3 0.01-3.36-0.08-2.05-0.08-3.16-0.2-1.1-0.12-2.8-0.76t-3.04-0.97q-1.35-0.34-2.83-0.98-1.47-0.64-2.61-1.36-1.14-0.73-2.99-2.31-1.85-1.57-2.88-2.64-1.04-1.07-1.65-2.19-0.62-1.13-1.53-2.48-0.92-1.34-1.81-2.73-0.88-1.39-1.48-3.16-0.59-1.78-0.47-3.07 0.11-1.29 0.28-2.9 0.16-1.6 0.49-3.31 0.32-1.7 0.99-3.59 0.67-1.88 1.89-3.85 1.21-1.97 2.27-4.2 1.05-2.22 2.69-4.39 1.64-2.16 2.93-3.86 1.28-1.7 2.83-3.46 1.54-1.77 2.87-3.26 1.33-1.5 2.68-2.55 1.36-1.06 2.92-2.38t2.76-1.9 2.91-1.41q1.72-0.84 3.37-1.14t2.81-0.22q1.17 0.08 2.66 0.28 1.5 0.21 2.48 0.62t2.85 1.29q1.86 0.87 3.91 1.98t3.75 1.96q1.69 0.84 2.98 2.34 1.3 1.5 1.9 2.7t1.25 2.74 1.81 3.38 1.41 3.56q0.25 1.73 0.09 3.07t-0.54 3.3-1.36 3.36q-0.98 1.39-1.97 1.93t-2.06 0.89q-1.06 0.35-3.24 1.63t-4.75 1.97q-2.57 0.7-2.84 0.73-0.26 0.02-0.52-0.02-0.27-0.03-0.52-0.13-0.25-0.11-0.46-0.26-0.22-0.16-0.39-0.37-0.18-0.2-0.3-0.44t-0.18-0.51q-0.05-0.26-0.05-0.52 0.01-0.26 0.08-0.52t0.2-0.5q0.13-0.23 0.31-0.43 0.19-0.2 0.41-0.34 0.22-0.15 0.48-0.24 0.25-0.09 0.25-0.09z"/>
  </g>
  <g transform="matrix(.52917 0 0 .52917 109.5 164.33)">
   <path d="m1.81 0t0.07 1.43q0.06 1.44 0.06 3.2t0.03 3.37q0.02 1.61-0.07 3.74-0.09 2.12-0.45 4.56t-0.82 5.18q-0.47 2.73-0.66 4.98-0.2 2.24-0.3 4.34t-0.04 3.57q0.07 1.47 0.15 2.67 0.09 1.2 0.17 2.28 0.07 1.08 0.21 2.84t0.22 2.82q0.09 1.06 1.75 1.06 1.65-0.01 3.48-0.23 1.83-0.21 3.43-1.45 1.6-1.23 2.63-2.82 1.03-1.58 1.66-3.6t0.78-4.37q0.14-2.35 0.2-3.83 0.05-1.49-0.46-2.88t-0.53-1.72q-0.01-0.33 0.05-0.66t0.2-0.63q0.14-0.31 0.35-0.57t0.47-0.46q0.27-0.2 0.57-0.34 0.31-0.13 0.64-0.19t0.66-0.03q0.33 0.02 0.65 0.12t0.6 0.28q0.29 0.17 0.52 0.41 0.24 0.24 0.41 0.53t0.26 0.61q0.1 0.32-0.06 2.58-0.15 2.26-0.31 4.54-0.16 2.29-0.57 5.08-0.41 2.8-0.58 4.76-0.18 1.97-0.16 3.38 0.01 1.4 1.13 0.42 1.13-0.98 1.85-1.92t1.77-2.66 1.23-3.02q0.19-1.29 0.68-3.2t0.61-3.18q0.13-1.26 0.15-2.35t0-2.28 0.03-1.5q0.04-0.3 0.16-0.59 0.12-0.28 0.3-0.53t0.42-0.45q0.23-0.19 0.51-0.33 0.28-0.13 0.58-0.2 0.3-0.06 0.61-0.06 0.31 0.01 0.6 0.1 0.3 0.08 0.57 0.23t0.49 0.36q0.23 0.21 0.39 0.47 0.17 0.26 0.27 0.55t0.13 0.6q0.03 0.3 0.58 2.9 0.55 2.59 0.71 4.44 0.15 1.85 0.23 3.51t0.15 2.94q0.08 1.28 0.14 2.4 0.07 1.13 0.39 2.85 0.33 1.72 0.96 3.31 0.64 1.59 1.53 2.56 0.9 0.97-0.37 0.69-1.28-0.28-0.8-2.07 0.47-1.8 0.62-3.38 0.15-1.59 0.53-3 0.38-1.42 0.55-2.73 0.16-1.3 0.33-3.05 0.17-1.76 0.32-3.66 0.14-1.9 0.3-4.44 0.16-2.53 0.27-4.75 0.12-2.22-0.34-4.1-0.46-1.87-0.69-4.04-0.22-2.18-0.31-4.25-0.08-2.08-0.21-3.53-0.13-1.44-0.16-3.22-0.04-1.78-0.09-3.39-0.04-1.61-0.08-3.15-0.05-1.55-0.18-3.76-0.13-2.22-0.18-4.15-0.06-1.93 0-2.31t0.24-0.71q0.18-0.34 0.46-0.6 0.27-0.26 0.62-0.42t0.72-0.2q0.38-0.04 0.75 0.04 0.38 0.08 0.7 0.28 0.33 0.19 0.57 0.48 0.25 0.29 0.39 0.65 0.14 0.35 0.16 0.73t-0.08 0.75q-0.1 0.36-0.31 0.68-0.22 0.31-0.52 0.54t-0.66 0.36q-0.36 0.12-0.74 0.12-0.39 0-0.75-0.12-0.36-0.13-0.66-0.36t-0.52-0.54q-0.21-0.32-0.31-0.68-0.1-0.37-0.08-0.75t0.16-0.73q0.14-0.36 0.39-0.65 0.24-0.29 0.57-0.48 0.32-0.2 0.7-0.28 0.37-0.08 0.75-0.04 0.37 0.04 0.72 0.2t0.62 0.42q0.28 0.26 0.46 0.6 0.18 0.33 0.24 0.71t0.06 0.37q0 0-0.05 1.94-0.06 1.93-0.19 4.14-0.12 2.21-0.16 3.75-0.03 1.55-0.07 3.14-0.03 1.61-0.03 3.35 0.01 1.74-0.03 3.16-0.04 1.41 0.08 3.37t0.38 3.87q0.27 1.91 0.95 4.24 0.69 2.32 0.8 4.56 0.1 2.25 0.24 4.8 0.14 2.56 0.23 4.51 0.1 1.96 0.16 3.87t-0.28 4.56-0.58 4.94q-0.23 2.29-0.6 3.88-0.36 1.6-1.08 2.79-0.72 1.2-1.67 1.78-0.95 0.59-2.56 0.73t-2.36-0.65q-0.74-0.79-1.44-1.61-0.7-0.83-1.36-2.38-0.66-1.54-1.14-2.54-0.49-0.99-0.75-3.4-0.27-2.41-0.23-3.51 0.04-1.09 0.05-2.33 0.01-1.23-0.06-2.77t-0.26-3.17q-0.2-1.63-0.71-3.46-0.51-1.84-0.86-3.11-0.35-1.28-0.3-1.59 0.04-0.3 0.16-0.59 0.12-0.28 0.3-0.53t0.42-0.45q0.23-0.19 0.51-0.33 0.28-0.13 0.58-0.2 0.3-0.06 0.61-0.06 0.31 0.01 0.6 0.1 0.3 0.08 0.57 0.23t0.49 0.36q0.23 0.21 0.39 0.47 0.17 0.26 0.27 0.55t0.13 0.59q0.03 0.31 0 0.48-0.04 0.16-0.11 1.27-0.07 1.1-0.19 2.32t-0.33 2.68q-0.2 1.46-0.49 3.26-0.3 1.79-0.6 3.81t-1.75 4.21q-1.44 2.19-2.53 3.5-1.09 1.32-1.98 1.97-0.88 0.64-2.68 1.54t-3.27 0.41q-1.48-0.49-1.96-2.56-0.49-2.08-0.37-3.53 0.11-1.45 0.18-3.51 0.08-2.05 0.25-4.65t0.03-4.9q-0.13-2.3-0.25-4.06-0.11-1.77-0.13-2.1-0.01-0.33 0.05-0.66t0.2-0.63q0.14-0.31 0.35-0.57t0.47-0.46q0.27-0.2 0.57-0.34 0.31-0.13 0.64-0.19t0.66-0.03q0.33 0.02 0.65 0.12t0.6 0.28q0.29 0.17 0.52 0.41 0.24 0.24 0.41 0.53t0.26 0.61q0.1 0.32-0.81-0.55-0.92-0.86 0.09 0.55 1 1.4 1.3 2.72 0.3 1.31 0.32 2.87 0.01 1.57-0.12 4.24t-0.45 4.7q-0.32 2.02-0.92 3.1-0.59 1.08-1.28 2.18t-1.63 2.26q-0.95 1.16-2.14 2.16-1.19 1.01-2.72 1.9t-3.15 1.24-3.58 0.26q-1.96-0.08-3.11-0.29-1.13-0.21-2.58-1.55t-1.92-2.5q-0.47-1.15-0.38-2.37 0.09-1.21 0.23-2.98 0.15-1.77 0.24-2.86 0.09-1.1 0.21-2.31 0.11-1.21 0.23-2.7 0.13-1.48 0.18-3.65 0.05-2.16 0.19-4.52 0.15-2.37 0.51-5.07 0.35-2.71 0.57-4.95 0.21-2.23 0.12-4.36-0.09-2.12-0.07-3.73 0.03-1.61 0.03-3.37t0.06-3.2q0.07-1.43 0.09-1.64 0.03-0.22 0.11-0.42 0.08-0.21 0.2-0.39t0.29-0.33q0.16-0.14 0.36-0.24 0.19-0.1 0.4-0.16 0.22-0.05 0.43-0.05t0.43 0.05q0.21 0.06 0.4 0.16 0.2 0.1 0.36 0.24 0.17 0.15 0.29 0.33t0.2 0.39q0.08 0.2 0.11 0.42 0.02 0.21 0.02 0.21z"/>
  </g>
  <g transform="matrix(.52917 0 0 .52917 129.61 180.74)">
   <path d="m-2.37-0.94t0.61-1.44q0.6-1.43 1.55-2.86 0.94-1.42 1.95-2.61 1-1.18 2.14-2.12 1.13-0.94 2.2-1.63t2.37-1.95q1.29-1.27 2.86-1.73 1.57-0.47 2.7-0.29 1.13 0.17 3 1.25 1.86 1.09 3.21 3.15t1.52 3.26q0.18 1.19 0.2 2.57 0.03 1.38 0.01 2.81-0.03 1.43-0.03 2.61 0 1.19-0.33 2.64-0.33 1.44-1.25 3.88-0.92 2.45-1.89 3.58-0.96 1.13-2.15 2.99-1.19 1.87-2.28 2.63-1.1 0.77-2.86 1.4-1.77 0.62-3.2 1.12t-3.65 0.68-2.73 0.11-0.97-0.29q-0.47-0.23-0.82-0.59-0.37-0.37-0.6-0.83t-0.3-0.97 0.03-1.02q0.09-0.5 0.34-0.95 0.26-0.45 0.64-0.8 0.37-0.34 0.84-0.55 0.48-0.2 0.99-0.25 0.51-0.04 1.01 0.08t0.94 0.4q0.43 0.28 0.76 0.68 0.32 0.4 0.5 0.88t0.2 1q0.01 0.52-0.14 1.01t-0.45 0.91-0.71 0.72q-0.42 0.3-0.91 0.46-0.5 0.15-1.01 0.14-0.52-0.01-1-0.19t-0.89-0.5q-0.39-0.32-0.67-0.75-0.28-0.44-0.4-0.94-0.13-0.5-0.09-1.01t0.24-0.99q0.21-0.47 0.55-0.86 0.34-0.38 0.78-0.64 0.45-0.25 0.95-0.35 0.51-0.1 0.51-0.1t1.33 0.17 2.36-0.39q1.04-0.56 2.57-0.74 1.52-0.18 2.61-0.8t1.65-1.98q0.57-1.36 1.71-2.71 1.15-1.35 1.53-3.22 0.38-1.88 0.37-3.02-0.02-1.14-0.08-2.5-0.07-1.36-0.05-3.35 0.02-2-0.71-2.8t-1.99-1.14q-1.26-0.35-2.27 0.7t-2.71 2.13q-1.7 1.07-2.54 2.04-0.84 0.98-1.53 1.92-0.69 0.95-1.24 2.39-0.54 1.43-0.69 1.7t-0.36 0.5-0.46 0.4q-0.26 0.17-0.55 0.27-0.29 0.11-0.59 0.14t-0.61-0.01q-0.3-0.05-0.59-0.16-0.28-0.12-0.53-0.29-0.25-0.18-0.45-0.42-0.2-0.23-0.34-0.51-0.14-0.27-0.21-0.57t-0.06-0.6q0.01-0.31 0.08-0.61 0.08-0.29 0.08-0.29z"/>
  </g>
 </g>
</svg>
