<?xml version="1.0" encoding="UTF-8"?>
<!-- Created with Inkscape (http://www.inkscape.org/) -->
<svg width="67.892mm" height="33.393mm" version="1.1" viewBox="0 0 67.892 33.393" xmlns="http://www.w3.org/2000/svg">
 <g transform="translate(-35.972 -181.81)">
  <g transform="matrix(.52917 0 0 .52917 55.328 196.74)">
   <path d="m-0.53-1.61t1.69-0.58q1.7-0.58 2.85-2.49t1.46-4.25-0.07-5.26-1.31-5.19-2.28-3.35-3.73-1.54q-2.4-0.45-5.17-0.7t-5.55 0.2q-2.77 0.45-5.58 1.73-2.81 1.29-5.7 3.24t-5.19 4.41-3.21 5.07q-0.9 2.61-1.31 5.4-0.4 2.8-0.3 6.19 0.1 3.41 1.52 6.4t3.42 5.69q1.99 2.69 4.47 4.62 2.47 1.93 5.69 2.99t7.11 1.53q3.89 0.46 6.54-0.18 2.64-0.64 3.91-1.47t-0.28-1.5q-1.56-0.66-3.27-1.47-1.7-0.81-2.98-1.38-1.28-0.58-2.41-0.72-1.13-0.15-2.47-0.23-1.33-0.08-3.11-0.14-1.78-0.07-1.82-0.21-0.04-0.15-0.35-0.2-0.31-0.04-0.6-0.16-0.3-0.12-0.55-0.31-0.26-0.19-0.46-0.43t-0.34-0.53q-0.14-0.28-0.2-0.59-0.07-0.31-0.06-0.62 0.01-0.32 0.09-0.62 0.09-0.31 0.24-0.58 0.16-0.28 0.37-0.51 0.22-0.23 0.48-0.4 0.27-0.17 0.57-0.28 0.3-0.1 0.61-0.13t3.32-0.04q3-0.02 6.44-0.48 3.43-0.45 7.29-0.9 3.84-0.45 6.75-1.43t4.89-1.47q1.97-0.48 3.36-0.3 1.39 0.17 2.23 1.06 0.84 0.88 1.14 2.65 0.3 1.76 0.39 3.29 0.1 1.52 0.09 3.32 0 1.81-0.1 4.01t-0.17 4.85q-0.08 2.66 0.5 5.47 0.57 2.8 0.57 3.11t-0.09 0.61q-0.1 0.3-0.29 0.54-0.19 0.25-0.44 0.43-0.26 0.17-0.56 0.26-0.3 0.08-0.61 0.07-0.31-0.02-0.6-0.13t-0.52-0.31q-0.24-0.2-0.4-0.47-0.17-0.26-0.23-0.57-0.07-0.3-0.04-0.61t0.16-0.59 0.34-0.51 0.49-0.38q0.27-0.14 0.58-0.19 0.3-0.06 0.61-0.01t0.58 0.19q0.28 0.15 0.49 0.37 0.22 0.23 0.35 0.51t0.17 0.59q0.03 0.31-0.03 0.61-0.07 0.31-0.22 0.57-0.16 0.27-0.4 0.47-0.24 0.21-0.52 0.32-0.29 0.12-0.6 0.14t-0.61-0.07q-0.3-0.08-0.56-0.25t-0.45-0.42-0.29-0.54-0.1-0.29-0.43-3.12q-0.44-3.12-0.52-5.78-0.09-2.65-0.21-4.83t-0.17-3.92q-0.06-1.74-0.08-3.14-0.03-1.4-0.07-2.8-0.03-1.41-1.8-0.96-1.78 0.44-4.99 1.65-3.22 1.2-6.99 1.84-3.79 0.63-7.5 1.37-3.72 0.74-6.85 1.08-3.14 0.34-3.45 0.29-0.31-0.04-0.6-0.16-0.3-0.12-0.55-0.31-0.26-0.19-0.46-0.43t-0.34-0.53q-0.14-0.28-0.2-0.59-0.07-0.31-0.06-0.62 0.01-0.32 0.09-0.62 0.09-0.31 0.24-0.58 0.16-0.28 0.37-0.51 0.22-0.23 0.48-0.4 0.27-0.17 0.57-0.27 0.29-0.11 0.61-0.14 0.31-0.03 0.85 0.42 0.53 0.44 1.91 0.51t2.96 0.2q1.57 0.14 3.24 0.5 1.67 0.37 2.91 0.99t2.76 1.28q1.53 0.66 3.38 1.49 1.87 0.84 2.59 2.88 0.72 2.03-0.26 3.2-0.98 1.18-2.71 2.05-1.74 0.88-4.83 1.54-3.08 0.67-7.26 0.15-4.18-0.53-7.77-1.79-3.6-1.26-6.33-3.44-2.73-2.19-4.87-5.12t-3.68-6.39q-1.54-3.47-1.64-7.15-0.1-3.67 0.36-6.72 0.47-3.06 1.63-6.09 1.15-3.04 3.69-5.74t5.63-4.77q3.09-2.08 6.23-3.49t6.26-1.9q3.12-0.5 6.08-0.26 2.96 0.23 5.95 0.92 2.98 0.69 4.82 2.29 1.85 1.6 3.02 4.3t1.69 6.05q0.51 3.36 0.2 6.32t-1.29 4.76q-0.98 1.81-2.33 2.73-1.35 0.91-3.1 1.48t-1.95 0.61-0.39 0.03q-0.21-0.01-0.41-0.06-0.19-0.06-0.37-0.16-0.18-0.11-0.33-0.25-0.14-0.14-0.25-0.31-0.11-0.18-0.18-0.37-0.06-0.2-0.08-0.4-0.01-0.19 0.02-0.4 0.03-0.2 0.11-0.39t0.21-0.35q0.12-0.16 0.28-0.29t0.34-0.22q0.19-0.09 0.19-0.09z"/>
  </g>
  <g transform="matrix(.52917 0 0 .52917 60.619 211.02)">
   <path d="m-0.31-3.32t2.73-0.52q2.75-0.51 4.96-1.76 2.22-1.24 4.39-3.11 2.16-1.86 4.02-4.51 1.87-2.64 3.4-5.94 1.53-3.29 2.42-6.84 0.88-3.55 1.53-6.22 0.64-2.66 0.91-5.37 0.26-2.72 0.35-4.72 0.1-2 0.08-3.64t-0.84-2.36q-0.81-0.73-1.17 0.92-0.36 1.64-1.14 3.13-0.77 1.5-1.32 2.91-0.54 1.41-0.76 3.64-0.21 2.23-0.52 3.79-0.31 1.55-0.41 2.84t-0.26 3.22q-0.15 1.92-0.25 3.86-0.1 1.95-0.1 3.61-0.01 1.66-0.04 3.48t-0.06 3.7q-0.04 1.89-0.07 3.8t0.23 3.41q0.26 1.51 0.64 2.61t1.96 1.49q1.58 0.4 3.6-0.87 2.03-1.26 3.54-2.84t2.65-3.52q1.14-1.93 1.89-4.31 0.75-2.39 1.01-3.97 0.27-1.58 0.09-2.88t-0.27-2.81q-0.09-1.5 0.87-2.01 0.97-0.52 1.3 1.87t0.25 4.26-0.2 4.06q-0.13 2.18 0.04 4.11t0.56 3.23 0.82 2.33q0.43 1.04 0.73-0.3 0.3-1.33 1.49-2.98 1.2-1.64 1.87-3.23 0.68-1.6 0.97-3.27t0.45-3.49q0.15-1.82 0.12-2.9t-0.13-2.66q-0.11-1.57-0.12-1.66-0.01-0.1 0.03-0.38t0.14-0.55q0.11-0.27 0.27-0.5 0.17-0.23 0.38-0.42 0.22-0.19 0.47-0.32 0.26-0.13 0.54-0.19 0.27-0.07 0.56-0.06 0.29 0 0.56 0.07 0.28 0.07 0.53 0.21 0.25 0.13 0.46 0.33 0.22 0.19 0.38 0.43 0.16 0.23 0.25 0.5 0.1 0.27 0.13 0.55 0.04 0.29 0.61 2.56t0.73 3.97q0.16 1.69 0.41 3.39t0.56 3.55q0.32 1.85 0.72 3.43t0.83 3.08q0.43 1.49 1.35 2.08 0.91 0.58 2.44 0.54 1.52-0.05 3.15-0.95t2.46-2.07q0.82-1.16 1.76-3.44t1.66-4.9 1.06-5.61q0.34-2.98 0.51-6.2 0.18-3.23 0.27-6.83 0.09-3.59 0.15-6.24 0.05-2.64-0.16-4.8-0.21-2.15-0.64-3.55-0.42-1.4-0.84-2.42-0.41-1.02-1.5 1.02-1.08 2.05-1.38 4.29-0.31 2.24-0.49 5.17-0.18 2.92-0.28 5.84-0.11 2.93-0.17 6.11-0.07 3.19 0.14 5.87t0.53 5.49q0.33 2.82 0.46 5.18 0.14 2.36 0.44 4.69 0.29 2.33 0.71 4.11 0.42 1.79 0.91 3.02 0.49 1.25 1.44 1.79 0.96 0.54 1.36-0.45 0.41-0.98 0.96-2.55 0.56-1.58 0.88-4.11 0.33-2.53 0.52-4.76 0.19-2.24-0.05-3.6-0.25-1.36-0.41-2.58-0.15-1.21 0.79-0.59 0.95 0.62 1.94 1.9t2.75 0.55q1.76-0.72 5.16-2.08t3.38-0.92q-0.03 0.45-0.19 0.86-0.17 0.42-0.46 0.76t-0.67 0.57q-0.39 0.23-0.82 0.32-0.44 0.1-0.89 0.05-0.44-0.05-0.85-0.24-0.4-0.19-0.73-0.5-0.32-0.3-0.53-0.7-0.21-0.39-0.28-0.84-0.07-0.44 0-0.88 0.08-0.44 0.29-0.83 0.21-0.4 0.53-0.71 0.33-0.3 0.74-0.49 0.4-0.19 0.85-0.23 0.44-0.05 0.88 0.05 0.43 0.09 0.82 0.33 0.38 0.23 0.67 0.57t0.45 0.76q0.17 0.41 0.19 0.86 0.02 0.44-0.1 0.88-0.12 0.43-0.37 0.8-0.25 0.36-0.61 0.63t-0.78 0.42q-0.42 0.14-0.87 0.14t-0.87-0.15q-0.43-0.14-0.78-0.41-0.36-0.28-0.61-0.65t-0.36-0.8q-0.12-0.43-0.12-0.43t1.91 1.93q1.92 1.94 0.7 3.43-1.22 1.5-2.93 2.32t-3.43 0.94q-1.73 0.11-3.31-0.59-1.58-0.69-2.26-1.54-0.68-0.84-1.48-2.01-0.8-1.18-1.31-2.75-0.52-1.57-0.06-3.2t1.51-2.23 3.13 0.23q2.09 0.82 2.48 1.81 0.4 0.99 0.42 2.18t0.18 2.89q0.16 1.69 0.14 4.02-0.02 2.34-0.19 5.33t-0.78 5.22q-0.62 2.24-1.88 3.87-1.27 1.63-3.11 1.92-1.83 0.29-3.17-0.33-1.34-0.63-1.93-2.29t-0.92-3.1q-0.33-1.42-0.68-3.33-0.35-1.9-0.68-4.32t-0.49-4.69q-0.17-2.28-0.55-5.14t-0.65-5.68q-0.28-2.81-0.31-6.02-0.03-3.2-0.05-6.16-0.02-2.95 0-6.01 0.02-3.05 0.18-5.71 0.16-2.67 0.76-4.84 0.61-2.16 1.79-3.41t3.29-0.94 2.99 1.25q0.88 0.95 1.26 2.32 0.38 1.38 0.66 2.99 0.28 1.62 0.55 3.94t0.28 4.97q0.01 2.66 0 6.29 0 3.64-0.06 6.96t-0.27 6.59q-0.22 3.26-0.79 6.18-0.58 2.91-1.51 5.82-0.94 2.9-2.18 4.77t-2.95 3.08q-1.72 1.22-3.26 1.54-1.55 0.32-2.64 0.28t-2.59-0.31-2.93-1.48q-1.43-1.2-1.87-2.35-0.45-1.14-0.87-2.69-0.42-1.56-0.84-3.24-0.43-1.67-0.88-3.56-0.45-1.88-0.83-3.74-0.37-1.86-0.52-3.31-0.14-1.44-0.52-3.03-0.38-1.6-0.64-2.78-0.27-1.18-0.23-1.46t0.14-0.55q0.11-0.27 0.27-0.5 0.17-0.23 0.38-0.42 0.22-0.19 0.47-0.32 0.26-0.13 0.54-0.19 0.27-0.07 0.56-0.06 0.29 0 0.56 0.07 0.28 0.07 0.53 0.21 0.25 0.13 0.46 0.33 0.22 0.19 0.38 0.43 0.16 0.23 0.25 0.5 0.1 0.27 0.13 0.55 0.04 0.29 0.02 0.38t-0.19 1.74q-0.18 1.66-0.31 2.76-0.14 1.1-0.24 3.11t-0.42 4.11q-0.31 2.1-1.05 4.15-0.75 2.05-1.72 3.75-0.98 1.69-2.08 3.36-1.1 1.66-2.43 2.15-1.32 0.5-3.23-0.85-1.91-1.34-2.28-2.63t-0.69-2.84-0.65-3.7q-0.33-2.16-0.45-4.35t-0.18-4.07q-0.07-1.88-0.13-3.71t0.05-3.01q0.1-1.18 1.56-2.23 1.45-1.05 3.03 1.04 1.59 2.08 1.59 3.56 0.01 1.47 0.06 3.24 0.05 1.78-0.32 3.51-0.37 1.74-1.11 4.54t-1.94 5.21q-1.2 2.42-2.84 4.52-1.64 2.11-3.29 3.39-1.64 1.29-3.55 1.94-1.9 0.65-3.09 0.57-1.19-0.09-2.97-1.14-1.79-1.06-2.33-2.29-0.55-1.22-0.88-2.64-0.33-1.41-0.56-3.2-0.24-1.79-0.27-3.71t-0.07-3.8q-0.03-1.89-0.05-3.72-0.02-1.82-0.01-3.5 0.02-1.67-0.04-3.65-0.05-1.98-0.1-4.05-0.05-2.08 0.1-3.65t0.43-2.82q0.28-1.26 0.42-2.74 0.15-1.48 0.48-2.85 0.34-1.36 0.94-2.97 0.61-1.6 1.36-3.27t1.36-2.68q0.61-1 1.41-2 0.81-1.01 2.28-1.32 1.48-0.32 2.91 0.85t1.89 2.55 0.34 3.13-0.26 3.8-0.42 4.95q-0.28 2.89-0.92 5.58-0.64 2.68-1.6 6.47-0.96 3.8-2.59 7.31-1.64 3.52-3.71 6.44-2.06 2.91-4.45 4.98-2.38 2.06-4.99 3.51-2.61 1.46-5.36 2.05-2.75 0.6-2.94 0.61-0.18 0.02-0.37-0.01t-0.36-0.11q-0.18-0.07-0.33-0.19-0.16-0.11-0.28-0.26t-0.2-0.32q-0.08-0.18-0.12-0.36-0.04-0.19-0.03-0.38t0.06-0.38q0.06-0.18 0.15-0.34 0.1-0.17 0.23-0.31t0.3-0.24q0.16-0.1 0.34-0.16t0.18-0.06z"/>
  </g>
 </g>
</svg>
