<?xml version="1.0" encoding="UTF-8"?>
<!-- Created with Inkscape (http://www.inkscape.org/) -->
<svg width="20.302mm" height="14.098mm" version="1.1" viewBox="0 0 20.302 14.098" xmlns="http://www.w3.org/2000/svg">
 <g transform="translate(-131.22 -214)">
  <g transform="matrix(.52917 0 0 .52917 136.09 225.88)">
   <path d="m-2.28 0t0.13-2.3 0.22-5.57q0.1-3.28 0.46-5.44t1.15-3.43q0.78-1.27 1.68-2.31 0.89-1.04 2.21-1.74 1.32-0.69 3.51-0.62 2.2 0.08 2.57 0.19 0.36 0.1 0.67 0.32 0.32 0.22 0.54 0.52 0.23 0.31 0.35 0.67 0.11 0.37 0.11 0.75-0.01 0.38-0.13 0.74-0.13 0.36-0.36 0.66-0.24 0.3-0.56 0.51-0.32 0.2-0.68 0.3-0.37 0.1-0.75 0.07-0.38-0.02-0.73-0.17-0.36-0.14-0.64-0.39-0.29-0.26-0.48-0.58-0.19-0.33-0.27-0.71-0.08-0.37-0.03-0.75t0.21-0.72 0.43-0.62q0.27-0.27 0.6-0.44 0.34-0.18 0.72-0.23 0.38-0.06 0.75 0.01 0.38 0.06 0.71 0.25 0.33 0.18 0.59 0.46t0.42 0.63q0.15 0.35 0.19 0.73 0.03 0.37-0.05 0.75-0.09 0.37-0.29 0.69t-0.5 0.57q-0.29 0.24-0.64 0.37-0.36 0.14-0.74 0.16-0.38 0.01-0.38 0.01t-1.77-0.24q-1.77-0.25-3.23 0.97-1.45 1.23-1.66 3.01-0.22 1.77-0.12 5.05 0.09 3.27 0.22 5.57t0.1 2.57q-0.04 0.27-0.13 0.53-0.1 0.26-0.26 0.48-0.15 0.23-0.36 0.41-0.21 0.19-0.45 0.31-0.24 0.13-0.51 0.2-0.27 0.06-0.54 0.06t-0.54-0.06q-0.27-0.07-0.51-0.2-0.24-0.12-0.45-0.31-0.21-0.18-0.36-0.41-0.16-0.22-0.26-0.48-0.09-0.26-0.13-0.53-0.03-0.27-0.03-0.27z"/>
  </g>
  <g transform="matrix(.52917 0 0 .52917 135.03 221.65)">
   <path d="m0-2.29t2.01 0.1q2.01 0.09 3.44 0.06 1.43-0.04 2.99-0.1 1.56-0.07 1.92-0.01 0.37 0.06 0.7 0.24 0.33 0.17 0.59 0.44 0.25 0.27 0.41 0.61t0.2 0.71q0.04 0.36-0.04 0.72-0.08 0.37-0.28 0.69-0.19 0.32-0.47 0.56-0.29 0.24-0.63 0.38-0.35 0.14-0.72 0.16t-0.73-0.08-0.67-0.31-0.54-0.51q-0.22-0.3-0.34-0.65t-0.12-0.72 0.12-0.72 0.34-0.65q0.23-0.3 0.54-0.51t0.67-0.31 0.73-0.08 0.72 0.16q0.34 0.14 0.63 0.38 0.28 0.24 0.47 0.56 0.2 0.32 0.28 0.69 0.08 0.36 0.04 0.72-0.04 0.37-0.2 0.71t-0.41 0.61q-0.26 0.27-0.59 0.44-0.33 0.18-0.7 0.24t-0.37 0.06q0.01 0-1.55-0.07-1.56-0.06-2.99-0.1-1.43-0.03-3.44 0.06-2.01 0.1-2.28 0.07-0.27-0.04-0.53-0.13-0.26-0.1-0.49-0.26t-0.41-0.36q-0.19-0.21-0.31-0.46-0.13-0.24-0.2-0.51-0.06-0.27-0.06-0.54t0.06-0.54q0.07-0.27 0.2-0.51 0.12-0.25 0.31-0.46 0.18-0.2 0.41-0.36t0.49-0.26 0.53-0.13 0.27-0.03z"/>
  </g>
  <g transform="matrix(.52917 0 0 .52917 143.5 216.35)">
   <path d="m2.39-0.29t0.14 2.3q0.15 2.32 0.24 4.23 0.09 1.9 0.19 3.28 0.1 1.39 0.26 4.43 0.15 3.04 0.09 3.42t-0.24 0.72-0.45 0.6q-0.28 0.27-0.63 0.43-0.35 0.17-0.73 0.21-0.39 0.04-0.76-0.04-0.38-0.08-0.7-0.28-0.33-0.2-0.58-0.49t-0.39-0.65q-0.15-0.36-0.17-0.74t0.08-0.76q0.1-0.37 0.32-0.69 0.21-0.32 0.52-0.55 0.3-0.23 0.66-0.36 0.36-0.12 0.75-0.12 0.38 0 0.75 0.12 0.36 0.12 0.67 0.35t0.52 0.55q0.22 0.32 0.33 0.69 0.1 0.37 0.08 0.76-0.02 0.38-0.16 0.74t-0.39 0.65-0.58 0.49-0.7 0.29q-0.38 0.08-0.76 0.04t-0.73-0.2q-0.34-0.16-0.62-0.43-0.28-0.26-0.47-0.6-0.18-0.34-0.24-0.72t-0.06-0.38 0.07-2.96q0.08-2.97 0.08-4.3t-0.15-3.11q-0.16-1.77-0.59-4.05-0.43-2.29-0.43-2.58 0-0.28 0.07-0.56t0.2-0.54q0.14-0.26 0.33-0.47 0.19-0.22 0.43-0.39 0.24-0.16 0.51-0.27 0.27-0.1 0.56-0.14 0.29-0.03 0.57 0t0.56 0.14q0.27 0.1 0.51 0.26 0.24 0.17 0.43 0.38 0.19 0.22 0.33 0.48 0.13 0.25 0.21 0.53 0.07 0.29 0.07 0.29z"/>
  </g>
  <g transform="matrix(.52917 0 0 .52917 143.5 216.88)">
   <path d="m-2.22-1.48t0.64-0.95 1.94-1.76q1.31-0.81 2.55-1.09 1.25-0.28 3.45-0.1 2.2 0.19 3.85 0.81 1.64 0.62 2.39 1.57 0.75 0.94 1.04 2.21 0.29 1.25 0.34 2.34t-0.35 2.42q-0.4 1.34-1.84 2.74-1.43 1.39-3.26 2.01-1.82 0.63-2.31-1.35t0.68-0.83q1.18 1.14 2.05 2.06 0.88 0.92 2.04 2.44 1.17 1.53 2.68 4 1.5 2.48 1.49 3t-0.18 1.01-0.49 0.9-0.76 0.69q-0.43 0.29-0.93 0.42-0.51 0.13-1.02 0.09-0.52-0.03-1-0.23t-0.87-0.54q-0.39-0.35-0.65-0.79-0.26-0.45-0.37-0.96-0.1-0.51-0.04-1.03 0.07-0.51 0.29-0.98 0.23-0.47 0.59-0.84t0.82-0.61q0.47-0.23 0.98-0.31 0.51-0.07 1.03 0.02 0.51 0.09 0.96 0.34 0.46 0.25 0.81 0.63 0.35 0.39 0.56 0.86t0.26 0.99-0.07 1.02q-0.12 0.51-0.4 0.95-0.27 0.44-0.67 0.77t-0.89 0.51q-0.48 0.19-1 0.21t-1.02-0.13q-0.5-0.14-0.92-0.44-0.43-0.3-0.74-0.72-0.3-0.42-0.46-0.91t-0.16-0.49-0.92-1.37q-0.91-1.37-1.65-2.33-0.74-0.95-1.66-1.83t-2.1-2.13q-1.18-1.26 0.69-4.25 1.88-2.99 3.13-3.43 1.25-0.43 1.7-1.4 0.45-0.98-0.68-1.37-1.14-0.38-2.62-0.4-1.47-0.02-1.98 0.75t-0.72 1.01q-0.21 0.25-0.47 0.44-0.26 0.18-0.56 0.3t-0.62 0.17q-0.32 0.04-0.63 0.01-0.32-0.04-0.63-0.15-0.3-0.11-0.57-0.28-0.27-0.18-0.49-0.42-0.21-0.24-0.37-0.52-0.15-0.29-0.23-0.6-0.09-0.31-0.09-0.63-0.01-0.31 0.07-0.63 0.07-0.31 0.21-0.6 0.15-0.29 0.15-0.29z"/>
  </g>
  <g transform="matrix(.52917 0 0 .52917 132.39 226.94)">
   <path d="m1.57-1.57t0.2 0.3q0.21 0.29 0.32 0.63 0.11 0.35 0.1 0.69-0.01 0.36-0.14 0.7-0.12 0.34-0.35 0.62-0.22 0.28-0.52 0.47-0.31 0.2-0.66 0.28-0.34 0.09-0.69 0.06-0.36-0.03-0.69-0.17t-0.6-0.38-0.44-0.56q-0.18-0.31-0.25-0.66-0.06-0.36-0.02-0.7 0.05-0.36 0.21-0.68t0.42-0.57q0.25-0.26 0.57-0.42t0.68-0.21q0.35-0.04 0.7 0.02 0.35 0.07 0.66 0.25 0.32 0.17 0.56 0.44t0.38 0.6 0.17 0.69q0.03 0.35-0.06 0.69-0.09 0.35-0.28 0.66-0.19 0.3-0.47 0.52-0.28 0.23-0.62 0.35-0.34 0.13-0.7 0.14-0.35 0.01-0.69-0.1t-0.63-0.32q-0.3-0.21-0.3-0.2 0 0-0.16-0.22-0.17-0.21-0.28-0.45t-0.15-0.51q-0.05-0.26-0.04-0.52 0.02-0.27 0.1-0.52 0.08-0.26 0.22-0.49 0.14-0.22 0.33-0.41t0.41-0.33q0.23-0.14 0.49-0.22 0.25-0.08 0.52-0.1 0.26-0.01 0.52 0.04 0.27 0.04 0.51 0.15t0.45 0.28q0.22 0.16 0.22 0.16z"/>
  </g>
 </g>
</svg>
