<?xml version="1.0" encoding="UTF-8"?>
<!-- Created with Inkscape (http://www.inkscape.org/) -->
<svg width="19.964mm" height="14.946mm" version="1.1" viewBox="0 0 19.964 14.946" xmlns="http://www.w3.org/2000/svg">
 <g transform="translate(-220.36 -273.99)">
  <g transform="matrix(.52917 0 0 .52917 225.89 286.72)">
   <path d="m-2.04 0.81t-1.05-2.91q-1.04-2.92-1.49-5.47-0.45-2.56-0.58-4.93t0.68-4.04q0.81-1.66 2.11-3.17 1.3-1.5 2.94-2.35 1.65-0.86 2.96-1.23 1.32-0.38 3.16-0.69 1.85-0.31 5.07 0.67 3.21 0.97 3.56 1.19t0.61 0.54q0.26 0.31 0.41 0.7 0.14 0.38 0.16 0.79 0.01 0.41-0.1 0.81-0.12 0.39-0.36 0.73-0.23 0.33-0.56 0.57-0.33 0.25-0.73 0.37-0.39 0.13-0.8 0.12t-0.79-0.15q-0.39-0.13-0.71-0.39-0.33-0.25-0.55-0.59-0.23-0.35-0.33-0.75-0.1-0.39-0.07-0.8t0.18-0.79q0.16-0.38 0.43-0.69t0.63-0.51q0.36-0.21 0.76-0.29t0.81-0.03 0.77 0.23q0.37 0.18 0.67 0.47 0.29 0.28 0.48 0.65 0.18 0.37 0.24 0.77 0.06 0.41-0.01 0.81-0.07 0.41-0.27 0.77-0.2 0.35-0.5 0.63-0.31 0.28-0.68 0.45-0.38 0.16-0.79 0.2t-0.8-0.06q-0.4-0.09-0.4-0.09t-1.24-0.93q-1.23-0.94-2.94-0.99-1.7-0.05-3.41 0.08-1.7 0.14-2.79 0.46-1.09 0.31-2.9 2.3-1.83 1.99-1.54 3.94 0.29 1.94 0.81 4.13 0.53 2.19 1.78 5.02t1.32 3.08q0.07 0.26 0.08 0.53 0 0.25-0.06 0.51t-0.18 0.5-0.29 0.44-0.39 0.36q-0.21 0.15-0.46 0.25t-0.51 0.14q-0.27 0.03-0.52 0-0.26-0.02-0.52-0.11-0.25-0.09-0.47-0.24t-0.4-0.34q-0.18-0.2-0.31-0.43-0.12-0.24-0.12-0.24z"/>
  </g>
  <g transform="matrix(.52917 0 0 .52917 221.65 281.43)">
   <path d="m0-2.46t2.01 0.12 4.02 0.21q2 0.08 3.14 0.02 1.14-0.07 2.53-0.2 1.39-0.12 3.34-0.16 1.96-0.04 2.36 0.03 0.4 0.06 0.76 0.25t0.64 0.49q0.28 0.29 0.45 0.66t0.21 0.78q0.05 0.39-0.04 0.79t-0.3 0.74q-0.21 0.35-0.52 0.62-0.31 0.26-0.69 0.41-0.37 0.15-0.78 0.17-0.41 0.03-0.8-0.08t-0.73-0.34-0.58-0.55q-0.25-0.33-0.38-0.71-0.13-0.39-0.13-0.79t0.13-0.79q0.13-0.38 0.38-0.71 0.25-0.32 0.58-0.55 0.34-0.23 0.73-0.34t0.8-0.08q0.41 0.02 0.78 0.17 0.38 0.15 0.69 0.41 0.31 0.27 0.52 0.62 0.21 0.34 0.3 0.74t0.04 0.79q-0.04 0.41-0.21 0.78t-0.45 0.66q-0.28 0.3-0.64 0.49t-0.76 0.25q-0.41 0.07-0.41 0.07 0.01 0-1.95-0.04-1.95-0.04-3.34-0.16-1.39-0.13-2.53-0.2-1.14-0.06-3.14 0.02-2.01 0.09-4.02 0.21t-2.3 0.08q-0.29-0.03-0.57-0.14t-0.52-0.27q-0.25-0.17-0.44-0.39-0.2-0.23-0.34-0.49t-0.21-0.55-0.07-0.58 0.07-0.58 0.21-0.55 0.34-0.49q0.19-0.22 0.44-0.39 0.24-0.16 0.52-0.27t0.57-0.14q0.29-0.04 0.29-0.04z"/>
  </g>
  <g transform="matrix(.52917 0 0 .52917 232.77 286.72)">
   <path d="m-2.45 0t0.05-1.72 0.12-3.61q0.08-1.88 0.06-3.31t0.63-3.06 1.57-2.9q0.91-1.27 1.91-2.41 1.01-1.13 2.33-1.88 1.32-0.74 2.93-1.2 1.62-0.45 3.72 0.02t2.81 1.44 0.59 2.74q-0.13 1.77-0.59 3.29-0.47 1.51-1.81 3.14-1.34 1.62-3.27 2.81t-4.48 1.67q-2.55 0.47-4.41 0.65-1.87 0.18-2.93 0.33t-1.22 0.2q-0.15 0.06-0.43 0.05t-0.54-0.09q-0.27-0.08-0.51-0.22t-0.44-0.33q-0.2-0.2-0.35-0.43-0.15-0.24-0.24-0.5-0.09-0.27-0.11-0.55-0.02-0.27 0.02-0.55 0.05-0.27 0.16-0.53t0.28-0.48 0.38-0.4q0.22-0.17 0.47-0.29t0.53-0.18q0.27-0.05 1.46-0.07t2.51-0.04q1.3-0.01 2.73-0.02 1.43 0 2.96 0.33 1.52 0.32 2.81 1.24 1.28 0.91 3.17 3.66t2.06 3.16q0.17 0.4 0.2 0.84 0.04 0.44-0.07 0.87t-0.36 0.8q-0.24 0.37-0.58 0.64-0.35 0.27-0.77 0.42-0.41 0.15-0.85 0.16-0.45 0.01-0.87-0.12-0.42-0.14-0.78-0.4-0.35-0.26-0.61-0.62-0.25-0.36-0.38-0.79-0.12-0.42-0.11-0.86 0.02-0.44 0.17-0.86 0.16-0.4 0.44-0.74t0.65-0.58q0.38-0.23 0.81-0.34 0.43-0.1 0.87-0.06t0.84 0.22q0.41 0.18 0.73 0.47 0.33 0.3 0.54 0.69 0.22 0.37 0.3 0.81 0.08 0.43 0.01 0.87-0.06 0.44-0.26 0.83-0.2 0.4-0.52 0.71-0.31 0.31-0.71 0.5t-0.83 0.25q-0.44 0.06-0.88-0.03-0.43-0.09-0.81-0.31t-0.68-0.55q-0.29-0.33-0.29-0.33t-1.28-2.28q-1.27-2.27-2.4-3.01-1.13-0.73-2.55-0.74-1.42 0-3.73-0.08t-2.59-0.09-0.54-0.09q-0.27-0.08-0.51-0.22t-0.44-0.33q-0.2-0.2-0.35-0.43-0.15-0.24-0.24-0.5-0.09-0.27-0.11-0.55-0.02-0.27 0.02-0.55 0.05-0.27 0.16-0.53t0.28-0.48 0.38-0.4q0.22-0.17 0.47-0.29t0.53-0.18q0.27-0.05 1.43-0.08 1.16-0.02 2.81-0.23 1.64-0.2 3.31-0.63 1.68-0.43 3.61-2.01 1.93-1.59 2.31-2.77t-0.75-0.99q-1.14 0.2-1.98 1.13-0.84 0.92-2.06 2.47t-1.24 2.88q-0.02 1.32 0.06 3.2 0.07 1.89 0.12 3.61t0.01 2.01-0.14 0.57q-0.11 0.27-0.27 0.52-0.17 0.24-0.39 0.44-0.22 0.19-0.48 0.33-0.27 0.14-0.55 0.21-0.29 0.07-0.58 0.07t-0.58-0.07q-0.28-0.07-0.55-0.21-0.26-0.14-0.48-0.33-0.22-0.2-0.39-0.44-0.16-0.25-0.27-0.52-0.1-0.28-0.14-0.57t-0.04-0.29z"/>
  </g>
  <g transform="matrix(.52917 0 0 .52917 221.65 287.78)">
   <path d="m1.57-1.57t0.2 0.3q0.21 0.29 0.32 0.63 0.11 0.35 0.1 0.69-0.01 0.36-0.14 0.7-0.12 0.34-0.35 0.62-0.22 0.28-0.52 0.47-0.31 0.2-0.66 0.28-0.34 0.09-0.69 0.06-0.36-0.03-0.69-0.17t-0.6-0.38-0.44-0.56q-0.18-0.31-0.25-0.66-0.06-0.36-0.02-0.7 0.05-0.36 0.21-0.68t0.42-0.57q0.25-0.26 0.57-0.42t0.68-0.21q0.35-0.04 0.7 0.02 0.35 0.07 0.66 0.25 0.32 0.17 0.56 0.44t0.38 0.6 0.17 0.69q0.03 0.35-0.06 0.69-0.09 0.35-0.28 0.66-0.19 0.3-0.47 0.52-0.28 0.23-0.62 0.35-0.34 0.13-0.7 0.14-0.35 0.01-0.69-0.1t-0.63-0.32q-0.3-0.21-0.3-0.2 0 0-0.16-0.22-0.17-0.21-0.28-0.45t-0.15-0.51q-0.05-0.26-0.04-0.52 0.02-0.27 0.1-0.52 0.08-0.26 0.22-0.49 0.14-0.22 0.33-0.41t0.41-0.33q0.23-0.14 0.49-0.22 0.25-0.08 0.52-0.1 0.26-0.01 0.52 0.04 0.27 0.04 0.51 0.15t0.45 0.28q0.22 0.16 0.22 0.16z"/>
  </g>
 </g>
</svg>
