<?xml version="1.0" encoding="UTF-8"?>
<!-- Created with Inkscape (http://www.inkscape.org/) -->
<svg width="21.112mm" height="20.749mm" version="1.1" viewBox="0 0 21.112 20.749" xmlns="http://www.w3.org/2000/svg">
 <g transform="translate(-124.71 -350.09)">
  <g transform="matrix(.52917 0 0 .52917 130.11 366.24)">
   <path d="m-1.76 0t0.06-2.58q0.06-2.59 0.4-5.77 0.33-3.19 0.49-6.48 0.15-3.29 0.22-6.13 0.08-2.84 0.13-4.95t0.09-2.34q0.05-0.22 0.16-0.42t0.27-0.35q0.16-0.16 0.37-0.25t0.44-0.11 0.45 0.03 0.42 0.17q0.19 0.13 0.33 0.3 0.15 0.18 0.23 0.39 0.08 0.22 0.09 0.45 0.01 0.22-0.06 0.44-0.06 0.22-0.2 0.41-0.13 0.18-0.31 0.32-0.19 0.13-0.4 0.2-0.22 0.07-0.45 0.07-0.23-0.01-0.44-0.08-0.22-0.08-0.4-0.22-0.17-0.14-0.29-0.33-0.13-0.2-0.18-0.42-0.06-0.22-0.04-0.45 0.01-0.22 0.1-0.43 0.09-0.22 0.24-0.39 0.14-0.17 0.34-0.28 0.2-0.12 0.42-0.16 0.22-0.05 0.45-0.02t0.43 0.13q0.21 0.1 0.37 0.26t0.27 0.37q0.1 0.2 0.13 0.43 0.04 0.22 0.04 0.22t-0.03 2.11q-0.02 2.11-0.05 4.98t-0.12 6.25-0.33 6.42-0.18 5.63q0.06 2.58 0.03 2.79-0.02 0.21-0.1 0.41-0.07 0.19-0.2 0.37-0.12 0.17-0.27 0.31-0.16 0.15-0.35 0.24-0.19 0.1-0.4 0.15-0.2 0.05-0.41 0.05t-0.41-0.05q-0.21-0.05-0.4-0.15-0.19-0.09-0.35-0.24-0.15-0.14-0.28-0.31-0.12-0.18-0.19-0.37-0.08-0.2-0.1-0.41-0.03-0.21-0.03-0.21z"/>
  </g>
  <g transform="matrix(.52917 0 0 .52917 128.52 354.07)">
   <path d="m-0.61-2.16t2.03-0.46q2.04-0.47 3.62-1.19 1.58-0.73 4.59-1.49 3-0.76 3.34-0.76 0.34-0.01 0.66 0.1 0.33 0.1 0.6 0.3 0.27 0.21 0.46 0.48 0.2 0.28 0.29 0.61 0.1 0.32 0.08 0.66-0.01 0.34-0.13 0.66-0.13 0.32-0.34 0.58-0.22 0.26-0.51 0.44-0.29 0.17-0.62 0.25t-0.67 0.04q-0.33-0.03-0.64-0.17t-0.56-0.37-0.41-0.53q-0.16-0.29-0.22-0.63-0.06-0.33-0.01-0.67 0.05-0.33 0.21-0.63 0.15-0.31 0.4-0.54 0.24-0.24 0.55-0.38 0.3-0.15 0.64-0.19 0.33-0.04 0.67 0.03 0.33 0.07 0.62 0.24t0.52 0.43q0.22 0.25 0.35 0.57 0.13 0.31 0.15 0.65t-0.07 0.67q-0.08 0.32-0.27 0.61-0.19 0.28-0.45 0.49-0.27 0.21-0.59 0.32t-0.32 0.11-2.54 0.45q-2.53 0.45-4.39 1.36-1.85 0.91-3.83 1.59-1.99 0.69-2.26 0.73-0.26 0.04-0.52 0.02-0.27-0.02-0.53-0.11t-0.48-0.23q-0.23-0.15-0.42-0.34-0.19-0.2-0.32-0.44-0.14-0.23-0.21-0.49-0.08-0.26-0.09-0.53-0.01-0.26 0.05-0.53 0.06-0.26 0.17-0.51 0.12-0.24 0.29-0.45t0.39-0.37q0.22-0.17 0.47-0.27 0.25-0.11 0.25-0.11z"/>
  </g>
  <g transform="matrix(.52917 0 0 .52917 128 358.3)">
   <path d="m-0.42-2.14t1.42-0.31q1.43-0.31 3.81-0.61 2.39-0.29 5.17-0.67 2.78-0.39 3.12-0.37 0.35 0.02 0.67 0.15 0.32 0.12 0.58 0.35 0.27 0.22 0.45 0.52 0.18 0.29 0.25 0.63 0.08 0.33 0.04 0.68-0.04 0.34-0.18 0.65-0.15 0.32-0.38 0.57-0.24 0.25-0.54 0.41-0.31 0.16-0.65 0.21-0.34 0.06-0.68 0-0.34-0.05-0.65-0.2-0.3-0.16-0.54-0.41t-0.38-0.57q-0.15-0.31-0.19-0.65-0.04-0.35 0.04-0.68 0.07-0.34 0.25-0.64 0.18-0.29 0.44-0.52 0.26-0.22 0.58-0.35t0.67-0.15q0.34-0.02 0.67 0.07 0.34 0.1 0.62 0.29 0.29 0.19 0.5 0.47 0.21 0.27 0.32 0.6t0.11 0.67q0 0.35-0.11 0.67-0.11 0.33-0.32 0.61-0.2 0.27-0.49 0.47-0.29 0.19-0.62 0.27-0.33 0.1-0.33 0.1t-2.67 0.22-4.96 0.75q-2.29 0.52-3.73 0.79-1.45 0.26-1.71 0.28-0.25 0.02-0.51-0.02t-0.51-0.15q-0.24-0.1-0.45-0.26t-0.38-0.37q-0.16-0.2-0.27-0.44-0.12-0.24-0.17-0.5t-0.04-0.51q0.01-0.27 0.09-0.52 0.07-0.25 0.21-0.48 0.13-0.23 0.31-0.42 0.19-0.19 0.41-0.33t0.47-0.22q0.26-0.08 0.26-0.08z"/>
  </g>
  <g transform="matrix(.52917 0 0 .52917 138.05 351.42)">
   <path d="m2.11 0t-0.11 2.87q-0.1 2.88-0.18 5.82-0.08 2.95-0.14 5.08-0.06 2.12-0.65 4.13-0.6 2.01-0.9 4.66-0.29 2.66-0.37 2.95-0.08 0.28-0.26 0.53-0.17 0.25-0.41 0.42-0.24 0.18-0.52 0.27-0.29 0.1-0.59 0.09-0.3 0-0.58-0.1t-0.52-0.28q-0.24-0.19-0.4-0.44-0.17-0.25-0.24-0.54-0.08-0.29-0.06-0.59t0.14-0.57q0.11-0.28 0.31-0.51 0.2-0.22 0.45-0.37 0.26-0.15 0.56-0.21 0.29-0.07 0.59-0.03 0.29 0.04 0.56 0.17t0.49 0.34q0.21 0.2 0.35 0.47t0.18 0.56q0.05 0.3-0.01 0.59-0.05 0.3-0.19 0.56-0.15 0.27-0.37 0.47t-0.49 0.32q-0.27 0.13-0.57 0.15-0.3 0.03-0.59-0.04-0.29-0.06-0.55-0.22-0.25-0.16-0.44-0.39t-0.3-0.51-0.12-0.58-0.01-0.3 0.55-2.95 1.1-4.46q0.56-1.52 0.5-3.62t-0.14-5.05q-0.08-2.94-0.18-5.82-0.11-2.87-0.08-3.12t0.12-0.49 0.24-0.45q0.14-0.21 0.33-0.38t0.42-0.28q0.22-0.12 0.47-0.18t0.5-0.06 0.5 0.06 0.47 0.18q0.23 0.11 0.42 0.28t0.33 0.38q0.15 0.21 0.24 0.45t0.12 0.49 0.03 0.25z"/>
  </g>
  <g transform="matrix(.52917 0 0 .52917 136.99 351.42)">
   <path d="m0-2.52t2.01 0.13q2.01 0.12 3.49 0.11t2.6 0.36q1.13 0.38 2.11 1.36t1.67 2.39q0.69 1.4 1.2 2.44 0.52 1.04 0.86 2.35t0.19 3.53q-0.15 2.23-1.93 3.59t-4.78 1.97q-3.01 0.61-5.41 0.77-2.39 0.16-3.77 0.86t-1.73 0.78-0.7 0.05q-0.36-0.03-0.69-0.17-0.33-0.15-0.59-0.39t-0.44-0.56q-0.17-0.31-0.24-0.66-0.06-0.36-0.01-0.71 0.05-0.36 0.22-0.67 0.16-0.32 0.41-0.58 0.26-0.25 0.58-0.4 0.32-0.16 0.68-0.2 0.36-0.05 0.71 0.02t0.66 0.25 0.55 0.45q0.23 0.27 0.37 0.6t0.17 0.69q0.02 0.36-0.07 0.7-0.09 0.35-0.28 0.65-0.2 0.3-0.48 0.52t-0.62 0.34-0.7 0.13q-0.35 0.01-0.7-0.1-0.34-0.11-0.63-0.32t-0.49-0.51q-0.21-0.29-0.31-0.63-0.1-0.35-0.09-0.71 0.01-0.35 0.14-0.69 0.13-0.33 0.35-0.61 0.23-0.28 0.54-0.47 0.3-0.19 0.3-0.19t1.96-0.7q1.97-0.7 4.08-1.08 2.12-0.39 5.03-1.14 2.92-0.76 2.79-2.14-0.13-1.37-0.62-2.46-0.5-1.1-1.05-2.62t-1.94-1.53q-1.38-0.01-3.39 0.11-2.01 0.13-2.31 0.09t-0.58-0.14q-0.29-0.11-0.54-0.28-0.25-0.18-0.45-0.4-0.2-0.23-0.34-0.5t-0.22-0.57q-0.07-0.29-0.07-0.59t0.07-0.59q0.08-0.3 0.22-0.57t0.34-0.5q0.2-0.22 0.45-0.4 0.25-0.17 0.54-0.28 0.28-0.11 0.58-0.14 0.3-0.04 0.3-0.04z"/>
  </g>
  <g transform="matrix(.52917 0 0 .52917 140.17 357.24)">
   <path d="m1.85-0.46t0.5 2.31q0.5 2.32 1.8 5.8 1.31 3.48 2.43 6.45 1.13 2.96 2.56 6.09 1.44 3.13 1.5 3.4 0.07 0.27 0.05 0.55-0.03 0.27-0.14 0.53-0.11 0.25-0.29 0.46-0.19 0.21-0.43 0.34-0.24 0.14-0.52 0.19-0.27 0.05-0.55 0.02-0.27-0.04-0.52-0.17-0.25-0.12-0.45-0.32-0.19-0.19-0.32-0.44-0.12-0.25-0.16-0.53-0.03-0.27 0.02-0.55 0.05-0.27 0.19-0.51 0.14-0.25 0.34-0.43 0.21-0.19 0.47-0.3 0.25-0.11 0.53-0.13t0.55 0.05 0.5 0.22q0.24 0.15 0.41 0.36 0.17 0.22 0.27 0.48t0.1 0.54q0.01 0.28-0.07 0.55-0.09 0.26-0.25 0.49-0.16 0.22-0.39 0.39-0.22 0.16-0.49 0.24t-0.54 0.07q-0.28-0.01-0.54-0.1-0.26-0.1-0.48-0.27-0.22-0.18-0.37-0.41-0.15-0.24-0.15-0.24t-1.29-3.23q-1.29-3.24-2.5-6.18t-2.69-6.59-2.13-5.93-0.68-2.51 0-0.45q0.02-0.23 0.1-0.44 0.08-0.22 0.22-0.41 0.13-0.19 0.3-0.35 0.17-0.15 0.38-0.26 0.2-0.1 0.42-0.16 0.23-0.06 0.46-0.06 0.22 0 0.44 0.06 0.23 0.05 0.43 0.16 0.21 0.1 0.38 0.26 0.18 0.15 0.31 0.34t0.21 0.4q0.08 0.22 0.08 0.22z"/>
  </g>
  <g transform="matrix(.52917 0 0 .52917 125.88 362.53)">
   <path d="m1.57-1.57t0.2 0.3q0.21 0.29 0.32 0.63 0.11 0.35 0.1 0.69-0.01 0.36-0.14 0.7-0.12 0.34-0.35 0.62-0.22 0.28-0.52 0.47-0.31 0.2-0.66 0.28-0.34 0.09-0.69 0.06-0.36-0.03-0.69-0.17t-0.6-0.38-0.44-0.56q-0.18-0.31-0.25-0.66-0.06-0.36-0.02-0.7 0.05-0.36 0.21-0.68t0.42-0.57q0.25-0.26 0.57-0.42t0.68-0.21q0.35-0.04 0.7 0.02 0.35 0.07 0.66 0.25 0.32 0.17 0.56 0.44t0.38 0.6 0.17 0.69q0.03 0.35-0.06 0.69-0.09 0.35-0.28 0.66-0.19 0.3-0.47 0.52-0.28 0.23-0.62 0.35-0.34 0.13-0.7 0.14-0.35 0.01-0.69-0.1t-0.63-0.32q-0.3-0.21-0.3-0.2 0 0-0.16-0.22-0.17-0.21-0.28-0.45t-0.15-0.51q-0.05-0.26-0.04-0.52 0.02-0.27 0.1-0.52 0.08-0.26 0.22-0.49 0.14-0.22 0.33-0.41t0.41-0.33q0.23-0.14 0.49-0.22 0.25-0.08 0.52-0.1 0.26-0.01 0.52 0.04 0.27 0.04 0.51 0.15t0.45 0.28q0.22 0.16 0.22 0.16z"/>
  </g>
 </g>
</svg>
