<?xml version="1.0" encoding="UTF-8"?>
<!-- Created with Inkscape (http://www.inkscape.org/) -->
<svg width="20.094mm" height="17.129mm" version="1.1" viewBox="0 0 20.094 17.129" xmlns="http://www.w3.org/2000/svg">
 <g transform="translate(-72.12 -282.45)">
  <g transform="matrix(.52917 0 0 .52917 79.609 297.39)">
   <path d="m-2.12 0.26t-0.18-2.3q-0.18-2.31-0.77-4.92-0.6-2.6-0.86-5.02-0.25-2.41-0.34-4.59-0.09-2.19-0.25-3.39-0.16-1.19 0.31-3.1 0.46-1.91 1.6-2.4 1.13-0.49 2.36-1.07 1.23-0.57 4.3-1.13 3.08-0.57 3.46-0.55 0.37 0.01 0.72 0.14 0.35 0.14 0.64 0.38 0.3 0.23 0.49 0.55 0.2 0.32 0.29 0.69 0.09 0.36 0.05 0.74-0.03 0.37-0.18 0.72-0.16 0.34-0.41 0.62-0.25 0.27-0.58 0.45-0.33 0.19-0.7 0.25-0.37 0.07-0.74 0.01-0.38-0.05-0.71-0.22t-0.6-0.44q-0.26-0.27-0.42-0.61-0.17-0.33-0.21-0.71-0.05-0.37 0.02-0.74 0.08-0.37 0.27-0.69 0.19-0.33 0.47-0.58 0.28-0.24 0.63-0.39 0.34-0.14 0.72-0.17 0.37-0.03 0.74 0.07 0.36 0.09 0.68 0.3 0.31 0.21 0.54 0.5 0.23 0.3 0.36 0.65t0.13 0.73q0.01 0.38-0.11 0.73-0.11 0.36-0.33 0.66-0.23 0.31-0.53 0.52-0.31 0.22-0.67 0.33-0.36 0.1-0.36 0.1t-2.48 0.3q-2.49 0.31-4.44 1.16-1.94 0.85-2 2.03-0.05 1.19 0.11 3.26 0.17 2.06 0.5 4.25 0.34 2.18 1.13 4.98 0.8 2.8 1.19 5.09 0.4 2.29 0.4 2.55 0 0.25-0.06 0.5t-0.18 0.48-0.29 0.42-0.38 0.34-0.45 0.24q-0.25 0.09-0.5 0.13-0.26 0.03-0.5 0-0.26-0.03-0.5-0.12t-0.46-0.24q-0.21-0.15-0.38-0.34t-0.29-0.42q-0.13-0.23-0.19-0.48t-0.06-0.25z"/>
  </g>
  <g transform="matrix(.52917 0 0 .52917 75.905 289.45)">
   <path d="m0-2.65t1.15-0.01q1.15-0.02 2.83-0.09 1.68-0.06 3.62-0.1t4-0.06q2.06-0.01 2.53 0.06 0.46 0.08 0.88 0.3t0.75 0.57q0.32 0.34 0.52 0.77t0.25 0.9q0.05 0.46-0.05 0.93-0.1 0.46-0.35 0.87-0.24 0.4-0.6 0.71t-0.8 0.48q-0.44 0.18-0.92 0.2-0.47 0.03-0.93-0.1-0.45-0.13-0.84-0.39-0.4-0.27-0.68-0.65-0.29-0.37-0.44-0.82t-0.15-0.92 0.15-0.92 0.44-0.82q0.28-0.38 0.68-0.65 0.39-0.26 0.84-0.39 0.46-0.13 0.93-0.1 0.48 0.02 0.92 0.2t0.8 0.48q0.36 0.31 0.6 0.72 0.25 0.4 0.35 0.86 0.1 0.47 0.05 0.93-0.05 0.47-0.25 0.9t-0.52 0.77q-0.33 0.35-0.75 0.57t-0.89 0.3q-0.46 0.07-0.46 0.07t-2.06-0.01q-2.06-0.02-4-0.06t-3.62-0.1q-1.68-0.07-2.83-0.09-1.15-0.01-1.46-0.05-0.32-0.04-0.62-0.15-0.3-0.12-0.56-0.3t-0.47-0.42q-0.22-0.24-0.37-0.52-0.14-0.29-0.22-0.6t-0.08-0.62 0.08-0.62q0.08-0.32 0.22-0.6 0.15-0.28 0.37-0.52 0.21-0.24 0.47-0.42t0.56-0.3q0.3-0.11 0.62-0.15 0.31-0.04 0.31-0.04z"/>
  </g>
  <g transform="matrix(.52917 0 0 .52917 86.488 297.39)">
   <path d="m-2.36 0.39t-0.24-1.72q-0.24-1.74-0.31-3.74t-0.05-3.99q0.01-2-0.06-3.41-0.07-1.42-0.11-2.67-0.05-1.26 0.38-2.35 0.44-1.09 2.01-1.98t3.23-0.82q1.66 0.08 3.06 1.13 1.41 1.05 3.24 2.91 1.84 1.86 1.95 2.33t0.07 0.94q-0.04 0.48-0.23 0.92t-0.51 0.8q-0.32 0.35-0.74 0.59-0.42 0.23-0.89 0.32t-0.95 0.02q-0.47-0.06-0.9-0.28-0.43-0.21-0.77-0.55t-0.55-0.78q-0.21-0.43-0.27-0.9-0.07-0.48 0.02-0.95 0.1-0.47 0.34-0.89 0.23-0.41 0.59-0.73t0.8-0.51 0.92-0.22q0.48-0.04 0.94 0.08 0.47 0.12 0.87 0.38 0.41 0.26 0.71 0.63 0.29 0.38 0.46 0.83 0.16 0.45 0.17 0.93t-0.13 0.94q-0.14 0.45-0.42 0.84t-0.68 0.67q-0.39 0.28-0.85 0.42-0.45 0.14-0.93 0.12-0.48-0.01-0.93-0.18t-0.83-0.47q-0.37-0.3-0.63-0.71-0.25-0.4-0.25-0.4t-1.07-1.45q-1.06-1.44-1.97-2.03-0.92-0.59-0.95 0.5t-0.05 2.48q-0.03 1.39 0.09 3.3t0.29 3.67q0.18 1.77 0.51 3.48 0.34 1.72 0.35 2.01 0.01 0.28-0.04 0.56-0.06 0.28-0.18 0.55-0.13 0.26-0.31 0.48-0.18 0.23-0.41 0.4t-0.49 0.29q-0.27 0.11-0.55 0.16-0.29 0.05-0.57 0.03-0.28-0.03-0.56-0.12-0.27-0.09-0.52-0.24-0.24-0.15-0.44-0.36t-0.35-0.46q-0.14-0.25-0.23-0.52-0.08-0.28-0.08-0.28z"/>
  </g>
  <g transform="matrix(.52917 0 0 .52917 73.259 298.44)">
   <path d="m2.12-0.66t0.03 0.53-0.19 1.01-0.64 0.81q-0.41 0.33-0.94 0.43-0.51 0.09-1.02-0.07-0.5-0.15-0.88-0.53t-0.53-0.88q-0.16-0.51-0.07-1.02 0.1-0.53 0.43-0.94 0.33-0.42 0.81-0.64 0.49-0.22 1.01-0.19 0.53 0.04 0.98 0.31 0.46 0.28 0.73 0.73z"/>
  </g>
 </g>
</svg>
