<?xml version="1.0" encoding="UTF-8"?>
<!-- Created with Inkscape (http://www.inkscape.org/) -->
<svg width="19.544mm" height="21.723mm" version="1.1" viewBox="0 0 19.544 21.723" xmlns="http://www.w3.org/2000/svg">
 <g transform="translate(-115.22 -334.79)">
  <g transform="matrix(.52917 0 0 .52917 121.65 355.19)">
   <path d="m-1.96 0t-0.05-1.43q-0.05-1.44 0.05-3.78 0.1-2.33 0.18-4.76 0.07-2.43 0.12-5.48 0.06-3.04-0.18-5.4-0.25-2.35-0.34-4.59-0.1-2.24-0.24-3.76-0.15-1.51-0.24-3.06-0.08-1.55 0.24-2.63t1.77-2.09q1.43-1 3.34-1.22 1.91-0.23 3.18-0.33 1.26-0.11 3.06 0.34 1.8 0.44 3 2.16 1.2 1.71 2.23 3.43 1.02 1.72 1.86 3.48 0.84 1.75 1.72 2.98 0.87 1.23 1.03 1.59 0.15 0.35 0.19 0.74 0.03 0.38-0.06 0.76t-0.29 0.71q-0.21 0.33-0.51 0.57-0.3 0.25-0.66 0.39-0.36 0.13-0.75 0.15-0.39 0.01-0.76-0.1t-0.69-0.33q-0.32-0.23-0.55-0.54t-0.34-0.68q-0.12-0.37-0.12-0.76 0.01-0.39 0.14-0.75 0.13-0.37 0.37-0.67 0.24-0.31 0.57-0.52 0.32-0.21 0.7-0.31 0.37-0.1 0.76-0.07t0.75 0.18q0.35 0.15 0.65 0.41 0.29 0.25 0.48 0.59 0.19 0.33 0.27 0.71t0.03 0.77q-0.05 0.38-0.22 0.73t-0.44 0.63-0.62 0.45q-0.34 0.18-0.73 0.23-0.38 0.06-0.76-0.01t-0.72-0.26q-0.34-0.18-0.61-0.47-0.26-0.29-0.26-0.29t-0.91-1.5q-0.91-1.51-1.66-2.91-0.76-1.41-2.13-3.07-1.38-1.66-2.62-2.66-1.23-0.99-2.75-1.07-1.51-0.08-2.61-0.16-1.1-0.07-1.15 1.38-0.04 1.45-0.08 2.95-0.04 1.49 0.11 3.63t0.48 4.67q0.33 2.54 0.39 5.58 0.05 3.05 0.12 5.48 0.08 2.43 0.18 4.76 0.1 2.34 0.05 3.78-0.05 1.43-0.08 1.66-0.02 0.24-0.11 0.46-0.08 0.22-0.22 0.41-0.13 0.2-0.31 0.36-0.18 0.15-0.39 0.26t-0.44 0.17-0.46 0.06-0.46-0.06-0.44-0.17-0.39-0.26q-0.18-0.16-0.31-0.36-0.14-0.19-0.22-0.41-0.09-0.22-0.11-0.46-0.03-0.23-0.03-0.23z"/>
  </g>
  <g transform="matrix(.52917 0 0 .52917 116.89 346.73)">
   <path d="m-0.34-2.06t1.72-0.27q1.73-0.28 3.71-0.37 1.99-0.09 3.98-0.1t3.99 0.01q1.99 0.02 4.42-0.09 2.43-0.1 2.75-0.05t0.6 0.2q0.29 0.15 0.51 0.38 0.22 0.24 0.36 0.53t0.17 0.61q0.04 0.32-0.03 0.63-0.06 0.32-0.23 0.58-0.16 0.28-0.41 0.49-0.24 0.21-0.54 0.33t-0.62 0.14-0.63-0.07q-0.31-0.08-0.58-0.26t-0.46-0.43q-0.2-0.25-0.3-0.55-0.11-0.31-0.11-0.63t0.1-0.63q0.1-0.3 0.3-0.56 0.19-0.26 0.45-0.44 0.27-0.18 0.58-0.27t0.63-0.07 0.62 0.13q0.3 0.12 0.55 0.33 0.24 0.21 0.41 0.48t0.24 0.59q0.07 0.31 0.04 0.63-0.04 0.32-0.17 0.62-0.13 0.28-0.35 0.51-0.22 0.24-0.51 0.39-0.28 0.15-0.6 0.21-0.31 0.05-0.31 0.05t-2.43-0.07q-2.42-0.08-4.38-0.02-1.97 0.07-3.88 0.16-1.91 0.1-3.69 0.25t-3.5 0.45-1.97 0.31q-0.24 0.01-0.49-0.04t-0.48-0.16q-0.23-0.1-0.42-0.26-0.2-0.16-0.35-0.36t-0.25-0.43-0.14-0.48q-0.05-0.25-0.03-0.49 0.02-0.26 0.1-0.49 0.08-0.24 0.22-0.46 0.13-0.21 0.31-0.39 0.18-0.17 0.4-0.3t0.46-0.2 0.24-0.07z"/>
  </g>
  <g transform="matrix(.52917 0 0 .52917 116.36 355.19)">
   <path d="m2.12-0.66t0.03 0.53-0.19 1.01-0.64 0.81q-0.41 0.33-0.94 0.43-0.51 0.09-1.02-0.07-0.5-0.15-0.88-0.53t-0.53-0.88q-0.16-0.51-0.07-1.02 0.1-0.53 0.43-0.94 0.33-0.42 0.81-0.64 0.49-0.22 1.01-0.19 0.53 0.04 0.98 0.31 0.46 0.28 0.73 0.73z"/>
  </g>
  <g transform="matrix(.52917 0 0 .52917 129.59 355.19)">
   <path d="m-2.52 0t0.06-1.72q0.05-1.72-0.01-4.04t0.31-4.25q0.37-1.92 0.91-3.09 0.54-1.16 1.34-1.9 0.81-0.74 2.34-1.2t3.47 0.02q1.94 0.49 2.34 0.7 0.41 0.2 0.73 0.53 0.32 0.32 0.52 0.73t0.26 0.86q0.06 0.46-0.02 0.9-0.09 0.45-0.32 0.85-0.23 0.39-0.57 0.7-0.34 0.3-0.76 0.48-0.42 0.17-0.87 0.21-0.46 0.03-0.9-0.08t-0.83-0.36q-0.38-0.25-0.66-0.6-0.29-0.36-0.44-0.79-0.16-0.43-0.17-0.88-0.01-0.46 0.13-0.9 0.14-0.43 0.4-0.8 0.27-0.37 0.64-0.63 0.38-0.27 0.81-0.4 0.44-0.13 0.89-0.12 0.46 0.02 0.89 0.18t0.78 0.45q0.35 0.28 0.6 0.67 0.24 0.38 0.35 0.83 0.11 0.44 0.07 0.9-0.04 0.45-0.22 0.87-0.19 0.42-0.49 0.75-0.31 0.34-0.71 0.56-0.4 0.23-0.85 0.31-0.44 0.08-0.9 0.02-0.45-0.06-0.45-0.06t-1.6-0.37q-1.61-0.36-1.82 1.12-0.2 1.48-0.26 3.79-0.06 2.32-0.01 4.04 0.06 1.72 0.02 2.02-0.03 0.3-0.14 0.58-0.11 0.29-0.28 0.54-0.18 0.25-0.4 0.45-0.23 0.2-0.5 0.34-0.27 0.15-0.57 0.22-0.29 0.07-0.59 0.07t-0.59-0.07q-0.3-0.07-0.57-0.22-0.27-0.14-0.5-0.34t-0.4-0.45-0.28-0.54q-0.11-0.28-0.14-0.58-0.04-0.3-0.04-0.3z"/>
  </g>
 </g>
</svg>
