<?xml version="1.0" encoding="UTF-8"?>
<!-- Created with Inkscape (http://www.inkscape.org/) -->
<svg width="21.789mm" height="19.974mm" version="1.1" viewBox="0 0 21.789 19.974" xmlns="http://www.w3.org/2000/svg">
 <g transform="translate(-108.04 -372.72)">
  <g transform="matrix(.52917 0 0 .52917 109.21 390.02)">
   <path d="m1.57-1.57t0.2 0.3q0.21 0.29 0.32 0.63 0.11 0.35 0.1 0.69-0.01 0.36-0.14 0.7-0.12 0.34-0.35 0.62-0.22 0.28-0.52 0.47-0.31 0.2-0.66 0.28-0.34 0.09-0.69 0.06-0.36-0.03-0.69-0.17t-0.6-0.38-0.44-0.56q-0.18-0.31-0.25-0.66-0.06-0.36-0.02-0.7 0.05-0.36 0.21-0.68t0.42-0.57q0.25-0.26 0.57-0.42t0.68-0.21q0.35-0.04 0.7 0.02 0.35 0.07 0.66 0.25 0.32 0.17 0.56 0.44t0.38 0.6 0.17 0.69q0.03 0.35-0.06 0.69-0.09 0.35-0.28 0.66-0.19 0.3-0.47 0.52-0.28 0.23-0.62 0.35-0.34 0.13-0.7 0.14-0.35 0.01-0.69-0.1t-0.63-0.32q-0.3-0.21-0.3-0.2 0 0-0.16-0.22-0.17-0.21-0.28-0.45t-0.15-0.51q-0.05-0.26-0.04-0.52 0.02-0.27 0.1-0.52 0.08-0.26 0.22-0.49 0.14-0.22 0.33-0.41t0.41-0.33q0.23-0.14 0.49-0.22 0.25-0.08 0.52-0.1 0.26-0.01 0.52 0.04 0.27 0.04 0.51 0.15t0.45 0.28q0.22 0.16 0.22 0.16z"/>
  </g>
  <g transform="matrix(.52917 0 0 .52917 116.62 391.61)">
   <path d="m-2.07 0t0.07-2.01q0.08-2.02 1.05-5.67 0.96-3.65 1.95-8.23t2.32-8.62q1.33-4.05 2.21-6.09 0.88-2.03 1.62-3.17t0.87-1.17q0.12-0.03 0.28-0.19 0.15-0.16 0.34-0.27 0.18-0.12 0.39-0.19t0.43-0.08q0.22-0.02 0.43 0.02 0.22 0.03 0.42 0.12t0.38 0.22q0.17 0.13 0.31 0.3t0.23 0.37 0.14 0.42q0.04 0.21 0.03 0.43t-0.07 0.43-0.18 0.4q-0.11 0.19 0.4 3.06 0.5 2.87 0.46 3.2-0.05 0.33-0.2 0.62-0.14 0.3-0.38 0.54-0.23 0.23-0.53 0.38t-0.63 0.19q-0.33 0.05-0.65-0.01-0.33-0.06-0.62-0.23-0.29-0.16-0.51-0.41-0.23-0.25-0.36-0.55-0.13-0.31-0.16-0.64-0.02-0.33 0.06-0.65 0.08-0.33 0.25-0.61 0.18-0.28 0.44-0.48 0.26-0.21 0.57-0.33 0.32-0.11 0.65-0.12t0.65 0.09q0.32 0.09 0.59 0.29 0.27 0.19 0.46 0.46 0.2 0.27 0.29 0.59 0.1 0.32 0.09 0.65t-0.12 0.64-0.32 0.57-0.49 0.44-0.6 0.26q-0.33 0.08-0.66 0.06-0.33-0.03-0.63-0.16-0.31-0.13-0.56-0.35-0.25-0.23-0.41-0.52-0.16-0.28-0.23-0.61-0.06-0.33-0.06-0.33t-0.01-2.26 0.1-4.02q0.11-1.77 0.27-1.93 0.15-0.16 0.34-0.27 0.18-0.12 0.39-0.19t0.43-0.08q0.22-0.02 0.43 0.02 0.22 0.03 0.42 0.12t0.38 0.22q0.17 0.13 0.31 0.3t0.23 0.37 0.14 0.41q0.04 0.22 0.03 0.44t-0.07 0.43-0.18 0.4q-0.11 0.19-1.06 0.84t-1.71 2.57q-0.77 1.93-1.97 5.83-1.2 3.91-2.09 8.59-0.89 4.67-1.64 7.91-0.76 3.23-0.68 5.24 0.07 2 0.04 2.24-0.03 0.25-0.12 0.48-0.09 0.24-0.23 0.44-0.14 0.21-0.33 0.38-0.19 0.16-0.41 0.28-0.22 0.11-0.46 0.17-0.25 0.06-0.49 0.06t-0.49-0.06q-0.24-0.06-0.46-0.17-0.22-0.12-0.41-0.29-0.19-0.16-0.33-0.37-0.14-0.2-0.23-0.44-0.09-0.23-0.12-0.48-0.03-0.24-0.03-0.24z"/>
  </g>
  <g transform="matrix(.52917 0 0 .52917 113.97 384.73)">
   <path d="m-0.41-2.26t3.18-0.45 5.36-0.87q2.17-0.43 3.76-0.72 1.58-0.28 4.82-0.61 3.23-0.32 3.59-0.27t0.68 0.21 0.58 0.42q0.25 0.26 0.41 0.58t0.21 0.68-0.02 0.72q-0.07 0.35-0.25 0.66-0.18 0.32-0.45 0.56t-0.6 0.38q-0.33 0.15-0.69 0.17-0.36 0.03-0.71-0.06-0.35-0.08-0.66-0.28-0.3-0.2-0.53-0.48-0.22-0.28-0.35-0.62-0.12-0.34-0.13-0.7t0.1-0.71q0.11-0.34 0.32-0.64 0.21-0.29 0.5-0.5 0.3-0.21 0.64-0.31 0.35-0.11 0.71-0.1t0.7 0.14q0.34 0.12 0.62 0.35t0.48 0.53q0.19 0.31 0.28 0.66 0.08 0.35 0.05 0.71t-0.17 0.69q-0.15 0.33-0.39 0.6t-0.55 0.45q-0.32 0.17-0.68 0.24-0.35 0.07-0.35 0.07t-3 0.01-4.44 0.18q-1.44 0.16-3.68 0.79-2.24 0.64-5.38 1.34t-3.42 0.72q-0.27 0.01-0.54-0.04t-0.53-0.16q-0.25-0.12-0.47-0.29t-0.39-0.39-0.28-0.47-0.16-0.53q-0.05-0.27-0.04-0.54 0.02-0.27 0.1-0.54 0.09-0.26 0.23-0.5t0.34-0.43q0.2-0.2 0.44-0.34 0.23-0.15 0.5-0.23 0.26-0.08 0.26-0.08z"/>
  </g>
  <g transform="matrix(.52917 0 0 .52917 123.5 388.44)">
   <path d="m2.08 0.69t-0.61 1.68q-0.61 1.69-0.51 2.47 0.11 0.78 0 1.03-0.12 0.25-0.29 0.46-0.18 0.21-0.39 0.37-0.22 0.16-0.46 0.27-0.25 0.11-0.52 0.15-0.27 0.05-0.54 0.02-0.27-0.02-0.53-0.1-0.26-0.09-0.49-0.24-0.23-0.14-0.41-0.34-0.19-0.19-0.33-0.43-0.13-0.23-0.21-0.49-0.08-0.27-0.09-0.54t0.05-0.54q0.05-0.26 1.11-1.88 1.05-1.62 3.33-4.01 2.29-2.4 3.45-3.88t2.61-2.85 1.73-1.53q0.28-0.17 0.6-0.24 0.31-0.07 0.64-0.03 0.32 0.04 0.61 0.17 0.3 0.14 0.53 0.36 0.24 0.23 0.39 0.52 0.15 0.28 0.2 0.6t0 0.64q-0.06 0.32-0.21 0.61-0.15 0.28-0.39 0.51-0.24 0.22-0.53 0.35-0.3 0.14-0.62 0.17-0.32 0.04-0.64-0.04-0.31-0.07-0.59-0.23-0.28-0.17-0.49-0.42t-0.33-0.55q-0.11-0.3-0.13-0.63-0.02-0.32 0.07-0.63t0.27-0.58q0.19-0.27 0.44-0.46 0.26-0.2 0.57-0.3t0.63-0.1q0.33 0 0.63 0.1 0.31 0.11 0.57 0.31 0.26 0.19 0.44 0.46t0.26 0.58q0.09 0.32 0.07 0.64t-0.14 0.63q-0.12 0.3-0.33 0.54-0.21 0.25-0.21 0.25t-1.3 0.94q-1.29 0.94-2.49 2.59t-3.11 3.89q-1.91 2.25-2.61 3.46-0.71 1.2-0.82 1.45-0.12 0.25-0.29 0.46t-0.39 0.37-0.46 0.27q-0.25 0.11-0.52 0.15-0.27 0.05-0.54 0.02-0.27-0.02-0.53-0.1-0.25-0.09-0.48-0.24-0.23-0.14-0.42-0.34-0.19-0.19-0.33-0.43-0.13-0.23-0.21-0.49-0.08-0.27-0.09-0.54t0.05-0.54q0.05-0.26 0.07-0.94 0.02-0.69 0.56-2.45t0.66-2q0.11-0.24 0.28-0.44 0.16-0.21 0.38-0.37 0.21-0.15 0.45-0.26 0.24-0.1 0.5-0.14 0.27-0.05 0.52-0.03 0.26 0.03 0.51 0.11t0.48 0.22q0.22 0.15 0.4 0.34 0.19 0.19 0.32 0.42 0.13 0.22 0.21 0.48 0.07 0.25 0.08 0.52 0.01 0.25-0.04 0.51t-0.05 0.26z"/>
  </g>
 </g>
</svg>
