<?xml version="1.0" encoding="UTF-8"?>
<!-- Created with Inkscape (http://www.inkscape.org/) -->
<svg width="18.204mm" height="12.955mm" version="1.1" viewBox="0 0 18.204 12.955" xmlns="http://www.w3.org/2000/svg">
 <g transform="translate(-186.56 -255.02)">
  <g transform="matrix(.52917 0 0 .52917 189.84 257.29)">
   <path d="m1.97-0.98t0.8 1.74q0.81 1.76 1.45 3.79t0.92 4.17q0.28 2.13 0.46 3.58 0.19 1.45 0.36 3.01 0.16 1.56 0.12 1.91-0.03 0.34-0.18 0.65-0.14 0.32-0.38 0.57-0.23 0.25-0.54 0.41-0.3 0.16-0.64 0.22-0.34 0.05-0.68 0-0.34-0.06-0.64-0.22-0.31-0.16-0.55-0.41-0.23-0.25-0.38-0.56t-0.18-0.65q-0.04-0.35 0.03-0.68 0.07-0.34 0.25-0.63 0.18-0.3 0.44-0.52 0.26-0.23 0.58-0.36 0.32-0.12 0.67-0.14 0.34-0.02 0.67 0.07t0.62 0.28q0.29 0.2 0.5 0.47 0.2 0.27 0.32 0.6 0.11 0.33 0.11 0.67t-0.11 0.67-0.32 0.6q-0.21 0.28-0.49 0.47-0.29 0.2-0.62 0.29t-0.67 0.07q-0.35-0.01-0.67-0.14t-0.58-0.35q-0.27-0.22-0.44-0.52-0.18-0.29-0.26-0.63-0.07-0.33-0.07-0.33t-0.01-1.52q-0.01-1.51-0.06-2.87t-0.33-3.12q-0.28-1.77-0.94-3.5-0.66-1.74-1.58-3.43-0.92-1.7-1.01-1.95t-0.11-0.51q-0.03-0.26 0.01-0.52 0.03-0.27 0.13-0.51 0.1-0.25 0.26-0.46 0.15-0.22 0.35-0.39 0.21-0.18 0.45-0.29 0.23-0.12 0.49-0.18t0.52-0.06q0.26 0.01 0.52 0.08t0.49 0.2q0.23 0.12 0.43 0.3t0.34 0.41q0.15 0.22 0.15 0.22z"/>
  </g>
  <g transform="matrix(.52917 0 0 .52917 191.43 258.35)">
   <path d="m-0.38-2.33t1.72-0.25q1.73-0.24 4.11-0.52 2.37-0.28 2.76-0.25 0.38 0.04 0.74 0.19 0.35 0.16 0.64 0.42 0.28 0.26 0.47 0.6t0.26 0.72 0.01 0.77q-0.05 0.38-0.23 0.71-0.17 0.35-0.45 0.62t-0.63 0.44q-0.34 0.17-0.73 0.22-0.38 0.05-0.76-0.03t-0.72-0.27q-0.33-0.19-0.59-0.48-0.25-0.3-0.4-0.64-0.15-0.36-0.18-0.75-0.03-0.38 0.07-0.76 0.1-0.37 0.31-0.7 0.21-0.32 0.51-0.56 0.31-0.24 0.67-0.37 0.37-0.13 0.75-0.14 0.39 0 0.76 0.11 0.37 0.12 0.68 0.35t0.54 0.55q0.22 0.31 0.33 0.68t0.1 0.76q-0.02 0.39-0.16 0.75-0.13 0.35-0.38 0.65-0.24 0.3-0.57 0.51-0.33 0.2-0.71 0.29-0.37 0.09-0.37 0.09t-2.18 0.15q-2.17 0.14-3.89 0.47t-2 0.35q-0.28 0.01-0.56-0.05-0.28-0.05-0.54-0.17-0.25-0.13-0.48-0.3-0.22-0.18-0.39-0.41t-0.29-0.49q-0.11-0.27-0.16-0.55-0.04-0.28-0.02-0.56t0.11-0.55 0.24-0.52q0.15-0.24 0.36-0.44 0.2-0.2 0.45-0.34t0.52-0.22q0.28-0.08 0.28-0.08z"/>
  </g>
  <g transform="matrix(.52917 0 0 .52917 189.31 263.11)">
   <path d="m-0.32-2.29t2.02-0.18 3.51-0.35q1.49-0.16 3.01-0.24t3.12-0.18 1.97-0.05q0.38 0.05 0.72 0.22t0.61 0.44 0.43 0.61q0.17 0.34 0.22 0.72t-0.02 0.75-0.26 0.69q-0.19 0.33-0.47 0.58-0.29 0.26-0.64 0.41-0.35 0.14-0.72 0.17-0.38 0.03-0.75-0.06t-0.69-0.3q-0.32-0.2-0.55-0.5-0.24-0.3-0.37-0.64-0.13-0.36-0.14-0.74t0.1-0.74q0.12-0.36 0.34-0.67t0.53-0.53 0.67-0.33q0.37-0.11 0.74-0.1 0.38 0.01 0.74 0.14 0.36 0.14 0.65 0.37 0.3 0.24 0.5 0.56t0.29 0.69 0.06 0.75-0.18 0.73q-0.15 0.34-0.41 0.62-0.25 0.28-0.58 0.46-0.33 0.19-0.71 0.26-0.37 0.07-0.37 0.07t-1.57-0.02q-1.58-0.03-3 0-1.41 0.02-2.79 0.1-1.37 0.08-3.37 0.47-2 0.4-2.28 0.4-0.27 0.01-0.54-0.05t-0.52-0.19q-0.25-0.12-0.46-0.3t-0.38-0.41q-0.16-0.23-0.26-0.49-0.11-0.25-0.15-0.53t-0.01-0.54q0.03-0.28 0.12-0.54 0.09-0.27 0.25-0.5 0.15-0.23 0.36-0.42 0.2-0.19 0.45-0.33 0.24-0.13 0.51-0.2 0.27-0.08 0.27-0.08z"/>
  </g>
  <g transform="matrix(.52917 0 0 .52917 197.78 256.23)">
   <path d="m2.3 0t-0.13 3.16-0.18 5.08q-0.04 1.92-0.03 3.6 0.02 1.67 0.08 2.96t0.12 3.24q0.06 1.96 0 2.31-0.06 0.36-0.23 0.67-0.16 0.32-0.43 0.57-0.26 0.25-0.58 0.4-0.33 0.15-0.69 0.19-0.35 0.04-0.7-0.04t-0.66-0.26q-0.31-0.19-0.54-0.46-0.23-0.28-0.36-0.61-0.14-0.34-0.16-0.7t0.08-0.7q0.1-0.35 0.3-0.65t0.49-0.51q0.28-0.22 0.62-0.34 0.35-0.11 0.7-0.11 0.36 0 0.7 0.11 0.34 0.12 0.62 0.34 0.29 0.22 0.49 0.51 0.2 0.3 0.3 0.65 0.1 0.34 0.08 0.7t-0.16 0.7q-0.13 0.33-0.36 0.61-0.24 0.27-0.54 0.46-0.31 0.18-0.66 0.26-0.36 0.08-0.7 0.04-0.36-0.04-0.69-0.19-0.32-0.15-0.59-0.4-0.26-0.25-0.42-0.57-0.17-0.32-0.23-0.67-0.06-0.36-0.06-0.36 0 0.01 0.06-1.95 0.06-1.95 0.12-3.24t0.08-2.96q0.01-1.68-0.03-3.6-0.05-1.92-0.18-5.08t-0.09-3.43q0.03-0.28 0.13-0.54 0.1-0.25 0.25-0.48 0.16-0.23 0.37-0.42 0.21-0.18 0.45-0.31 0.25-0.13 0.52-0.19 0.27-0.07 0.54-0.07t0.54 0.07q0.27 0.06 0.52 0.19 0.24 0.13 0.45 0.31 0.21 0.19 0.37 0.42 0.15 0.23 0.25 0.48 0.1 0.26 0.13 0.54 0.04 0.27 0.04 0.27z"/>
  </g>
  <g transform="matrix(.52917 0 0 .52917 197.25 257.29)">
   <path d="m0-2.62t1.72 0.07q1.72 0.06 3.52-0.01t2.94 0.3q1.14 0.38 2.78 1.97 1.64 1.57 2.23 3.35 0.59 1.77 0.32 3.2-0.27 1.42-1.41 3.32t-2.21 2.59-2.44 1.1q-1.36 0.41-2.53 0.54-1.17 0.12-1.31 0.18-0.13 0.05-0.5 0.04-0.38-0.01-0.74-0.11t-0.69-0.28-0.61-0.44q-0.27-0.25-0.48-0.57-0.2-0.31-0.33-0.67-0.12-0.35-0.16-0.72-0.04-0.38 0.02-0.75 0.05-0.37 0.19-0.72 0.15-0.35 0.37-0.65 0.22-0.31 0.5-0.55 0.29-0.24 0.63-0.41 0.33-0.16 0.7-0.24 0.37-0.09 1.83 0.42 1.46 0.5 3.07 1.77 1.61 1.28 2.64 2.28 1.04 1.01 2.38 1.96 1.34 0.96 1.54 1.45 0.19 0.48 0.22 1.01 0.04 0.52-0.1 1.03t-0.43 0.94q-0.3 0.44-0.72 0.76-0.41 0.32-0.91 0.49t-1.02 0.17q-0.53 0-1.03-0.16-0.5-0.17-0.91-0.49-0.42-0.31-0.72-0.75-0.3-0.43-0.44-0.94-0.14-0.5-0.12-1.03 0.03-0.52 0.22-1.01 0.2-0.49 0.53-0.89 0.34-0.4 0.79-0.67 0.45-0.28 0.96-0.39 0.52-0.12 1.04-0.06 0.52 0.05 1 0.27t0.86 0.58 0.63 0.82q0.25 0.47 0.34 0.98 0.08 0.52 0 1.04t-0.33 0.99q-0.24 0.46-0.62 0.82-0.38 0.37-0.86 0.59-0.47 0.22-1 0.28-0.52 0.06-1.03-0.05-0.52-0.11-0.97-0.38t-0.79-0.67-0.34-0.4-1.08-0.92q-1.07-0.92-2.37-2.32-1.29-1.4-1.66-1.41-0.38-0.01-0.74-0.11t-0.69-0.28-0.61-0.44q-0.27-0.25-0.48-0.57-0.2-0.31-0.33-0.67-0.12-0.35-0.16-0.72-0.04-0.38 0.02-0.75 0.05-0.37 0.19-0.72 0.15-0.35 0.37-0.65 0.22-0.31 0.5-0.55 0.29-0.24 0.63-0.41 0.33-0.16 0.7-0.24 0.37-0.09 1.26-0.17 0.89-0.09 2.23-0.34 1.35-0.24 1.61-1.58 0.25-1.34-0.27-2.27-0.53-0.93-2.21-1-1.69-0.07-3.41-0.01-1.72 0.07-2.03 0.03t-0.61-0.15q-0.29-0.11-0.55-0.29t-0.47-0.42-0.36-0.52-0.22-0.58q-0.08-0.31-0.08-0.62t0.08-0.62q0.07-0.31 0.22-0.58 0.15-0.28 0.36-0.52t0.47-0.42 0.55-0.29q0.3-0.11 0.61-0.15t0.31-0.04z"/>
  </g>
  <g transform="matrix(.52917 0 0 .52917 187.72 266.81)">
   <path d="m1.57-1.57t0.2 0.3q0.21 0.29 0.32 0.63 0.11 0.35 0.1 0.69-0.01 0.36-0.14 0.7-0.12 0.34-0.35 0.62-0.22 0.28-0.52 0.47-0.31 0.2-0.66 0.28-0.34 0.09-0.69 0.06-0.36-0.03-0.69-0.17t-0.6-0.38-0.44-0.56q-0.18-0.31-0.25-0.66-0.06-0.36-0.02-0.7 0.05-0.36 0.21-0.68t0.42-0.57q0.25-0.26 0.57-0.42t0.68-0.21q0.35-0.04 0.7 0.02 0.35 0.07 0.66 0.25 0.32 0.17 0.56 0.44t0.38 0.6 0.17 0.69q0.03 0.35-0.06 0.69-0.09 0.35-0.28 0.66-0.19 0.3-0.47 0.52-0.28 0.23-0.62 0.35-0.34 0.13-0.7 0.14-0.35 0.01-0.69-0.1t-0.63-0.32q-0.3-0.21-0.3-0.2 0 0-0.16-0.22-0.17-0.21-0.28-0.45t-0.15-0.51q-0.05-0.26-0.04-0.52 0.02-0.27 0.1-0.52 0.08-0.26 0.22-0.49 0.14-0.22 0.33-0.41t0.41-0.33q0.23-0.14 0.49-0.22 0.25-0.08 0.52-0.1 0.26-0.01 0.52 0.04 0.27 0.04 0.51 0.15t0.45 0.28q0.22 0.16 0.22 0.16z"/>
  </g>
 </g>
</svg>
