<?xml version="1.0" encoding="UTF-8"?>
<!-- Created with Inkscape (http://www.inkscape.org/) -->
<svg width="17.767mm" height="15.595mm" version="1.1" viewBox="0 0 17.767 15.595" xmlns="http://www.w3.org/2000/svg">
 <g transform="translate(-96.83 -302.08)">
  <g transform="matrix(.52917 0 0 .52917 104.31 315.46)">
   <path d="m-2.29 0.32t-0.45-4.03q-0.44-4.04-0.59-6.97-0.16-2.93 0.12-5.49 0.27-2.56 0.96-3.97 0.7-1.4 2.06-2.87 1.35-1.47 3.67-1.88 2.31-0.41 2.69-0.39 0.37 0.03 0.72 0.18 0.34 0.14 0.62 0.39t0.47 0.58q0.19 0.32 0.26 0.69t0.02 0.74-0.21 0.71-0.43 0.6q-0.26 0.27-0.6 0.44-0.33 0.17-0.7 0.22t-0.74-0.02-0.7-0.25-0.58-0.46-0.4-0.62-0.18-0.72q-0.04-0.37 0.05-0.73 0.09-0.37 0.29-0.69 0.2-0.31 0.49-0.55t0.64-0.37q0.36-0.13 0.73-0.14t0.73 0.1q0.36 0.1 0.67 0.32 0.3 0.22 0.52 0.52 0.23 0.3 0.34 0.66t0.1 0.73q-0.01 0.38-0.13 0.73-0.13 0.35-0.36 0.65-0.24 0.29-0.55 0.49-0.32 0.21-0.68 0.3t-0.36 0.09-1.73 0.04q-1.73 0.03-2.9 1.21-1.17 1.17-1.27 3.35-0.09 2.17 0.24 4.96 0.34 2.79 1.05 6.8 0.7 4.01 0.71 4.29 0 0.27-0.06 0.54t-0.18 0.52q-0.13 0.25-0.31 0.47-0.18 0.21-0.41 0.37-0.22 0.17-0.48 0.27-0.26 0.11-0.54 0.15t-0.54 0.01q-0.28-0.03-0.55-0.12-0.26-0.1-0.49-0.25-0.24-0.16-0.43-0.36-0.19-0.21-0.32-0.45-0.14-0.25-0.21-0.52t-0.07-0.27z"/>
  </g>
  <g transform="matrix(.52917 0 0 .52917 97.957 311.75)">
   <path d="m0-2.14t3.73 0.11q3.74 0.11 6.48 0.19t4.48 0.06q1.73-0.03 3.52-0.12t2.1-0.03q0.32 0.05 0.61 0.2 0.28 0.15 0.5 0.38 0.22 0.24 0.36 0.53 0.13 0.29 0.17 0.61 0.03 0.31-0.04 0.63-0.07 0.31-0.23 0.59-0.17 0.27-0.41 0.48-0.25 0.21-0.55 0.33t-0.62 0.14q-0.32 0.01-0.63-0.07-0.31-0.09-0.58-0.27-0.26-0.18-0.46-0.44-0.19-0.25-0.3-0.56-0.1-0.3-0.1-0.62t0.1-0.62q0.11-0.31 0.3-0.56 0.2-0.26 0.46-0.44 0.27-0.18 0.58-0.27 0.31-0.08 0.63-0.07 0.32 0.02 0.62 0.14t0.55 0.33q0.24 0.21 0.41 0.48 0.17 0.28 0.23 0.59 0.07 0.32 0.04 0.63-0.04 0.32-0.17 0.61-0.14 0.29-0.36 0.53-0.22 0.23-0.51 0.38-0.28 0.15-0.6 0.2-0.32 0.06-0.32 0.06 0.01 0-1.78-0.09t-3.52-0.12q-1.74-0.02-4.48 0.06t-6.48 0.19q-3.73 0.11-3.98 0.08-0.26-0.03-0.5-0.12t-0.46-0.24q-0.21-0.15-0.38-0.34t-0.29-0.42-0.19-0.48q-0.06-0.26-0.06-0.51t0.06-0.51q0.07-0.25 0.19-0.48t0.29-0.42 0.38-0.34q0.22-0.15 0.46-0.24t0.5-0.12q0.25-0.03 0.25-0.03z"/>
  </g>
  <g transform="matrix(.52917 0 0 .52917 109.6 315.46)">
   <path d="m-2.4 0t0.14-2.3 0.18-4.15q0.04-1.86 0.69-3.84 0.64-1.97 1.28-3.01 0.63-1.03 2.2-1.94 1.57-0.92 4.22-0.09 2.66 0.82 2.85 1.18 0.18 0.35 0.25 0.75t0 0.79q-0.06 0.4-0.25 0.75-0.18 0.36-0.47 0.64-0.29 0.27-0.66 0.44-0.36 0.17-0.76 0.22-0.4 0.04-0.79-0.04-0.39-0.09-0.74-0.29-0.34-0.21-0.61-0.51-0.26-0.31-0.41-0.68t-0.17-0.77 0.08-0.79q0.11-0.39 0.33-0.72 0.23-0.34 0.54-0.58 0.32-0.24 0.7-0.37t0.79-0.13q0.4-0.01 0.78 0.12t0.7 0.37 0.55 0.57q0.22 0.33 0.33 0.72t0.09 0.79-0.17 0.77q-0.14 0.38-0.4 0.68-0.26 0.31-0.6 0.52-0.35 0.21-0.74 0.3-0.39 0.08-0.79 0.04t-0.77-0.21q-0.36-0.16-0.65-0.44-0.3-0.28-0.3-0.27 0 0-0.98 0.31-0.99 0.3-1.5 1.62-0.5 1.31-0.46 3.13t0.18 4.12 0.11 2.58q-0.04 0.29-0.14 0.56t-0.27 0.51q-0.16 0.24-0.38 0.43-0.22 0.2-0.47 0.33-0.26 0.14-0.54 0.21-0.28 0.06-0.57 0.06t-0.57-0.06q-0.28-0.07-0.54-0.21-0.25-0.13-0.47-0.33-0.22-0.19-0.38-0.43-0.17-0.24-0.27-0.51t-0.14-0.56q-0.03-0.28-0.03-0.28z"/>
  </g>
  <g transform="matrix(.52917 0 0 .52917 100.07 316.52)">
   <path d="m1.57-1.57t0.2 0.3q0.21 0.29 0.32 0.63 0.11 0.35 0.1 0.69-0.01 0.36-0.14 0.7-0.12 0.34-0.35 0.62-0.22 0.28-0.52 0.47-0.31 0.2-0.66 0.28-0.34 0.09-0.69 0.06-0.36-0.03-0.69-0.17t-0.6-0.38-0.44-0.56q-0.18-0.31-0.25-0.66-0.06-0.36-0.02-0.7 0.05-0.36 0.21-0.68t0.42-0.57q0.25-0.26 0.57-0.42t0.68-0.21q0.35-0.04 0.7 0.02 0.35 0.07 0.66 0.25 0.32 0.17 0.56 0.44t0.38 0.6 0.17 0.69q0.03 0.35-0.06 0.69-0.09 0.35-0.28 0.66-0.19 0.3-0.47 0.52-0.28 0.23-0.62 0.35-0.34 0.13-0.7 0.14-0.35 0.01-0.69-0.1t-0.63-0.32q-0.3-0.21-0.3-0.2 0 0-0.16-0.22-0.17-0.21-0.28-0.45t-0.15-0.51q-0.05-0.26-0.04-0.52 0.02-0.27 0.1-0.52 0.08-0.26 0.22-0.49 0.14-0.22 0.33-0.41t0.41-0.33q0.23-0.14 0.49-0.22 0.25-0.08 0.52-0.1 0.26-0.01 0.52 0.04 0.27 0.04 0.51 0.15t0.45 0.28q0.22 0.16 0.22 0.16z"/>
  </g>
 </g>
</svg>
